<?xml version="1.0" encoding="UTF-8"?>
<svg id="Capa_1" data-name="Capa 1" xmlns="http://www.w3.org/2000/svg" viewBox="0 0 184.91 112.94">
  <path d="m65.93,64.13c0,.47,0,.95,0,1.44,0,8.04,0,16.08.01,24.12,0,1.78,0,1.77-1.75,1.9-.61.05-1.22.13-1.94.21-1.04-13.56-2.07-27.03-3.11-40.59h3.1v14.48h2.69c0-.53,0-1.02,0-1.51,0-3.75,0-7.5-.02-11.25,0-2.18.1-1.85,1.82-1.83.25,0,.49-.04.83-.07v-2.5c-2.29,0-4.56,0-6.83,0-1.87,0-1.84,0-1.98-1.92-.46-6.27-.96-12.54-1.43-18.8-.05-.61,0-1.23,0-1.95,4.66-.35,9.3-.7,14.13-1.06v1.28c0,7.04,0,14.08,0,21.12,0,.58.19,1.2-.69,1.49-.27.09-.38.86-.47,1.33-.69,3.98-1.36,7.96-2.02,11.94-.32,1.91-.31,1.91-2.34,2.18Z" style="stroke-width: 0px;"/>
  <path d="m111.18,54.31h2.6c.36-1.81.06-3.44-1.28-5.09h3.25v-27.65c2.22-.17,4.36-.36,6.5-.45.25-.01.73.53.76.84.86,10.95,1.68,21.91,2.51,32.87.19,2.53.44,5.06.64,7.59.04.48,0,.97,0,1.5h-12.49c.09-1.45.18-2.81.27-4.28h-2.77c0,.6,0,1.25,0,1.9,0,1-.35,1.76-1.46,1.78-1.13.03-1.49-.72-1.49-1.73,0-3,0-6-.02-9,0-1,.43-1.63,1.44-1.66,1.02-.02,1.48.64,1.53,1.6.03.54,0,1.08,0,1.77Z" style="stroke-width: 0px;"/>
  <path d="m96.86,83.87c.51,1.84.91,3.31,1.36,4.94-1.01.1-2.02.2-3.12.32-.05-.63-.1-1.15-.15-1.83-2.28,0-4.56-.07-6.83.03-1.27.06-1.69-.31-1.61-1.6.11-1.9.03-3.82.03-5.85h6.38c0-1.31.05-2.5-.05-3.68-.02-.22-.64-.54-.99-.55-1.7-.06-3.4-.03-5.2-.03v-7.42h8.07c.66-2.42.33-3.97-.94-4.43v-12.66h2.82c.06-.64.11-1.16.17-1.82.6-.03,1.19-.07,1.88-.1.04.47.09.83.09,1.19.01,4.75.04,9.5,0,14.25,0,.76-.17,1.58-.48,2.27-1.43,3.21-1.09,6.22,1.17,8.86,1.68,1.95,3.61,3.69,5.42,5.53,1.15,1.18,1.96,2.55,1.61,4.25-.14.68-.54,1.43-1.06,1.88-1.16,1.03-2.73.65-3.48-.7-.06-.11-.12-.22-.17-.33-.34-.84-.49-2.19-1.07-2.4-1.05-.39-2.35-.11-3.85-.11Z" style="stroke-width: 0px;"/>
  <path d="m77.7,61.27c.18.83.35,1.67.55,2.61-.49.02-.89.04-1.48.07-.82-4.86-1.64-9.68-2.47-14.56.44-.13.82-.25,1.29-.39v-11.38h6.59c0-1.31.07-2.51-.05-3.68-.02-.24-.75-.56-1.16-.58-1.7-.07-3.4-.03-5.18-.03v-7.46h8.37c.06-.72.11-1.32.17-2,1.31-.1,2.57-.2,3.96-.31-.55,3.31-1.07,6.47-1.61,9.62-.81,4.76-1.65,9.51-2.43,14.28-.13.79-.37,1.06-1.2.95-1.89-.26-3.65,0-4.57,1.94-.96,2.04-.66,4.01.81,5.7.95,1.1,2.08,2.05,3.05,3.13.52.58.98,1.26,1.28,1.97.37.9-.25,2.11-1.11,2.36-1,.28-1.57-.24-1.94-1.11-.69-1.62-.79-1.66-2.87-1.14Z" style="stroke-width: 0px;"/>
  <path d="m70.07,75.69c0-2.44.02-4.6,0-6.76,0-.72.38-.8.95-.79,2.08.01,4.17,0,6.25,0,.45,0,.9,0,1.47,0v-3.26c1.22.49,2.36.94,3.63,1.45.01.18.05.54.05.91,0,7.12-.01,14.25.05,21.37.01,1.25-.39,1.65-1.62,1.72-2.74.14-5.48.43-8.22.64-.78.06-1.57.08-2.47.13v-11.26h6.5v-4.15h-6.59Z" style="stroke-width: 0px;"/>
  <path d="m110.31,87.88c1.44-4.75-.76-7.96-3.93-10.82-1.11-1-2.21-2.02-3.2-3.14-1.21-1.36-1.6-2.98-1.14-4.77.25-.95.77-1.68,1.83-1.79,1.05-.11,1.74.41,2.14,1.35.26.61.52,1.21.82,1.91,1.2-.21,2.37-.41,3.86-.67-.41-1.33-.79-2.55-1.14-3.68,1.06-.42,2.19-.87,3.4-1.36v3.16h4.31v19.22c-2.22.19-4.45.37-6.95.58Z" style="stroke-width: 0px;"/>
  <path d="m94.59,23.12c2.35-.18,4.53-.34,6.89-.52,0,.61,0,1.1,0,1.59,0,7.5.02,15-.02,22.5,0,.65.55,1.7-.78,1.85-1.38.16-1.86-.18-2.1-1.62-.94-5.58-1.87-11.16-2.81-16.74-.38-2.3-.76-4.59-1.17-7.06Z" style="stroke-width: 0px;"/>
  <path d="m105.75,63.75h-4.2v-14.54h3.94v-16.85c.11-.02.22-.05.33-.07,1.72,5.29,3.44,10.58,5.19,15.97-.32.03-.54.07-.77.07-2.92-.03-4.6,1.56-4.61,4.52,0,3.37.07,6.75.12,10.12,0,.24,0,.48,0,.78Z" style="stroke-width: 0px;"/>
  <path d="m127.99,86.43c-2.17.17-4.22.33-6.33.5v-18.7c1.49,0,2.9-.06,4.29.05.27.02.67.65.7,1.03.32,3.56.56,7.13.84,10.7.16,2.07.32,4.14.5,6.42Z" style="stroke-width: 0px;"/>
  <path d="m90.96,51.05v12.73h-4.91c.01-.21,0-.41.05-.58.54-1.88.1-3.56-1.15-5-.81-.94-1.88-1.67-2.63-2.65-.68-.88-1.22-1.93-1.57-2.99-.25-.77.09-1.61,1.05-1.84.97-.23,1.46.35,1.72,1.2.06.2.16.38.31.72.72-.12,1.47-.24,2.48-.41-.39-1.04-.73-1.94-1.06-2.83,2.08-.56,2.59-.3,2.89,1.64h2.82Z" style="stroke-width: 0px;"/>
  <path d="m106.28,22.25c1.84-.13,3.48-.25,5.2-.38v17.14c-.06.02-.13.04-.19.06-1.65-5.54-3.3-11.07-5.01-16.81Z" style="stroke-width: 0px;"/>
  <path d="m94.47,48.45h-6.08c.3-1.78.57-3.47.89-5.15.03-.17.35-.38.55-.39,1.08-.04,2.16-.08,3.23,0,.23.02.57.46.63.76.3,1.54.52,3.1.79,4.79Z" style="stroke-width: 0px;"/>
  <path d="m92.98,38.75h-3.03c.47-3.33.92-6.58,1.38-9.83.09,0,.17,0,.26-.01.46,3.25.93,6.51,1.4,9.84Z" style="stroke-width: 0px;"/>
  <path d="m74.22,63.9h-3.65c.26-.75.32-1.7.74-1.91.58-.28,1.52-.18,2.14.11.38.18.46,1.01.77,1.79Z" style="stroke-width: 0px;"/>
  <path d="m72.47,53.29c.27,1.95.54,3.9.82,5.92h-1.87c.28-2.04.56-3.98.83-5.92.07,0,.14,0,.21,0Z" style="stroke-width: 0px;"/>
</svg>