<?xml version="1.0" encoding="UTF-8"?>
<svg id="Capa_1" data-name="Capa 1" xmlns="http://www.w3.org/2000/svg" viewBox="0 0 184.91 112.94">
  <path d="m108.34,35.94c-.66,2.42-1.14,4.92-2.04,7.26-.57,1.49-.56,2.64.05,4.09,1.33,3.18,2.28,6.52,1.31,9.97-.6,2.14-1.58,4.2-2.56,6.21-1.12,2.32-2.47,4.53-3.63,6.83-.64,1.25-1.21,2.56-1.64,3.89-1.01,3.1-3.19,5.05-6.08,6.2-.86.34-2.13.29-2.98-.09-2.86-1.29-5.11-3.23-5.88-6.51-.22-.96-.7-1.87-1.17-2.75-1.56-2.94-3.1-5.9-4.75-8.78-2.84-4.95-2.86-9.99-.56-15.08.62-1.37.62-2.53.01-3.91-2.19-4.95-2.38-9.89.38-14.75,1.34-2.35,2.63-4.73,3.84-7.14.89-1.78,1.73-3.6,2.42-5.46,1.11-3,3.29-4.88,6.14-5.99.76-.3,1.87-.21,2.63.12,3,1.33,5.36,3.32,6.14,6.74.18.8.59,1.55.97,2.29,1.98,3.9,4.06,7.74,5.92,11.69.73,1.54.97,3.31,1.48,5.17Zm-15.87-2.92c-6.79-.02-12.24,5.4-12.25,12.18-.01,6.73,5.4,12.17,12.11,12.19,6.81.02,12.24-5.37,12.24-12.18,0-6.74-5.39-12.18-12.1-12.2Zm-10.64,1.06c-1.65-.18-3.08.49-3.62,1.71-.64,1.47-.13,4.55.88,5.39.74-2.43.8-5.13,2.73-7.11Zm-2.81,15.33c-.88,1.31-1.03,2.63-1.04,3.99,0,2.39,1.5,3.68,3.86,3.35-2.02-1.94-2-4.72-2.83-7.34Zm23.92,7.4c1.65.11,3.07-.56,3.58-1.75.62-1.45.14-4.46-.87-5.45-.73,2.44-.83,5.13-2.71,7.2Zm2.81-15.25c1.01-2.06,1.37-3.92.71-5.83-.44-1.27-2.22-1.94-3.48-1.57,1.94,1.93,1.94,4.65,2.77,7.4Zm-22.38-12.42c-.71-.56-1.75-.96-2.71-.38-1.45.86-2.09,2.34-2.45,4.13,1.83-1.33,3.47-2.52,5.16-3.75Zm13.71-5.87c2.48.12,3.59,2.25,5.57,3.37-.35-1.85-.97-3.35-2.5-4.13-1.02-.52-2.07-.12-3.06.77Zm9.37,34.75c-1.73,1.26-3.4,2.47-5.01,3.65,2.11,1.71,4.39.22,5.01-3.65Zm-5.04-28.89c1.7,1.22,3.35,2.4,5.09,3.65-.33-1.71-.96-3.2-2.43-4.05-.96-.55-1.99-.16-2.66.4Zm-23.19,28.96c.46,1.74.99,3.3,2.68,4.03,1.03.45,2.01.18,2.59-.4-1.7-1.17-3.4-2.34-5.28-3.63Zm19.35,9.85c.69.5,1.69,1,2.68.38,1.44-.9,2.14-2.33,2.34-4.01-1.71,1.23-3.36,2.42-5.03,3.63Zm-10.34-45.03c-.66-.51-1.66-.96-2.64-.42-1.5.83-2.17,2.29-2.44,4.08,1.76-1.27,3.4-2.45,5.08-3.66Zm.02,45.01c-1.68-1.18-3.33-2.34-5.12-3.6.35,1.75.99,3.18,2.43,4.01,1.01.58,1.99.09,2.69-.41Zm8.06-51.47c1.69,1.17,3.03,2.1,4.46,3.09-.17-1.39-.71-2.58-1.91-3.15-.64-.3-1.57.02-2.55.06Zm-10.12,54.29c.12,1.46.56,2.8,1.99,3.27.62.21,1.43-.14,2.33-.27-1.03-.61-1.76-.98-2.42-1.45-.67-.47-1.28-1.04-1.91-1.56Zm3.89-54.08c-1.9-1.21-3.77.06-3.99,2.93,1.34-.98,2.65-1.95,3.99-2.93Zm10.61,54.16c-1.33.95-2.67,1.89-3.98,2.82,1.44,1.39,3.47.31,3.98-2.82Zm-11.91,6.03c-.08.12-.15.25-.23.37.82.36,1.61.86,2.47,1.02.37.07.88-.56,1.41-.93-1.41-.18-2.54-.32-3.66-.46Zm5.83.47c1.03,1.46,2.36,1.29,3.52-.48-1.17.16-2.34.32-3.52.48Zm0-64.3c1.22.16,2.37.31,3.53.46-1.11-1.76-2.64-1.93-3.53-.46Zm-2.42-.04c.05-.08.1-.16.15-.24-.55-.24-1.15-.76-1.62-.65-.77.17-1.46.74-2.18,1.14.06.08.12.17.18.25,1.16-.17,2.32-.34,3.47-.51Z" style="stroke-width: 0px;"/>
  <path d="m65.73,91.17c-.43,2.27-.82,4.4-1.26,6.51-.06.3-.37.66-.66.79-3.14,1.38-6.07-.43-6.33-3.85-.23-3.03.54-5.7,2.68-7.9,1.76-1.8,3.88-2.04,6.21-1.41-.37,1.98-.37,2-2.18,1.98-1.21-.01-2.06.57-2.71,1.51-1.38,2.01-1.63,4.27-1.2,6.58.09.49.88,1.04,1.45,1.21.85.25.79-.63.91-1.15.16-.68.25-1.38.37-2.12-.38-.1-.68-.19-1.34-.36.41-.67.65-1.57,1.12-1.71.87-.26,1.87-.07,2.94-.07Z" style="stroke-width: 0px;"/>
  <path d="m111.44,98.51c.87-4.57,1.73-9.06,2.6-13.63h2.45c-.29,1.62-.57,3.19-.89,4.97.46-.33.7-.64.99-.69.78-.14,1.73-.47,2.33-.16.49.24.87,1.32.8,1.97-.25,2.35-.69,4.69-1.13,7.02-.05.27-.51.58-.83.65-.51.11-1.06.03-1.74.03.4-2.13.82-4.11,1.11-6.11.08-.57-.22-1.19-.34-1.79-.49.44-1.23.8-1.41,1.35-.5,1.49-.79,3.06-1.1,4.61-.44,2.16-.41,2.17-2.82,1.79Z" style="stroke-width: 0px;"/>
  <path d="m40.29,85.11v13.42h-2.21v-2.75c-2.2-.6-2.52-.44-3.24,1.48q-.59,1.59-2.87,1.28c.29-.75.56-1.47.85-2.19,1.29-3.19,2.66-6.36,3.84-9.59.48-1.32,1.14-1.91,2.52-1.65.28.05.58,0,1.1,0Zm-4.13,8.53c.81-.12,1.84.66,1.98-.62.17-1.58.04-3.18.04-4.78-.05-.02-.1-.03-.16-.05-.61,1.77-1.21,3.53-1.86,5.44Z" style="stroke-width: 0px;"/>
  <path d="m83.37,89.1c-.54,3.19-1.07,6.29-1.61,9.47h-1.8c-.07-.37-.14-.72-.22-1.19-.26.24-.47.42-.67.61-.7.7-1.61,1.22-2.45.68-.63-.41-1.19-1.3-1.31-2.05-.17-1.03-.04-2.17.21-3.2.96-3.93,3.83-5.49,7.85-4.32Zm-2.57,1.71l-.4-.42c-.5.31-1.27.51-1.46.95-.56,1.3-.96,2.69-1.26,4.08-.09.39.36.89.56,1.34.39-.31.99-.56,1.13-.96.55-1.64.97-3.33,1.43-5Z" style="stroke-width: 0px;"/>
  <path d="m100.94,89.04c-.55,3.17-1.08,6.27-1.63,9.5h-1.76c-.06-.33-.12-.71-.21-1.25-.46.41-.8.74-1.17,1.03-1.25.98-2.76.61-3.16-.92-.7-2.67-.07-5.14,1.78-7.19,1.7-1.88,3.89-1.71,6.16-1.17Zm-2.63,1.79c-.12-.15-.24-.29-.36-.44-.52.33-1.3.55-1.52,1.03-.55,1.17-.94,2.45-1.19,3.72-.1.48.34,1.07.53,1.61.45-.41,1.13-.75,1.31-1.26.52-1.52.84-3.1,1.24-4.66Z" style="stroke-width: 0px;"/>
  <path d="m83.48,98.51c.6-3.23,1.18-6.37,1.76-9.49,1.87-.21,1.93-.43,2.12.66.73-.32,1.45-.77,2.22-.95,1.29-.3,2.33.51,2.18,1.82-.28,2.52-.73,5.01-1.17,7.51-.04.24-.48.53-.77.58-.56.09-1.14.03-1.8.03.4-2.17.81-4.16,1.11-6.17.08-.54-.17-1.13-.27-1.69-.5.4-1.29.71-1.46,1.23-.51,1.53-.81,3.13-1.13,4.71-.44,2.16-.42,2.16-2.8,1.77Z" style="stroke-width: 0px;"/>
  <path d="m74.82,89c-.38,2.11-.75,4.23-1.13,6.34-.15.82-.35,1.63-.44,2.46-.08.71-.44.89-1.08.86-.63-.03-1.35.14-1.15-1-.61.38-1.1.77-1.66,1-1.41.58-2.77-.14-2.64-1.56.22-2.6.7-5.18,1.11-7.77.03-.18.39-.42.62-.44.57-.06,1.15-.02,1.9-.02-.35,1.92-.67,3.71-.98,5.49-.09.49-.2.99-.17,1.48.02.32.27.63.42.95.32-.16.72-.24.94-.48.26-.29.44-.71.53-1.1.35-1.5.68-3,.98-4.51.41-2.06.4-2.07,2.76-1.69Z" style="stroke-width: 0px;"/>
  <path d="m42.23,88.91h2.57v6.33c.11.02.21.04.32.06.5-1.53,1-3.07,1.5-4.6q.66-2.04,3.02-1.73c-.35.87-.68,1.71-1.03,2.54-.96,2.26-1.88,4.53-2.9,6.77-.88,1.95-2.1,3.65-4.15,4.74-.34-.69-.63-1.27-.9-1.81.07-.16.08-.27.13-.3,2.19-1.17,2.75-2.92,2.23-5.32-.46-2.14-.54-4.36-.8-6.67Z" style="stroke-width: 0px;"/>
  <path d="m128.43,92.29c-.06,1.97-.59,3.65-1.76,5.1-1.03,1.28-2.57,1.77-4.01,1.3-1.26-.41-1.8-1.33-1.88-3.19-.09-1.91.44-3.62,1.62-5.12,1.16-1.47,2.84-2.07,4.28-1.51,1.66.64,1.64,2.13,1.75,3.42Zm-2.3-.44c-.25-.37-.55-.8-.85-1.23-.39.32-1.01.56-1.13.96-.4,1.33-.69,2.7-.87,4.08-.05.38.45.84.7,1.26.38-.33.97-.6,1.11-1.01.42-1.25.67-2.55,1.04-4.06Z" style="stroke-width: 0px;"/>
  <path d="m104.39,96.31c.76.11,1.38.29,1.98.28,1.66-.04,2.42-1.51,1.51-2.89-.29-.45-.69-.83-1.05-1.23-1.71-1.85-2.01-3.88-.83-5.67,1.1-1.67,3.31-2.23,5.71-1.35-.18.6-.37,1.21-.59,1.93-.44-.07-.87-.27-1.22-.16-.66.21-1.52.43-1.83.94-.28.44-.03,1.31.19,1.92.15.43.65.74,1,1.09,1.75,1.77,2.01,4.16.65,5.99-1.25,1.68-3.88,2.16-6.05,1.05.17-.61.35-1.23.54-1.91Z" style="stroke-width: 0px;"/>
  <path d="m136.88,90.7c-.32-.07-.62-.14-.96-.22.14-.76-.08-1.63,1.06-1.73.17-.01.44-.34.44-.53.05-1.91,1.52-1.67,2.82-1.98-.12.91-.22,1.67-.33,2.5.58.06,1.07.1,1.55.15.09,1.52.09,1.48-1.26,1.72-.31.06-.74.41-.81.69-.34,1.41-.61,2.84-.83,4.28-.14.91.05,1.07,1.28,1.4,0,1.7-.09,1.8-1.52,1.82-1.55.02-2.41-.61-2.29-1.94.19-2.02.55-4.02.86-6.17Z" style="stroke-width: 0px;"/>
  <path d="m140.67,98.47c.27-.72.45-1.21.64-1.72.54.06,1,.2,1.43.14.41-.06,1-.24,1.12-.53.16-.37-.02-.92-.15-1.37-.06-.21-.31-.38-.5-.54-1.16-.98-1.66-2.17-1.11-3.66.48-1.3,1.72-2.09,3.38-2.1.57,0,1.13.15,1.73.24-.03,1.12-.18,1.88-1.53,1.72-.4-.05-1.06.35-1.25.72-.14.28.25.86.44,1.28.06.14.24.23.36.34,1.16.99,1.61,2.2,1.08,3.68-.54,1.51-1.74,2.07-3.21,2.12-.75.02-1.52-.19-2.43-.32Z" style="stroke-width: 0px;"/>
  <path d="m130.59,88.93h1.98c.03.36.06.7.08.99.83-.47,1.62-.93,2.41-1.38.1.1.2.2.3.3-.25.96.17,2.09-1.43,2.63-.72.24-1.29,1.35-1.63,2.18-.4.98-.46,2.1-.68,3.16-.42,2.08-.55,2.16-2.79,1.69.57-3.14,1.15-6.28,1.75-9.56Z" style="stroke-width: 0px;"/>
  <path d="m54.41,85.11c-.68,2.98-1.25,5.83-2.04,8.62-.11.39-1.24.49-2.23.83.28-1.85.48-3.27.7-4.69.18-1.19.46-2.37.56-3.57.08-.97.46-1.32,1.4-1.2.48.06.98.01,1.6.01Z" style="stroke-width: 0px;"/>
  <path d="m148.61,94.05c.46-2.94.93-5.87,1.4-8.87h2.79c-.66,2.91-1.24,5.74-2.03,8.52-.11.39-1.23.5-1.88.74-.09-.13-.19-.27-.28-.4Z" style="stroke-width: 0px;"/>
  <path d="m50.48,98.83c-.78-.07-1.24-.55-1.26-1.44-.02-.92.74-1.78,1.57-1.76.91.03,1.34.59,1.38,1.45.05.93-.71,1.74-1.69,1.75Z" style="stroke-width: 0px;"/>
  <path d="m150.55,96.99c-.02,1.14-.73,1.89-1.62,1.84-.92-.06-1.31-.65-1.32-1.5-.01-.91.82-1.75,1.65-1.69.91.07,1.29.65,1.3,1.35Z" style="stroke-width: 0px;"/>
  <path d="m102.5,45.18c.01,5.58-4.49,10.13-10.04,10.16-5.6.03-10.18-4.55-10.17-10.16.01-5.57,4.54-10.08,10.11-10.08,5.58,0,10.09,4.5,10.1,10.08Zm-3.75,0c-.02-3.51-2.87-6.35-6.37-6.34-3.49.01-6.37,2.88-6.37,6.36,0,3.53,2.92,6.44,6.46,6.4,3.49-.03,6.3-2.91,6.29-6.42Z" style="stroke-width: 0px;"/>
  <path d="m97.14,45.19c.02,2.59-2.07,4.7-4.67,4.71-2.6,0-4.72-2.09-4.72-4.66,0-2.62,2.04-4.67,4.67-4.7,2.6-.03,4.69,2.04,4.71,4.65Zm-4.33,3.32c.05-.12.1-.25.15-.37-.34-.63-.67-1.25-1.01-1.88-.13,0-.27.01-.4.02-.09.51-.43,1.18-.22,1.5.26.4.96.51,1.47.74Zm2.28-1.29c-.04-.13-.08-.27-.12-.4-.71-.19-1.42-.39-2.12-.58-.08.11-.17.23-.25.34.36.44.64,1.09,1.1,1.24.36.12.92-.38,1.39-.6Zm-1.56-1.69c.01.15.03.31.04.46.58.04,1.2.21,1.72.05.23-.07.24-.83.43-1.61-.99.5-1.59.8-2.18,1.1Zm-3.27,2.02c.13-.02.26-.04.39-.06.24-.64.48-1.29.72-1.93-.13-.09-.26-.19-.4-.28-.4.29-1.02.51-1.15.9-.12.37.27.91.44,1.37Zm3.23-2.94c.13.11.27.23.4.34.4-.35.92-.65,1.14-1.09.1-.2-.36-.7-.69-1.28-.36.86-.6,1.44-.85,2.03Zm-1.52-.56c.09-.11.18-.22.27-.33-.3-.37-.53-.92-.91-1.06-.29-.11-.77.31-1.16.49l.08.31c.57.2,1.15.4,1.72.6Zm.34-1.89c-.07.09-.13.17-.2.26.28.56.57,1.12.85,1.68.17-.04.34-.07.51-.11,0-.49.14-1.05-.05-1.45-.11-.25-.73-.26-1.12-.38Zm-1.04,2.59c0-.17-.02-.34-.03-.52-.53,0-1.08-.09-1.57.05-.17.05-.18.66-.33,1.28.85-.35,1.39-.58,1.93-.81Z" style="stroke-width: 0px;"/>
</svg>