<?xml version="1.0" encoding="UTF-8"?>
<svg id="Capa_1" data-name="Capa 1" xmlns="http://www.w3.org/2000/svg" viewBox="0 0 184.91 112.94">
  <path d="m103.65,38.25c3.97-.02,7.8.64,11.36,2.46,5.41,2.78,8.19,7.42,9.13,13.25.82,5.09.48,10.14-1.18,15.05-.98,2.91-2.65,5.43-5.09,7.27-6.25,4.7-13.04,8.38-20.81,9.83-10.9,2.04-19.78-1.42-26.16-10.5-4.15-5.9-7.56-12.25-9.53-19.28-1.59-5.68-.42-10.63,3.79-14.79,6.2-6.12,13.38-10.83,21.24-14.5.91-.43,1.99-.6,3-.68,1.26-.1,1.83.57,1.45,1.79-.36,1.16-.87,2.36-1.61,3.31-.86,1.1-2.08,1.91-3.06,2.93-2.77,2.87-5.71,5.61-8.21,8.71-3.65,4.52-5.58,9.82-5.75,15.67-.15,5.31,1.9,9.71,6.01,13,5.45,4.38,11.69,6.79,18.75,6.85,3.87.03,7.05-1.46,9.48-4.47,3.57-4.42,5.95-9.43,7.15-14.96,1.03-4.73-.92-8.47-5.23-10.63-8.02-4-15.67-1.45-21.06,4.33-1.77,1.9-2.57,4.26-2.4,6.89.27,4.37,5.18,7.56,9.3,6.06,1.41-.51,2.34-1.49,2.5-2.99.16-1.57,0-3.11-1.51-4.1-.49-.32-.97-.64-1.46-.96-.84-.56-1.52-1.25-1.24-2.36.28-1.11.9-1.99,2.09-2.26.68-.16,1.41-.28,2.1-.21,1.32.13,2.66.28,3.93.66,7.14,2.14,9.32,9.72,4.25,15.22-4.19,4.56-9.53,6.04-15.59,4.92-2.81-.52-5.42-1.63-7.83-3.15-5.31-3.35-7.17-8.21-5.59-14.3,1.98-7.59,7.18-12.17,14.06-15.17,4.36-1.9,8.94-2.88,13.71-2.87Z" style="stroke-width: 0px;"/>
</svg>