<?xml version="1.0" encoding="UTF-8"?>
<svg id="Capa_1" data-name="Capa 1" xmlns="http://www.w3.org/2000/svg" viewBox="0 0 184.91 112.94">
  <path d="m92.44,19.82c6.62,0,13.24.02,19.87-.02.85,0,1.32.24,1.76,1,6.5,11.34,13.03,22.67,19.59,33.98.64,1.11.61,2.04-.03,3.13-6.4,11.06-12.78,22.14-19.13,33.23-.68,1.19-1.51,1.68-2.9,1.68-12.79-.04-25.57-.04-38.36,0-1.35,0-2.12-.48-2.78-1.63-6.36-11.13-12.76-22.24-19.18-33.34-.61-1.06-.64-1.94-.02-3.01,6.6-11.38,13.17-22.78,19.71-34.19.41-.71.87-.84,1.6-.83,6.62.02,13.24.01,19.87.01Zm-11.84,7.42h0c-1.08,0-2.17.06-3.25-.02-1.14-.09-1.86.34-2.43,1.33-5.09,8.89-10.2,17.76-15.33,26.63-.48.82-.47,1.51.02,2.32,1.08,1.78,2.09,3.6,3.13,5.41,4.07,7.07,8.14,14.14,12.21,21.22.4.7.79,1.37,1.76,1.36,2.54-.02,5.08.02,7.62-.07.38-.01.98-.52,1.07-.89.45-1.9.75-3.84,1.14-5.76.18-.89-.15-1.23-1.03-1.21-1.37.03-2.76.11-4.12-.02-.6-.06-1.41-.45-1.7-.94-3.76-6.39-7.46-12.81-11.1-19.26-.28-.5-.29-1.45,0-1.95,3.62-6.42,7.32-12.79,10.99-19.18.47-.81,1.07-1.18,2.03-1.14,1.33.06,2.67,0,4,.03.83.02,1.13-.31.96-1.14-.39-1.92-.75-3.84-1.1-5.77-.13-.71-.54-.95-1.23-.93-1.21.03-2.42,0-3.62,0Zm23.92-.01h0c-1.29.01-2.59-.05-3.87.05-.4.03-1.02.49-1.1.85-.45,1.9-.75,3.84-1.13,5.76-.19.92.19,1.2,1.06,1.18,1.42-.03,2.84-.09,4.24.03.52.04,1.22.42,1.47.85,3.77,6.43,7.5,12.88,11.17,19.36.29.51.31,1.45.02,1.96-3.64,6.45-7.34,12.88-11.1,19.26-.3.51-1.16.91-1.8.98-1.36.15-2.74.06-4.12.04-.84-.01-1.12.35-.96,1.16.36,1.8.74,3.59,1.01,5.4.15,1.06.68,1.38,1.67,1.37,2.29-.04,4.58.08,6.87-.05.66-.04,1.56-.53,1.89-1.09,5.25-8.99,10.44-18.01,15.58-27.06.27-.48.29-1.37.03-1.84-5.17-9.08-10.38-18.14-15.65-27.16-.3-.52-1.15-.91-1.79-1-1.14-.16-2.33-.05-3.49-.05Zm-18.3-4.94c-.52-.06-1.04-.16-1.55-.16-3.37-.02-6.75.03-10.12-.04-1.24-.02-2,.43-2.61,1.5-5.98,10.44-11.99,20.87-18.01,31.29-.59,1.02-.61,1.89,0,2.9,1.5,2.5,2.93,5.04,4.39,7.56,4.55,7.9,9.11,15.8,13.62,23.72.61,1.07,1.34,1.58,2.6,1.5,1.41-.09,2.83-.03,4.25-.03,2.12,0,4.25-.02,6.37,0,1.02.01,1.2-.33.87-1.29-.38-1.12-1.01-1.57-2.21-1.53-2.66.08-5.33.02-8,.06-.98.01-1.65-.33-2.15-1.19-5.6-9.75-11.21-19.49-16.83-29.23-.42-.73-.41-1.36.02-2.09,5.58-9.66,11.15-19.33,16.7-29.02.56-.99,1.25-1.43,2.4-1.4,2.5.06,5,.02,7.5.03,2.11,0,2.41-.25,2.76-2.59Zm19.11,68.25c1.75,0,3.5-.04,5.25.01,1.09.03,1.8-.38,2.34-1.32,6.08-10.58,12.17-21.15,18.27-31.72.46-.8.5-1.49.01-2.32-5.63-9.73-11.35-19.42-16.76-29.27-1.59-2.9-3.29-4.28-6.67-3.85-2.62.33-5.32.06-7.99.06-.87,0-1.18.25-.86,1.22.39,1.2,1.05,1.61,2.29,1.57,2.62-.09,5.25-.01,7.87-.05,1.03-.02,1.72.38,2.23,1.27,5.56,9.68,11.13,19.35,16.72,29.01.47.81.49,1.51.02,2.33-5.6,9.7-11.2,19.41-16.77,29.12-.5.87-1.17,1.19-2.15,1.18-2.46-.04-4.92-.02-7.37-.02-.54,0-1.09-.01-1.62.07-.66.1-1.63,1.51-1.33,2.12.17.34.91.55,1.4.57,1.71.07,3.42.03,5.12.03Zm-11.69-43.16c0,3-.02,6,.03,8.99,0,.36.4.71.62,1.06.3-.23.61-.45.88-.71.11-.1.14-.3.2-.45,2.18-5.85,4.35-11.7,6.54-17.53.37-.98.16-1.38-.93-1.36-2,.04-4,.04-5.99,0-1.03-.02-1.38.37-1.37,1.4.05,2.87.02,5.74.02,8.62Zm-2.31-.08c0-2.87-.02-5.74.01-8.61.01-.96-.35-1.34-1.31-1.32-2,.04-3.99,0-5.99.02-1.27.01-1.4.2-.95,1.41,2.18,5.84,4.35,11.69,6.57,17.51.17.44.71.73,1.08,1.09.2-.45.56-.9.56-1.35.05-2.91.03-5.82.03-8.74Zm-10.73-8.2c-1.43,2.48-2.76,4.72-3.99,7.02-.16.29.1.96.36,1.29,1.48,1.85,3.02,3.65,4.55,5.47,1.53,1.82,3.04,3.64,4.61,5.42.23.26.69.4,1.06.43.16.01.47-.38.5-.61.04-.3-.12-.64-.23-.95-2.06-5.54-4.11-11.07-6.18-16.6-.16-.42-.37-.81-.68-1.47Zm23.8.05c-.27.48-.45.72-.55.98-2.16,5.77-4.32,11.54-6.44,17.33-.13.36.14.86.22,1.3.42-.17.98-.23,1.24-.53,3.09-3.61,6.14-7.25,9.18-10.9.23-.28.47-.85.34-1.08-1.26-2.33-2.59-4.62-4-7.09Zm-26.61,29.1c.5,1.44,1.01,2.4,2.56,2.39,8.12-.05,16.25-.02,24.37-.03,1.52,0,2.23-.79,2.27-2.6-9.73.05-19.46-.07-29.2.24Zm14.6-2.48c1.99,0,3.99,0,5.98,0,.92,0,1.31-.28.98-1.28-.95-2.83-3.79-4.89-6.85-4.9-3.04-.02-5.9,2.03-6.87,4.87-.33.94-.07,1.33.91,1.32,1.95-.02,3.91,0,5.86,0Zm.16,19.67c1.21,0,2.41,0,3.62,0,.78,0,1.15-.28.97-1.15-.4-1.87-.77-3.74-1.1-5.62-.14-.8-.51-1.15-1.33-1.14-1.45.03-2.91.03-4.36,0-.84-.02-1.3.29-1.45,1.17-.31,1.84-.66,3.68-1.07,5.5-.2.9.1,1.25.97,1.24,1.25,0,2.49,0,3.74,0Zm-17.56-36.58c-1.1,1.9-2.08,3.68-3.16,5.4-.55.89-.3,1.3.56,1.7,3.66,1.71,7.29,3.47,10.95,5.17.38.18.9.06,1.36.08-.13-.47-.12-1.04-.4-1.38-2.7-3.28-5.45-6.52-8.18-9.77-.31-.37-.67-.71-1.14-1.2Zm35.06.13c-.25.11-.35.13-.39.18-3.07,3.61-6.14,7.21-9.18,10.85-.21.25-.12.74-.17,1.12.39.03.85.22,1.15.08,3.84-1.79,7.66-3.62,11.46-5.49.25-.12.52-.75.42-.94-1.06-1.96-2.19-3.89-3.29-5.8Zm-17.9-13.94c1.01,0,1.73-.04,2.43,0,.93.06,1.34-.32,1.49-1.25.3-1.85.69-3.68,1.07-5.52.14-.67-.01-1.07-.77-1.07-2.58,0-5.17,0-7.75,0-.72,0-.96.33-.82,1.03.24,1.14.41,2.3.66,3.43.86,3.98.02,3.28,3.69,3.36Zm12.03,38.03h-23.45c.2,1.72.71,2.18,2.42,2.19,4.32.02,8.65,0,12.97,0,1.95,0,3.91.02,5.86-.01,1.54-.03,2.13-.62,2.19-2.18Zm-31.75-14.39c-.07.1-.14.2-.21.3,1.18,2.05,2.32,4.12,3.57,6.12.23.36.89.6,1.37.63,1.41.08,2.83.02,4.24.03.77,0,1.58.04,1.8-.93.22-.98-.45-1.41-1.21-1.77-2.82-1.33-5.63-2.68-8.45-4.01-.35-.17-.74-.25-1.11-.37Zm40.49-.03c-.51.07-.68.05-.81.11-3.27,1.54-6.54,3.06-9.78,4.66-.32.16-.59.94-.47,1.29.15.42.72.95,1.13.98,1.61.12,3.24.1,4.86.02.47-.02,1.12-.32,1.35-.69,1.25-2,2.39-4.06,3.72-6.38Zm-16.08-33.91c-.5-2.39-.75-2.61-2.83-2.63-1.04,0-2.07,0-3.11,0-2.03.02-2.47.44-2.66,2.63h8.6Zm-.14,63.11h-8.45c.13,2.15.65,2.66,2.55,2.65,1.13,0,2.25,0,3.38,0,1.92.01,2.38-.44,2.52-2.65Z" style="stroke-width: 0px;"/>
</svg>