<?xml version="1.0" encoding="UTF-8"?>
<svg id="Capa_1" data-name="Capa 1" xmlns="http://www.w3.org/2000/svg" viewBox="0 0 184.91 112.94">
  <path d="m67.2,61.36c-3,3.44-6.01,6.87-9.01,10.31,1.7-3.43,4.13-6.3,6.73-9.11-2.48,1.26-4.97,2.53-7.45,3.79-.08-.14-.16-.28-.24-.42,2.9-1.7,5.8-3.4,8.73-5.12-3.94.84-7.9,1.69-11.85,2.54-.04-.13-.07-.26-.11-.38,2.13-.63,4.23-1.39,6.39-1.86,2.02-.44,4.12-.56,6.17-.88.4-.06,1-.38,1.07-.69.14-.6.49-1.33-.49-1.79-1.36-.64-1.92-1.96-2.12-3.35-.68-4.87.78-9.05,4.27-12.48.94-.93,2.11-1.47,3.5-1.36,1.1.09,1.1.08,1.75-1.3-4.61-.29-9.14-.58-13.67-.86,0-.1,0-.2,0-.3h9.92c-2.21-.94-4.6-1.96-6.98-2.98.05-.14.1-.28.15-.41,3.3,1.16,6.6,2.32,10,3.52-3.24-2.75-6.43-5.47-9.62-8.18,4.24,2.01,7.63,5.08,10.72,8.61.67-.87,1.35-1.61,1.87-2.45.82-1.33.45-2.71-.27-3.91-1.71-2.87-4.23-4.52-7.64-4.68-.25-.01-.5,0-.75,0-.2,0-.41,0-.62,0,.67-3.82,5.86-8.79,11.36-6.86,2.12.74,3.21,2.27,3.5,4.44.37,2.73-.51,5.19-1.81,7.51-.61,1.08-1.34,2.1-2.17,3.37,1.32,0,2.5.06,3.66-.04.3-.03.6-.56.81-.92,1.13-1.93,2.14-3.93,3.39-5.78.5-.74,1.5-1.14,2.27-1.7l.25.36c-.36.29-.73.59-1.09.88,0,.12.02.24.03.35.66-.06,1.48.1,1.95-.23.99-.71,1.96-.77,3.07-.56.94.18,1.89.29,2.99.45-.49.38-.88.69-1.33,1.05,1.04.51,1.86.44,2.68-.28.33-.29.87-.34,1.37-.35-2.77,1.85-3.94,4.69-5.17,7.59.74.5,1.07.3,1.38-.46.31-.77.38-1.97,1.95-1.41-.85-2.25.69-3.31,2.02-4.38,1.69-1.35,3.06-1.21,3.98.68.99,2.03,1.63,4.25,2.24,6.43.3,1.07.6,1.68,1.83,1.9,2.12.37,4.19,1,6.34,1.54.39-1.19.71-2.3,1.11-3.38,1.06-2.84,2.48-5.46,4.77-7.52,2.14-1.92,4.61-3.05,7.44-1.91,2.99,1.21,4.58,3.72,4.99,6.84.46,3.46-.28,6.71-2.57,9.57-.2-.28-.4-.53-.56-.79-2.11-3.34-5.19-4.94-9.1-4.99-3.12-.04-4.66,1.09-5.66,4.05-.17.51-.32,1.03-.47,1.54,2.69.8,5.33,1.58,7.97,2.36-.03.13-.07.25-.1.38-2.71-.55-5.43-1.11-8.14-1.66-.07.14-.13.29-.2.43l5.47,3c-.04.09-.08.18-.12.27-1.8-.69-3.6-1.38-5.47-2.1-.51.86-.46,1.5.22,2.32,1.55,1.86,2.94,3.85,4.4,5.79-.1.08-.2.15-.3.23-1.59-1.84-3.18-3.69-4.94-5.73-.9,4.37-1.05,8.56-.88,12.86,1.99.32,3.94.64,5.88.95-.01.07-.02.14-.03.21h-5.73c.06,1.9-.24,3.88,2.19,4.61-.54-.12-1.09-.25-1.74-.4.34,2.18.4,4.33,2.2,5.87-.29-.2-.58-.39-1.21-.82.63,1.84,1.06,3.37,1.67,4.84,1.03,2.49.58,4.6-1.28,6.52-4.08,4.23-9.17,6.38-14.86,7.29-7.95,1.27-15.68-.03-23.34-2.09-1.86-.5-3.08-1.74-3.61-3.63-.61-2.2-1.3-4.39-1.85-6.61-.22-.88-.58-1.44-1.44-1.82-3.05-1.37-4.55-3.69-4.38-7.13.1-2.1.98-3.5,2.96-4.13.82-.26,1.12-.67,1.06-1.52-.08-1.12-.02-2.24-.02-3.36-.08-.06-.17-.11-.25-.17Zm21.5,16.94c2.67,0,5.34.15,7.99-.05,2.26-.17,4.51-.66,6.73-1.17,1.67-.38,1.96-1.81,2.11-3.31.15-1.49-.26-2.67-1.67-3.29-1.25-.55-2.53-1.09-3.85-1.39-6.37-1.48-12.88-1.67-19.37-1.66-4.02,0-8.06.35-12.05.86-2.58.33-3.26,1.56-2.54,4.07.28.98,1.09,2.03,1.95,2.57,1.35.84,2.92,1.43,4.47,1.84,5.32,1.38,10.78,1.53,16.24,1.53Zm-12.84-35.81c-.1.09-.2.19-.3.28.89,2.59.64,5.16-.07,7.73-.07.27-.02.66.14.87.09.12.51-.02.79-.05.53-.05,1.06-.1,1.58-.14-.05.58-.06,1.17-.18,1.74-.06.31-.29.59-.48.87-.94,1.36-1.6,1.32-2.32-.15-.06-.13-.22-.22-.33-.32-1.44,1.55-2.84,3.05-4.25,4.58.14.57.24,1.35.52,2.06.21.54.55,1.2,1.01,1.41.33.15.95-.39,1.46-.56.59-.19,1.26-.53,1.8-.41,1.1.25,1.45,1.98.76,3.2-.73,1.29-1.95,1.37-2.67.1-.57-1-1.34-1.12-2.32-.87-.66.17-1.33.31-2.01.47v2.29c.33-.02.57-.01.81-.04,5.85-.77,11.72-.58,17.58-.32,1.94.09,1.96.1,1.77-1.88-.12-1.27.68-1.9,1.84-1.39.6.26,1.16.65,1.69,1.05.47.36.86.81,1.29,1.22-.46.36-.92.72-1.37,1.08-.04.03-.04.13-.05.2,2.19.28,4.37.56,6.6.84.15-1.75.29-3.44.44-5.32-.46.33-.72.53-.99.71-3.33,2.27-6.5,1.13-7.65-2.76-.14-.48-.12-1.01-.32-1.45-.33-.73-.78-1.4-1.18-2.1-.16.06-.32.11-.48.17-.36,2.9-.72,5.8-1.11,8.87-3.5-.49-6.93-.98-10.66-1.51.96-6.3,1.9-12.45,2.84-18.55-1.79.77-1.75.74-2.87-1.1-.25-.4-.89-.57-1.34-.84Zm5.25,38.14l-.06.31c.45.1.9.25,1.35.28.77.06,1.35.37,1.29,1.19-.06.88-.72,1.15-1.53,1.06-.95-.11-1.9-.23-2.84-.36-1.2-.16-1.42-.55-1.27-1.78.04-.35-.27-1.03-.52-1.09-2.24-.48-4.5-.86-6.87-1.29.23.94.37,1.81.66,2.62.11.32.52.66.86.74,4.89,1.28,9.88,1.77,14.97,1.93.21-.7.15-1.95,1.35-1.09,1.08.77,1.64.51,2.31-.48.64-.95,1.61-1.13,2.21-.39.78.96,1.29.82,2.07.01,1-1.03,2.02-.68,2.35.69.06.27.09.55.16.95,1.53-.18,2.98-.36,4.5-.54-.25-.9-.47-1.57-.6-2.26-.14-.73-.52-.85-1.22-.83-5.52.14-11.05.22-16.58.31-.86.01-1.73,0-2.59,0Zm12.55-21.98c.29-.37.54-.75.84-1.08,2.19-2.39,4.36-4.8,6.61-7.13,1.06-1.1,1.22-1.5.45-3.05-.28.19-.58.33-.81.56-2.43,2.44-4.89,4.86-7.25,7.37-1.13,1.2-1.01,1.85.16,3.33Zm10.73-7.08c-.42,1.41-.94,2.69-1.12,4.02-.07.49.58,1.16,1.04,1.6.14.13.83-.11,1.12-.36,1.23-1.07,1.83-.95,2.61.55.16.3.58.46.89.68.19-.33.47-.63.56-.99.34-1.44-.06-2.8-.61-4.1-.11-.26-.84-.5-1.16-.39-1.04.38-1.91.58-2.53-.64-.09-.19-.47-.23-.79-.37Zm6.85,21.27c-.56-.79-.88-1.52-1.43-1.96-2.58-2.09-5.23-4.1-7.86-6.14-.31-.24-.65-.44-1.12-.75v2.34c2.09,1.18,4.18,2.01,5.82,3.38,1.97,1.63,1.33,4.08,1.14,6.4.49-.34,1-.71,1.09-1.17.23-1.15.82-1.86,2.35-2.1Zm-1.43-10.18c-.45-.97-.64-1.91-1.21-2.47-.75-.74-1.41.12-2.03.56-.81.57-1.47.48-1.94-.43-.45-.88-1.04-1.19-2.02-.73-1.37.64-1.79,1.58-1.48,3.53,2.73-.14,5.45-.29,8.68-.46Zm-19.89-8.9c.16.06.31.11.47.17.19-.47.46-.92.57-1.4.56-2.43,1.51-4.69,3.13-6.59.66-.78.32-1.34,0-2.02-.42-.93-1.24-1.01-2-.75-.4.14-.7.74-.9,1.19-.22.48-.35,1.03-.39,1.57-.17,1.95-1.48,3.83-.41,5.88.1.19-.12.55-.19.83-.09.37-.18.75-.27,1.12Zm4.72,5.84c1.61.62,2.83.32,4.17-.82,1.99-1.69,3.63-5.27,3.2-7.49-2.53,2.86-4.91,5.54-7.37,8.31Zm8.94,23.38c2.75-1.37,5.28-2.84,7.43-4.89.27-.26.59-.51.73-.84.15-.34.26-.84.12-1.13-.14-.27-.62-.47-.97-.51-.98-.13-1.14.49-1.15,1.32-.01,1.45-1.09,2.54-2.27,2.04-1.95-.81-3.13.74-4.79.95.33,1.1.6,2.01.91,3.06Zm-8.24-44.11c-.28.91-.55,1.72-.78,2.54-.23.86.17,1.23,1.04,1.09.46-.08,1.17-.21,1.36.02.5.6.96.4,1.53.28,1.41-.28,2.17-1.53,3.31-2.2.09-.06.09-.28.16-.54-2.26-.41-4.44-.8-6.62-1.19Zm10.07,9.89c.39.72.7,1.18.9,1.67.36.85,1.11,1.25,1.79.83.9-.56,1.61-1.45,2.34-2.26.12-.14,0-.68-.19-.89-.9-1.06-1.86-2.08-2.92-3.25-.74,1.51-1.4,2.83-1.92,3.89Zm-11.36,37.18c-1.22,1.64-2.37,3.18-3.75,5.04,2.78-.18,5.18-.33,7.92-.51-1.55-1.68-2.81-3.05-4.17-4.53Zm-1.34-32.49c2.59-2.51,5.12-4.95,7.63-7.38-.95-.63-1.9-.75-3.03-.08-2.82,1.66-4.09,4.3-4.6,7.46Zm-25.82.44c2.15-2,4.22-4.03,6.39-5.93,1.21-1.06,1.34-1.29.35-2.8-2.65,1.8-4.84,4.04-6.61,6.7-.51.76-.54,1.43-.13,2.02Zm18.22,31.9c-1.53,1.31-2.93,2.49-4.62,3.93,2.74.38,5.07.69,7.79,1.07-1.18-1.87-2.13-3.36-3.17-5Zm-8.66-46.29c.22.56.49,1.03.57,1.54.13.83.47.96,1.18.59.94-.5,1.91-.94,3.17-1.56.14-.52.4-1.45.7-2.52-2.25.14-4.72-.93-5.62,1.95Zm12.9,50.8c1.17-1.56,2.19-2.93,3.34-4.48h-6.18c.97,1.54,1.85,2.92,2.84,4.48Zm9.58-.8c.99-1.56,1.86-2.92,2.88-4.51-2.3.23-4.26.42-6.44.64,1.26,1.37,2.35,2.55,3.56,3.87Zm-24.69-40.42c-2.45,1.85-4.46,3.81-6.02,6.3,2.64.52,5.18-2.14,6.02-6.3Zm-1.26-5.58c-2.1-1.94-5.94,2.61-6.14,5.67,2-1.84,4.07-3.76,6.14-5.67Zm10.56,42.1c-2.13-.23-3.96-.42-6.07-.64.82,1.41,1.5,2.59,2.24,3.88,1.3-1.1,2.43-2.05,3.83-3.24Zm33.16-48.01c-.13-.14-.26-.29-.4-.43,1.02-.94,2.03-1.88,2.99-2.77-2.29.03-4.71,2.71-5.2,5.96,1.87-1.98,4.25-2.58,7.04-2.89-1.7-.82-3.06-.17-4.43.13Zm-7.21,26.16h-7.32c2.41.85,4.95,1.74,7.63,2.68-.1-.89-.19-1.7-.31-2.68Zm-5.16-16.42c1.09-1.98,2.18-3.94,3.31-5.98-.54-.11-1.01-.21-1.53-.32-.06.9-.05,1.66-.19,2.38-.06.31-.39.6-.68.8-.1.07-.47-.11-.62-.26-1.02-1.03-1.01-1.04-2.11-.28.59,1.2,1.17,2.37,1.8,3.67Zm-30.72,40.5c1.79.51,3.23.92,4.99,1.42-.92-1.6-1.66-2.88-2.47-4.3-.81.93-1.53,1.76-2.52,2.88Zm38.5-45.21c-2.79-1.14-3.54-.83-4.05,1.59,1.14.09,2.27.18,3.46.28.2-.64.39-1.21.6-1.87Zm-33.33-9.49c-.61-1.32-1.12-2.42-1.63-3.51-.03.03-.05.07-.08.1.33,1.99.66,3.97.97,5.85,1.84-1.5,2.71-4.57,1.65-5.95-.28,1.07-.57,2.21-.91,3.52Zm10.09,8.8c-.31,1.26-.59,2.4-.9,3.69.7.09,1.28.17,1.93.25.31-1.29.59-2.46.88-3.7-.7-.09-1.22-.15-1.92-.24Zm-.23,10.44c.23-1.26.44-2.42.66-3.7-.73-.07-1.32-.12-1.94-.17-.22,1.28-.42,2.4-.63,3.61.68.1,1.24.17,1.9.26Zm-4.67-11.2c-.73-.07-1.28-.12-1.92-.17-.3,1.24-.58,2.38-.89,3.68.73.07,1.31.12,1.92.18.3-1.25.57-2.37.88-3.68Zm-2.15,10.22c.23-1.26.44-2.42.67-3.69-.71-.07-1.27-.13-1.92-.19-.22,1.22-.43,2.35-.66,3.6.68.1,1.23.18,1.91.28Zm21,34.18c-.99,1.55-1.81,2.82-2.62,4.1.05.08.1.16.15.24,1.15-.35,2.31-.71,3.58-1.1-.37-1.08-.68-2-1.1-3.24Zm9.15-2.13c-1.25-.43-2.26-.78-3.24-1.11v3.97c1.19-1.06,2.13-1.89,3.24-2.86Zm-29.02-45.24c1.94.49,2.42-.02,2.74-2.86-1.87-.52-1.68-.86-2.74,2.86Zm9.72-1.87c-1.95-.52-2.65.26-2.84,3.23.71-.22,1.57-.23,1.87-.64.5-.7.64-1.65.97-2.59Zm-11.72,20.82c.15-1.09.27-2.05.42-3.14-.67-.08-1.21-.15-1.87-.24-.16,1.06-.31,2.02-.47,3.11.67.09,1.25.17,1.93.26Zm7.27-2.19c-.69-.08-1.25-.14-1.91-.22-.15,1.06-.28,2.02-.44,3.12.68.09,1.26.17,1.9.25.15-1.07.29-2.01.45-3.15Zm21.91,14.9c.08-.03.16-.06.23-.09-.22-.75-.22-1.91-.71-2.19-1.38-.78-2.97-1.19-4.47-1.75-.02.05-.03.1-.05.16,1.67,1.29,3.33,2.58,5,3.87Zm-31.35-10.8c-.1.93-.21,1.88-.33,2.91.73.07,1.25.12,1.74.17.87-2.62.69-3.03-1.42-3.08Zm6.81.91c-.12,1.04-.21,1.92-.32,2.86.68.1,1.24.19,1.9.29.11-1.04.21-1.96.31-2.95-.68-.07-1.2-.13-1.89-.2Zm18.87,24.28c1.03.71,1.95,1.34,2.93,2v-3.55c-1.03.55-1.89,1-2.93,1.55Zm-12.54-50.55c1.97.53,2.01.5,2.99-2.03-1.97-.37-2.13-.26-2.99,2.03Zm-6.82-1c1.86.53,1.56,1,2.97-1.98-1.92-.46-1.97-.43-2.97,1.98Zm26.99,46.54c-.91.74-1.66,1.34-2.57,2.08,1.02.35,1.84.63,2.85.97-.1-1.09-.18-1.97-.28-3.05Zm-39.12,7.54c.72-.84,1.29-1.49,1.99-2.31-1.1-.21-1.95-.37-2.98-.57.36,1.04.63,1.84.99,2.88Zm30.66-50.97c-.38-2.09-.58-2.27-2.28-2q.47,2.05,2.28,2Zm-3.53-4.91c.65,1.54.75,1.59,2.3,1.33-.22-1.28-1.21-1.26-2.3-1.33Zm4.35,54.77c.36,1.01.62,1.72.9,2.5.54-.3.95-.53,1.51-.84-.8-.56-1.46-1.01-2.41-1.66Zm-2.11-48.01c.1,1.52,1.16,1.1,1.96,1.33.03-1.66-1.16-1.03-1.96-1.33Z" style="stroke-width: 0px;"/>
  <path d="m98.11,74.62c-.98,1.19-1.22,2.67-3.26,2.77-2.18.11-1.98-1.77-3.14-2.63-.3.39-.63.75-.88,1.15-.77,1.23-2.49,1.88-3.76,1.32-.25-.11-.41-.48-.55-.76-.32-.65-.61-1.32-1.05-2.3-.63.83-1.17,1.35-1.47,1.98-.66,1.41-1.81.78-2.81.83-1.01.05-1.03-.71-1.25-1.37-.21-.62-.5-1.2-.88-2.09-.71.86-1.19,1.57-1.8,2.14-.36.34-.92.64-1.39.65-1.47.03-2.67-.39-2.82-2.19-.05-.52-.44-1.02-.79-1.78-.77.96-1.38,1.72-1.98,2.46-2.47-.74-3.6-2.02-3.27-4.02.31-1.91,2.16-1.19,3.32-1.84.34.8.62,1.47,1.02,2.42.63-.7,1.13-1.22,1.58-1.78.59-.75,3.18-1.44,3.95-.95.24.15.32.55.46.84.25.55.48,1.1.85,1.93.65-.81,1.23-1.35,1.59-2.02.82-1.5,2.15-.64,3.25-.79.93-.13.75.8,1,1.3.26.55.5,1.11.95,2.1.74-1.03,1.35-1.72,1.77-2.52.71-1.36,1.85-.49,2.77-.58.28-.03.64.64.93,1.02.09.12.04.34.11.48.27.58.56,1.15.85,1.73.55-.47,1.21-.85,1.63-1.41.99-1.35,2.16-1.81,3.59-1.08.33.17.44.81.63,1.23.3.66.58,1.33.87,1.99.6-.52,1.36-.95,1.77-1.59.49-.77.95-.92,1.71-.55.41.2.85.33,1.27.52.95.44,1.7.98,1.57,2.24-.13,1.34-.41,2.48-1.95,2.78-.2.04-.4.11-.6.16q-1.92.52-3.07-1.08c-.16-.23-.38-.41-.7-.74Z" style="stroke-width: 0px;"/>
</svg>