<?xml version="1.0" encoding="UTF-8"?>
<svg id="Capa_1" data-name="Capa 1" xmlns="http://www.w3.org/2000/svg" viewBox="0 0 184.91 112.94">
  <path d="m29.43,83.02v3.81c-9.72-.53-17.55-4.52-23.38-12.24-7.32-9.68-8.08-22.97-1.83-33.39,5.66-9.44,14.15-14.31,25.19-15.05v3.76c-15.62.83-25.23,13.76-25.5,25.55-.17,7.3,2.11,13.69,7.06,19.04,4.95,5.35,11.19,8.09,18.46,8.52Z" style="stroke-width: 0px;"/>
  <path d="m31.32,86.72v-3.68c8.61-.59,15.6-4.21,20.66-11.23,3.53-4.89,5.08-10.42,4.87-16.45-.46-12.82-10.86-24.73-25.5-25.43v-3.75c10.2.58,18.39,4.82,24.02,13.24,6.93,10.37,7.31,21.34,1.25,32.23-6.07,10.91-17.28,15.15-25.29,15.07Z" style="stroke-width: 0px;"/>
  <path d="m30.4,56.51c0-4.25,3.36-7.62,7.59-7.6,4.21.02,7.6,3.45,7.57,7.66-.03,4.17-3.39,7.52-7.56,7.54-4.24.02-7.59-3.33-7.6-7.6Z" style="stroke-width: 0px;"/>
  <path d="m119.68,44.58v4.28c-2.75,1.1-3.35,2-3.35,5.01,0,1.87,0,3.75,0,5.62.01,2.62.95,4.09,2.88,4.52,2.28.51,3.96-.36,5.17-2.66.04-.07.1-.12.23-.27,1.43.54,2.89,1.09,4.34,1.64-.58,2.95-3.4,5.31-6.98,5.75-1.23.15-2.51.13-3.73-.05-4.02-.62-6.45-2.96-6.77-7-.26-3.3-.27-6.67.07-9.96.42-4.14,3.98-6.97,8.14-6.87Z" style="stroke-width: 0px;"/>
  <path d="m140.46,68.47v-4.13c.64-.16,1.28-.27,1.9-.48,1.06-.36,1.82-1.04,1.89-2.23.06-1.12-.66-1.81-1.59-2.16-1.59-.6-3.24-1.06-4.85-1.62-1.1-.38-2.22-.74-3.24-1.27-3.51-1.85-4.29-6.37-1.65-9.34,1.71-1.92,3.94-2.67,6.52-2.79v4.28c-.69.21-1.48.27-1.99.67-.52.41-1.03,1.15-1.07,1.78-.04.49.52,1.28,1.01,1.51,1.23.59,2.57.93,3.86,1.39,1.6.57,3.26,1.03,4.78,1.78,4.81,2.35,3.94,8.4.99,10.67-1.64,1.26-4.24,2.11-6.55,1.94Z" style="stroke-width: 0px;"/>
  <path d="m74.37,68.47v-4.42c.92,0,1.79.03,2.65,0,2.7-.11,4.22-1.43,4.41-4.12.16-2.24.16-4.5,0-6.74-.18-2.67-1.7-3.99-4.42-4.1-.86-.03-1.72,0-2.65,0v-4.34c2.78-.11,5.52-.28,8.06,1.09,2.11,1.14,3.62,2.88,3.79,5.26.25,3.39.4,6.83.09,10.2-.38,4.04-2.72,6.2-6.78,6.84-1.66.27-3.38.24-5.15.35Z" style="stroke-width: 0px;"/>
  <path d="m99.31,68.46c0-1.22-.03-2.46.02-3.7.01-.24.29-.61.52-.67,2.22-.61,3.01-2.25,3.07-4.33.07-2.16.07-4.33,0-6.5-.07-2.34-1.11-3.99-3.59-4.36v-4.29c3.99-.33,7.79,2.37,8.31,6.55.45,3.59.45,7.34-.01,10.93-.53,4.14-4.33,6.77-8.33,6.37Z" style="stroke-width: 0px;"/>
  <path d="m98.19,64.26v4.17c-3.81.48-7.64-2.06-8.1-5.98-.43-3.72-.45-7.58-.01-11.3.48-4.12,3.92-6.63,8.17-6.6,0,1.3.02,2.62-.02,3.93,0,.19-.32.48-.53.54-2.06.57-2.83,2.1-2.89,4.03-.08,2.33-.06,4.66,0,6.99.05,2.28.97,3.37,3.4,4.21Z" style="stroke-width: 0px;"/>
  <path d="m73.21,68.35h-4.85v-23.6h4.85v23.6Z" style="stroke-width: 0px;"/>
  <path d="m132.94,61.57c1.71,1.46,3.55,2.23,5.61,2.56.29.04.72.45.73.71.08,1.19.03,2.39.03,3.71-3.42-.12-6.43-1.01-9.09-3.24.91-1.25,1.78-2.45,2.71-3.74Z" style="stroke-width: 0px;"/>
  <path d="m128.8,50.19c-1.47.59-2.88,1.15-4.39,1.76-.66-1.67-1.74-2.79-3.58-2.99v-4.36c3.54-.25,6.71,1.94,7.98,5.59Z" style="stroke-width: 0px;"/>
  <path d="m169.44,58.24h-1.31v-10.14c-.08-.03-.17-.06-.25-.09-1.06,2.18-2.13,4.36-3.22,6.59-.68-.72-.73-1.37-.31-2.19,1.16-2.3,2.27-4.63,3.32-6.98.38-.84.83-1.18,1.77-.81v13.62Z" style="stroke-width: 0px;"/>
  <path d="m148.09,46.97c-.68,1.16-1.37,2.33-2.01,3.41-1.86-.6-3.62-1.16-5.51-1.76v-3.98c2.1-.4,6.31.89,7.52,2.34Z" style="stroke-width: 0px;"/>
  <path d="m183.69,45.42c-.34-.02-.64.02-.9-.07-.33-.11-.62-.32-.93-.49.33-.15.65-.4.99-.43.65-.07,1.32-.02,2.05-.02v16.06c-1.06-.28-2.25.48-3.07-.46l.07-.42c.57-.04,1.13-.09,1.78-.14v-14.02Z" style="stroke-width: 0px;"/>
  <path d="m181.05,58.19c-1.1.34-1.64-.02-2.14-.89-2.28-3.96-4.63-7.88-6.95-11.81-.16-.28-.32-.55-.48-.83.07-.11.13-.22.2-.34.53.23,1.3.31,1.55.72,2.63,4.32,5.19,8.69,7.82,13.15Z" style="stroke-width: 0px;"/>
  <path d="m152.73,60.42v-16.02c.85,0,1.64-.03,2.41.02.21.01.41.27.61.42-.22.17-.41.42-.66.49-.34.1-.73.05-1.17.07v14c.37.03.78,0,1.15.11.25.07.45.31.67.47-.21.14-.41.39-.63.4-.74.05-1.49.02-2.39.02Z" style="stroke-width: 0px;"/>
  <path d="m164.13,56.1c-.63-.31-1.27-.4-1.44-.73-1.74-3.53-3.4-7.1-5.09-10.66.07-.12.14-.24.2-.36.46.22,1.17.33,1.35.69,1.66,3.39,3.23,6.83,4.82,10.25.06.14.06.31.15.81Z" style="stroke-width: 0px;"/>
  <path d="m157.62,46.58c2.28,3.91.88,7.84,1.39,11.67-.56.02-.92.04-1.39.06v-11.73Z" style="stroke-width: 0px;"/>
  <path d="m174.79,52.02c.81.66.9,1.27.35,2.08-.72,1.06-1.37,2.18-1.97,3.32-.44.84-1.01,1.09-2.02.74,1.23-2.07,2.42-4.08,3.64-6.13Z" style="stroke-width: 0px;"/>
  <path d="m177.35,50.3c-.75-.7-.9-1.3-.32-2.1.62-.88,1.18-1.82,1.65-2.78.42-.87.99-1.15,2.04-.8-1.13,1.9-2.23,3.76-3.36,5.68Z" style="stroke-width: 0px;"/>
</svg>