<?xml version="1.0" encoding="UTF-8"?>
<svg id="Capa_1" data-name="Capa 1" xmlns="http://www.w3.org/2000/svg" viewBox="0 0 184.91 112.94">
  <path d="m123.91,39.28c-.85,10.51-5.62,18.59-14.59,24.13-3.19,1.97-6.74,3-10.42,3.62-1.06.18-1.71-.31-2.36-1.03-14.4-15.85-8.17-40.28,12.12-47.39,1.52-.53,3.13-.8,4.71-1.11,1.06-.21,1.91.24,2.64,1.05,4.56,5.06,7.15,10.96,7.72,17.75.08.99.12,1.98.18,2.97Zm-5.1,3.44c.03-6.64-5.57-12.2-12.3-12.21-6.75,0-12.33,5.47-12.38,12.14-.05,6.9,5.42,12.42,12.31,12.44,6.92.01,12.33-5.4,12.37-12.37Z" style="stroke-width: 0px;"/>
  <path d="m114.78,65.06c8.98.13,15.73,3.7,20.6,10.74,2.08,3.01,2.55,2.36-.24,5.79-8.64,10.65-24.13,10.72-33.47-1.15-1.39-1.77-2.28-3.94-3.37-5.94-.55-1.01-.13-1.8.64-2.54,4.54-4.36,9.92-6.74,15.84-6.91Zm4.79,19.29c4.13-.19,7.76-1.55,10.71-4.59.84-.86.89-1.66.37-2.69-1.81-3.53-5.66-5.24-9.71-4.19-1.42.37-2.56.15-3.68-.83-3.23-2.81-7.19-2.96-10.65-.48-1.6,1.14-1.8,1.76-.95,3.57,2.77,5.85,7.47,8.83,13.91,9.2Z" style="stroke-width: 0px;"/>
  <path d="m86.84,75.29c2.77,1.08,5.18.52,7.51-1.39,1.22,7.52,5.94,11.84,12.4,14.68-6.65,2.45-19.81-6.22-19.91-13.29Z" style="stroke-width: 0px;"/>
  <path d="m89.29,72.85c-2.97.02-5.16-2.12-5.19-5.06-.03-2.82,2.19-5.05,5.06-5.08,2.8-.03,5.13,2.23,5.14,5.01.02,2.83-2.21,5.12-5.01,5.13Z" style="stroke-width: 0px;"/>
  <path d="m73.26,89.75h-1.51c0-1.45,0-2.86,0-4.26,0-2.79.04-5.58-.04-8.37-.01-.49-.46-1.25-.86-1.37-.79-.25-1.3.39-1.47,1.15-.1.44-.11.91-.11,1.36,0,3.79,0,7.57,0,11.45h-1.43v-15.3c.62.24,1.11.43,1.77.68,1.4-1.19,2.4-1.14,3.53.49.27-.26.52-.54.81-.76,1.41-1.06,3.07-.45,3.44,1.27.03.12.06.25.06.37,0,4.41,0,8.81,0,13.3-.47.02-.87.04-1.47.06,0-.5,0-.93,0-1.37,0-3.62,0-7.25,0-10.87,0-.82.11-1.78-1.09-1.9-.91-.09-1.59.73-1.6,1.99-.03,3.54-.01,7.08-.01,10.62,0,.45,0,.9,0,1.47Z" style="stroke-width: 0px;"/>
  <path d="m48.81,89.81v-19.43c1.2,0,2.36-.08,3.5.02,1.66.15,2.61,1.1,2.63,2.78.06,4.61.06,9.23,0,13.84-.02,1.66-1.01,2.55-2.67,2.75-.29.04-.58.03-.87.04-.83,0-1.65,0-2.58,0Zm1.75-17.92v16.38c2.31.17,2.69-.17,2.7-2.33,0-3.91,0-7.83,0-11.74,0-2.15-.4-2.5-2.7-2.31Z" style="stroke-width: 0px;"/>
  <path d="m54.77,53.55h-1.51c0-1.09,0-2.16,0-3.23,0-.46.02-.92-.03-1.37-.1-.94-.64-1.42-1.59-1.38-.91.04-1.39.58-1.39,1.44-.02,4.71-.02,9.41,0,14.12,0,.93.55,1.46,1.52,1.44.97-.02,1.45-.59,1.47-1.51.03-1.66,0-3.31,0-5.04h1.46c0,2.01.11,3.96-.04,5.89-.1,1.27-1.18,2-2.57,2.13-1.6.14-2.84-.46-3.29-1.69-.17-.46-.28-.97-.29-1.46-.02-4.54-.04-9.08,0-13.62.02-2.23,1.35-3.36,3.55-3.18,1.59.13,2.58,1,2.68,2.59.1,1.57.02,3.15.02,4.86Z" style="stroke-width: 0px;"/>
  <path d="m70.85,50.34c.66.31,1.14.53,1.79.83-.04.04.15-.17.38-.34,1.46-1.08,3.36-.38,3.41,1.42.12,3.95.14,7.92,0,11.87-.07,2.07-2,2.53-4.16.94v3.69h-1.41v-18.4Zm4.15,7.86s0,0,0,0c0-1.75.05-3.5-.04-5.24-.02-.43-.51-1.15-.81-1.16-.52-.02-1.19.28-1.54.68-.3.35-.33,1.01-.34,1.53-.03,2.79-.02,5.58,0,8.36,0,.37.02.75.12,1.11.23.81.81,1.43,1.62,1.16.44-.15.92-.93.95-1.45.12-1.66.04-3.33.04-4.99Z" style="stroke-width: 0px;"/>
  <path d="m57.73,55.91h-1.48c.08-1.27.05-2.47.24-3.64.21-1.29,1.09-1.88,2.52-1.93,1.53-.05,2.41.49,2.76,1.79.16.59.19,1.23.2,1.85.02,3.9,0,7.8,0,11.97-.56-.21-1.1-.42-1.65-.63.02-.12.04-.24.07-.36-.23.21-.44.44-.68.62-1.44,1.08-3.26.36-3.43-1.43-.12-1.24-.1-2.5,0-3.74.12-1.44,1.01-2.48,2.24-3.11,1.78-.92,2.14-2.39,1.93-4.19-.1-.85-.45-1.45-1.39-1.44-.93.01-1.33.58-1.34,1.46-.01.91,0,1.81,0,2.78Zm2.71,1.79c-2.67.98-2.87,3.06-2.72,5.33.05.78.03,1.6,1.06,1.67,1.02.07,1.59-.61,1.64-1.52.09-1.81.03-3.62.03-5.48Z" style="stroke-width: 0px;"/>
  <path d="m82.54,60.29h1.41c0,1.15.08,2.27-.02,3.37-.15,1.61-1.14,2.4-2.78,2.41-1.65,0-2.76-.78-2.81-2.37-.11-3.66-.11-7.32,0-10.98.05-1.65,1.2-2.43,2.92-2.38,1.64.04,2.61.93,2.68,2.65.08,1.78.02,3.57.02,5.53h-4.18c0,1.73-.03,3.3.01,4.86.03.88.55,1.39,1.46,1.34.85-.04,1.27-.54,1.28-1.38.01-.99,0-1.98,0-3.05Zm-.02-3.06c0-1.51.09-2.97-.06-4.4-.04-.42-.72-.98-1.2-1.11-.71-.19-1.36.27-1.4,1.05-.07,1.47-.02,2.95-.02,4.46h2.68Z" style="stroke-width: 0px;"/>
  <path d="m65.95,82.57h-4.15c0,1.73-.05,3.34.02,4.95.03.83.62,1.25,1.45,1.2.78-.05,1.23-.48,1.25-1.28.02-1,0-1.99,0-3.14.49-.03.9-.05,1.41-.08,0,1.24.09,2.36-.02,3.46-.16,1.61-1.15,2.39-2.8,2.39-1.64,0-2.74-.79-2.79-2.39-.11-3.61-.11-7.24-.01-10.85.04-1.67,1.14-2.49,2.83-2.49,1.68,0,2.69.85,2.78,2.55.1,1.82.02,3.65.02,5.69Zm-1.44-1.35c0-1.52.09-2.97-.06-4.4-.04-.42-.72-.98-1.21-1.11-.71-.19-1.36.27-1.4,1.06-.07,1.47-.02,2.95-.02,4.45h2.68Z" style="stroke-width: 0px;"/>
  <path d="m65.26,65.78h-1.41v-15.32c.58.2,1.1.37,1.61.54-.03.11-.05.23-.08.34.21-.19.4-.41.62-.58,1.43-1.04,3.04-.28,3.16,1.6.13,1.98.03,3.98.03,6.04h-1.39c0-1.67.02-3.28,0-4.89-.01-.76.17-1.7-.98-1.83-.85-.1-1.53.69-1.54,1.89-.03,3.54-.01,7.07-.01,10.61,0,.49,0,.98,0,1.59Z" style="stroke-width: 0px;"/>
  <path d="m58.44,89.75h-1.43c0-2.51,0-5.03,0-7.54s0-4.97,0-7.53h1.43v15.08Z" style="stroke-width: 0px;"/>
  <path d="m58.41,72.74h-1.31v-1.95c.42-.02.81-.04,1.31-.06v2.01Z" style="stroke-width: 0px;"/>
  <path d="m111.22,42.78c-.02,2.98-2.08,5.07-4.98,5.04-2.93-.03-5.14-2.28-5.09-5.18.05-2.75,2.46-5.06,5.21-5,2.7.06,4.88,2.35,4.86,5.13Z" style="stroke-width: 0px;"/>
</svg>