<?xml version="1.0" encoding="UTF-8"?>
<svg id="Capa_1" data-name="Capa 1" xmlns="http://www.w3.org/2000/svg" viewBox="0 0 184.91 112.94">
  <path d="m34.58,40.84c.34.19.68.39,1.02.57,5.54,2.88,11.08,5.76,16.63,8.64,1.48.77,1.53.91.78,2.38-2.29,4.49-5.39,8.39-8.82,12.45-3.36-7.97-6.64-15.75-9.92-23.54-.12.02-.24.05-.36.07.56,8,1.13,15.99,1.69,23.99-.12.08-.25.16-.37.24-.16-.27-.3-.55-.49-.81-2.57-3.58-5.15-7.16-7.74-10.73-.79-1.09-.72-2.04.05-3.17,2.11-3.09,4.1-6.26,6.14-9.39-.09-.11-.18-.22-.27-.34-2.79,2.05-5.58,4.1-8.5,6.24-.63-2.44-.48-4.76-.34-7.07.05-.8.69-.8,1.31-.74,1.9.21,3.81.41,5.71.61.61.06,1.22.11,1.92-.07-.24-.17-.47-.38-.73-.52-1.84-.97-3.67-1.96-5.55-2.87-1.05-.5-1.15-1.07-.41-1.89,1.05-1.17,2.08-2.35,3.41-3.84,1.33,3.14,2.52,5.93,3.7,8.72.1-.01.21-.03.31-.04-.03-.54-.04-1.08-.08-1.62-.19-2.45-.38-4.9-.59-7.35-.07-.81-.04-1.61.91-1.78,2.43-.42,4.88-.74,7.32-1.11.07.16.14.31.21.47-2.4,3.8-4.81,7.59-7.21,11.39.06.06.11.11.17.17.22-.13.46-.24.67-.39,3.68-2.8,7.38-5.57,11.02-8.43,1.04-.82,1.86-.76,2.89-.02,3.45,2.46,5.43,5.79,6.13,9.93.19,1.12-.1,1.47-1.27,1.36-5.72-.55-11.44-1.13-17.15-1.7-.71-.07-1.42-.11-2.13-.16-.02.11-.05.22-.07.33Z" style="stroke-width: 0px;"/>
  <path d="m70.08,57.18c.94.06,1.68.14,2.42.14,1.58,0,2.51-.83,2.74-2.35.2-1.35-.54-2.57-1.85-3.04-1.21-.43-2.65.11-3.34,1.28-.31.53-.58,1.08-.99,1.85-1.21-1.03-2.34-1.93-3.36-2.93-.19-.19-.09-.88.1-1.21,2.12-3.76,7.19-5.06,10.74-2.79,3.74,2.39,4.71,7.14,2.19,10.82-.28.41-.59.81-.93,1.28,4.56,4.58,6.03,9.79,2.97,15.77-2.5,4.87-6.62,6.9-12.01,6.63-4.74-.23-7.93-2.78-10.4-6.7,1.2-1.08,2.34-2.1,3.55-3.19.5.7.93,1.35,1.41,1.97,2.05,2.67,4.79,3.77,8.05,3.02,3.29-.76,5.4-2.98,6.05-6.29.65-3.32-.68-5.98-3.4-7.89-.76-.53-1.72-.85-2.63-1.08-1-.26-1.35-.78-1.29-1.78.07-1.11.02-2.24.02-3.5Z" style="stroke-width: 0px;"/>
  <path d="m154.4,50.41h-2.72v14.42h-2v-14.46h-2.67v-1.98h7.33c.05.49.11.97.19,1.71,1.43-2.21,3.3-2.84,5.46-1.66.47.26.47,1.38.69,2.1l-.31.16c-.28-.15-.56-.31-.85-.45-.89-.43-1.79-.54-2.57.17-.83.76-1.03,1.82-.48,2.74.6,1.02,1.4,1.96,2.26,2.78,1.58,1.5,2.49,3.19,2.25,5.42-.22,2.03-1.68,3.58-3.59,3.7-2.2.15-2.97-.67-2.72-2.97.38.2.73.39,1.08.57.88.45,1.78.6,2.56-.13.78-.73.99-1.74.49-2.63-.58-1.04-1.32-2.01-2.15-2.86-2.33-2.37-2.72-3.37-2.25-6.63Z" style="stroke-width: 0px;"/>
  <path d="m138.86,48.45c1.27-.36,1.89-.05,2.28,1.21.95,3.13,2.08,6.21,3.35,9.3v-10.55h1.9v16.3q-1.75.39-2.3-1.24c-1.04-3.1-2.08-6.2-3.35-9.27v10.59h-1.88v-16.34Z" style="stroke-width: 0px;"/>
  <path d="m104.76,54.21v10.58h-1.78v-16.32c1.28-.43,1.89-.03,2.28,1.25.96,3.13,2.08,6.22,3.39,9.3v-10.63h1.82v16.34q-1.74.34-2.28-1.3c-.97-2.88-1.94-5.76-2.91-8.64-.07-.22-.18-.43-.28-.64-.08.02-.16.04-.24.05Z" style="stroke-width: 0px;"/>
  <path d="m128.38,48.37h1.83v16.35q-1.72.38-2.27-1.27c-.98-2.92-1.96-5.84-2.94-8.76-.06-.18-.16-.36-.46-.51v10.65h-1.8v-16.36c1.24-.43,1.87-.06,2.26,1.23.97,3.13,2.08,6.22,3.38,9.32v-10.64Z" style="stroke-width: 0px;"/>
  <path d="m101.86,56.46c-.28,1.93-.42,3.85-.86,5.7-.48,1.99-1.78,2.91-3.55,2.9-1.77-.01-3.06-.97-3.55-2.93-.95-3.77-.95-7.59.02-11.36.5-1.96,1.8-2.91,3.57-2.91,1.73,0,3.02.9,3.49,2.82.46,1.88.61,3.84.89,5.77Zm-2.06.05c-.18-1.62-.31-3.23-.57-4.82-.15-.95-.66-1.77-1.78-1.76-1.05,0-1.55.77-1.73,1.67-.66,3.25-.68,6.52.03,9.76.2.9.71,1.65,1.77,1.64,1.06,0,1.57-.76,1.72-1.67.26-1.59.39-3.2.57-4.82Z" style="stroke-width: 0px;"/>
  <path d="m109.29,42.78h-1.99c-.07-.18-.17-.36-.21-.56-.73-2.88-.86-2.96-3.92-2.42-.34,1.01-.58,2.06-1.09,2.96-.14.24-1.08.04-1.77.04.82-3.83,1.61-7.56,2.41-11.29.26-1.22.52-2.44.77-3.66q.35-1.66,2.27-1.49c1.16,5.41,2.33,10.87,3.51,16.42Zm-4.34-11.45c-.09.01-.19.02-.28.04-.4,2.1-.79,4.19-1.2,6.37h2.66c-.41-2.2-.79-4.31-1.18-6.41Z" style="stroke-width: 0px;"/>
  <path d="m93.03,26.44c1.95-.38,1.99-.37,2.32,1.35.58,3,1.14,6.01,1.95,9.02.66-3.46,1.32-6.91,1.99-10.45h2.02c-.28,1.48-.55,2.93-.84,4.37-.72,3.59-1.51,7.17-2.14,10.78-.22,1.27-.76,1.61-2.04,1.21-1.07-5.38-2.16-10.82-3.25-16.27Z" style="stroke-width: 0px;"/>
  <path d="m137.72,62.84v1.95h-5.84v-16.36h5.78v1.91h-3.77v4.9h3.49v2.01h-3.47v5.59h3.81Z" style="stroke-width: 0px;"/>
  <path d="m75.13,40.8v1.98h-5.92v-16.43h5.91v1.93h-3.86v4.88h3.5v2.03h-3.51v5.61h3.87Z" style="stroke-width: 0px;"/>
  <path d="m81.75,28.65c-.32-.17-.63-.37-.96-.52-.9-.4-1.81-.45-2.56.29-.76.75-.99,1.76-.45,2.63.64,1.04,1.47,2.01,2.36,2.86,1.49,1.43,2.49,3.01,2.31,5.15-.2,2.4-1.98,4.09-4.16,3.94-2.14-.15-2.56-.66-2.27-2.93.46.23.87.59,1.31.62.78.05,1.8.16,2.3-.26.5-.42.8-1.53.64-2.2-.22-.91-.9-1.74-1.51-2.51-.62-.78-1.43-1.4-2.07-2.16-1.25-1.5-1.49-3.23-.89-5.05.78-2.37,3.49-3.48,5.57-2.14.51.33.55,1.37.81,2.09-.14.07-.28.14-.42.21Z" style="stroke-width: 0px;"/>
  <path d="m64.22,42.8h-1.98v-16.43h5.99v1.91h-3.94v4.83h3.6v2.08h-3.67v7.61Z" style="stroke-width: 0px;"/>
  <path d="m92.84,50.27c-2.51-.72-3.81-.08-4.14,2.47-.31,2.41-.34,4.91-.07,7.32.3,2.72,1.59,3.35,4.13,2.52.39,1.97-.03,2.52-1.98,2.48-1.68-.03-2.94-.86-3.48-2.4-1.47-4.1-1.46-8.25.1-12.33.5-1.31,1.55-2.14,2.98-2.4,1.99-.35,2.63.23,2.47,2.34Z" style="stroke-width: 0px;"/>
  <path d="m85.19,28.3h-2.79v-1.91h7.52v1.88h-2.72v14.51h-2v-14.48Z" style="stroke-width: 0px;"/>
  <path d="m113.79,50.36h-2.7v-1.92h7.33v1.88h-2.61v14.48h-2.02v-14.44Z" style="stroke-width: 0px;"/>
  <path d="m109.77,42.79v-16.43h1.94v14.41h4.34v2.02h-6.27Z" style="stroke-width: 0px;"/>
  <path d="m43.25,69.39c.39-.19.67-.33,1.04-.51v2.82c-.35-.14-.65-.27-1.06-.43.02,1.19-.74,1.32-1.67,1.3-1.41-.03-2.83-.03-4.24,0-.9.01-1.3-.38-1.25-1.28.15-3.35-.7-3.28,3.17-3.21.75.01,1.5,0,2.24-.03.97-.05,1.76.12,1.77,1.35Z" style="stroke-width: 0px;"/>
  <path d="m90.5,26.34h1.85v16.45h-1.85v-16.45Z" style="stroke-width: 0px;"/>
  <path d="m119,48.37h1.83v16.41h-1.83v-16.41Z" style="stroke-width: 0px;"/>
  <path d="m60.94,61.35c-8.44,8.44-16.88,16.88-25.32,25.31.15.15.31.31.46.46l25.31-25.31c-.15-.15-.3-.31-.44-.46Z" style="stroke-width: 0px;"/>
  <path d="m125.71,37.63c.72-.3,1.31-.61,1.93-.77.18-.04.46.37.77.63-.62.22-1.04.36-1.45.5.23.45.5.87.68,1.34.24.66.54,1.35.54,2.03,0,.3-.65.74-1.07.84-.36.09-.82-.22-1.5-.44.87-.43,1.33-.66,1.79-.88-.35-.58-.71-1.16-.93-1.53-1.07.17-1.91.3-2.88.46.04.35.01.73.15,1.05.26.61.64.71,1.11.14.22-.27.5-.48.85-.6.17,1.18-.34,1.82-1.37,1.85-.99.03-1.5-.64-1.59-1.58-.07-.7-.19-1.46,0-2.1.19-.64.63-1.41,1.18-1.68.78-.38,1.53.07,1.77.72Z" style="stroke-width: 0px;"/>
  <path d="m121.25,36.99q.25-2.92.97-2.99v7.96c-.63.11-1.21.37-1.72.26-.47-.1-1.14-.51-1.24-.91-.23-.9-.28-1.89-.21-2.82.12-1.49.66-1.81,2.19-1.5Zm.42,2.52c-.38-.7-.69-1.27-1-1.83-.24.59-.67,1.18-.67,1.77,0,.64.41,1.28.63,1.92.32-.58.65-1.17,1.03-1.86Z" style="stroke-width: 0px;"/>
</svg>