<?xml version="1.0" encoding="UTF-8"?>
<svg id="Capa_1" data-name="Capa 1" xmlns="http://www.w3.org/2000/svg" viewBox="0 0 184.91 112.94">
  <path d="m97.35,54.31c1.1.21,1.87.33,2.62.51,7.56,1.77,13.63,5.65,17.6,12.48,1.6,2.76,2.52,5.73,2.41,8.93-.11,3.15.08,6.42-.72,9.41-2.14,8.01-7.87,12.93-15.4,15.64-10.45,3.77-20.5,2.76-29.7-3.75-4.77-3.38-8.04-7.94-8.9-13.8-2.25-15.38,5.25-24.61,18.69-28.64.8-.24,1.62-.38,2.43-.59.93-.24,1.27.03.97,1-.53,1.71-1.03,3.43-1.54,5.14-1.07,3.56-.59,5.8,1.59,7.48,2.62,2.01,6.73,2.22,9.42.49,2.86-1.84,3.65-4.02,2.65-7.27-.68-2.22-1.34-4.44-2.12-7.03Zm11.28,24.55c1.24,0,3.24-.7,4.82-2.36,2.15-2.24,2.11-5.46-.04-7.62-3.11-3.11-8.67-3.05-11.73.13-1.32,1.38-1.72,3-1.3,4.84.67,2.93,3.64,4.99,8.25,5.01Zm-6.87,14.73c1.79-.03,3.46-.45,4.94-1.48,3.16-2.2,3.43-6.16.61-8.77-2.79-2.58-7.63-2.68-10.69-.21-2.66,2.14-2.89,5.78-.49,8.23,1.54,1.57,3.47,2.22,5.64,2.23Zm-25.19-14.73c2.81,0,4.61-.63,6.03-1.78,2.82-2.3,2.93-6,.25-8.46-3-2.75-8.26-2.66-11.16.19-2.2,2.16-2.3,5.34-.21,7.61,1.59,1.73,3.61,2.44,5.09,2.45Zm7.21,14.73c1.54-.02,3.56-.65,5.16-2.3,2.08-2.12,2.14-5.21.19-7.44-2.96-3.38-9.12-3.34-12.03.08-1.85,2.17-1.83,5.03.08,7.15,1.57,1.74,3.56,2.53,6.6,2.51Zm30.97-2.73c-6.15,5.84-13.46,8.71-21.94,8.78-8.49.07-15.9-2.61-22.13-8.43,6.17,7.76,14.43,10.9,24.07,10.24,8.14-.55,14.88-4.19,20-10.59Zm-26.07-12.24c.67-.82,1.39-1.31,1.44-1.86.08-.85-.72-1.23-1.55-1.21-.84.02-1.6.45-1.45,1.3.1.55.84.99,1.56,1.77Zm7.6,0c.74-.77,1.48-1.2,1.59-1.75.16-.85-.58-1.29-1.42-1.31-.83-.02-1.62.36-1.56,1.2.04.54.75,1.04,1.4,1.86Zm-3.84,3.21c.69-.76,1.42-1.21,1.52-1.76.17-.9-.63-1.27-1.46-1.27-.84,0-1.61.38-1.49,1.27.07.53.76.98,1.43,1.77Zm-.17-6.73c1.08-.32,1.89-.64,1.69-1.55-.11-.49-.88-1.05-1.44-1.17-.77-.17-1.63.29-1.49,1.19.08.56.81,1.02,1.25,1.52Z" style="stroke-width: 0px;"/>
  <path d="m92.64,15.07c.22,5.18.43,10.37.66,15.83,2.06-1.86,4.23-3.03,6.91-2.92-.68.27-1.38.51-2.05.81-3.33,1.47-4.81,3.89-4.6,7.51.17,2.74.35,5.48.54,8.23,0,.07.08.14.23.39,3.8-3.85,8.39-6.02,13.83-6.29-.43.16-.86.33-1.3.47-3.27,1.1-6.3,2.62-8.82,5.03-3.26,3.1-4.37,6.77-3,11.13.74,2.34,1.45,4.69,2.14,7.05.62,2.11-.02,3.43-2.07,4.29-1.69.71-3.41.73-5.11.06-2.18-.86-2.82-2.23-2.16-4.45.77-2.59,1.53-5.19,2.28-7.78,1.01-3.51.15-6.56-2.22-9.27-2.49-2.84-5.64-4.62-9.17-5.81-.59-.2-1.18-.39-1.77-.59-.02,0-.03-.07-.04-.1,3.1-.54,7.35,1.36,13.92,6.27.05-.42.11-.76.13-1.09.14-2.49.25-4.99.41-7.48.24-3.92-1.69-6.76-5.44-7.94-.23-.07-.46-.12-.82-.22,1.8-.36,3.43.32,6.56,2.69.24-5.34.47-10.56.71-15.79.08,0,.16,0,.24.01Z" style="stroke-width: 0px;"/>
  <path d="m97.04,50.33c1.56-5.13,6.43-6.63,11.55-3.85-2.01,4.47-7.32,6.27-11.55,3.85Z" style="stroke-width: 0px;"/>
  <path d="m76.36,46.58c3.86-2.73,9.43-1.37,11.3,2.65.4.87.35,1.3-.69,1.61-4.74,1.43-6.68.73-10.61-4.26Z" style="stroke-width: 0px;"/>
  <path d="m100.99,14.56c1.56,5.27.02,8.79-4.7,10.93-3.09-3.54-.5-9.65,4.7-10.93Z" style="stroke-width: 0px;"/>
  <path d="m80.33,30.45c4.88-.76,9,2.62,8.9,7.07-.02.95-.27,1.3-1.33,1.17-3.57-.44-5.93-2.2-6.81-5.77-.2-.8-.48-1.57-.76-2.47Z" style="stroke-width: 0px;"/>
  <path d="m104.47,30.35c.1,4.52-3.35,8.18-7.81,8.41-.9.05-.9-.47-.89-1.1.07-4.23,2.71-6.89,7.25-7.3.48-.04.97,0,1.45,0Z" style="stroke-width: 0px;"/>
  <path d="m83.87,14.5c4.94,1.36,7.26,5.75,5.52,9.99-.36.87-.73,1.03-1.58.56-3.12-1.73-4.73-4.21-4.19-7.88.13-.85.16-1.71.24-2.68Z" style="stroke-width: 0px;"/>
  <path d="m91.05,13.25s0,.09,0,.12c-.22.72-.45,1.43-.68,2.15-.69-.43-1.52-.73-2.03-1.32-1.11-1.27-1.19-2.8-.55-4.33.1-.23.6-.49.81-.43,1.07.35,2.48,2.6,2.46,3.81Z" style="stroke-width: 0px;"/>
  <path d="m102.47,24.61c.02-1.46.65-2.61,1.82-3.44,1.1-.78,2.31-1.07,3.6-.46-.26,2.67-2.72,4.46-5.42,3.9Z" style="stroke-width: 0px;"/>
  <path d="m94.5,15.53c-1.18-2.69-.2-5.26,2.3-6.19,1.68,2.3.55,5.42-2.3,6.19Z" style="stroke-width: 0px;"/>
  <path d="m108.28,35.85c-.95.11-1.12-.33-.79-1.25.68-1.91,2.28-3.21,4.11-3.3.78-.04,1.03.22.95,1-.21,1.92-2.09,3.56-4.26,3.56Z" style="stroke-width: 0px;"/>
  <path d="m77.11,20.83c2.25-.83,4.73.4,5.33,2.55.32,1.16.04,1.49-1.21,1.43-1.96-.1-3.18-1.27-4.12-3.99Z" style="stroke-width: 0px;"/>
  <path d="m77.65,35.56c-2.6,1.06-5.36-1.18-5.06-4.1,2.91-.22,4.71,1.23,5.06,4.1Z" style="stroke-width: 0px;"/>
  <path d="m108.96,40.92c1.99-2.1,4.9-1.79,6.32.62-1.66,1.75-4.78,1.47-6.32-.62Z" style="stroke-width: 0px;"/>
  <path d="m69.66,41.67c1.51-2.3,3.71-2.75,5.85-1.36.68.44.57.81.09,1.26-1.21,1.12-2.61,1.38-4.15.89-.59-.19-1.13-.49-1.79-.78Z" style="stroke-width: 0px;"/>
</svg>