<?xml version="1.0" encoding="UTF-8"?>
<svg id="Capa_1" data-name="Capa 1" xmlns="http://www.w3.org/2000/svg" viewBox="0 0 184.91 112.94">
  <path d="m154.17,63.21h-5.41v-5.34h12.23c0,1.43,0,2.83,0,4.23,0,2.79.02,5.58-.02,8.38,0,.44-.17,1.04-.48,1.28-6.88,5.47-21.56,5.23-24.86-7.82-1.71-6.74.91-13.38,6.44-16.58,5.78-3.36,13.62-2.57,18.38,1.86.09.08.16.18.29.33-1.3,1.62-2.59,3.24-3.78,4.74-1.66-.75-3.16-1.73-4.81-2.13-5.29-1.27-9.66,2.56-9.3,8.02.08,1.27.26,2.59.7,3.78,1.85,5.01,6.51,5.13,10.14,3.91.22-.07.47-.47.48-.72.05-1.28.02-2.57.02-3.94Z" style="stroke-width: 0px;"/>
  <path d="m73.68,74.54v-28.61h20.92v6.78h-13.14v5h12.16v6.33h-12.19v10.5h-7.75Z" style="stroke-width: 0px;"/>
  <path d="m131.29,66.16c.88,1.84,1.73,3.64,2.6,5.46-3.73,3.95-12.56,5.11-18.5.4-6.22-4.92-7.42-14.88-2.5-21.11,4.98-6.31,14.79-7.52,21.1-2.58-.92,1.92-1.85,3.85-2.81,5.84-.66-.41-1.32-.9-2.04-1.26-2.8-1.42-5.68-1.85-8.42,0-2.79,1.89-3.35,4.83-3.16,7.95.06.98.28,1.99.62,2.92,1.92,5.22,6.92,5.56,10.96,3.69.75-.35,1.41-.86,2.15-1.32Z" style="stroke-width: 0px;"/>
  <path d="m98.43,45.89h7.49v28.65h-7.49v-28.65Z" style="stroke-width: 0px;"/>
  <path d="m62.08,59.37c-.83.97-1.55,1.83-2.29,2.67-2.71,3.08-4.24,6.72-5.09,10.69-.07.34-.58.82-.89.83-4.16.05-8.33.03-12.49.03-.11,0-.22-.06-.65-.2,1.45-1.81,2.75-3.57,4.19-5.21,2.88-3.26,6.06-6.19,10-8.15,2.22-1.11,4.55-1.86,7.22-.67Z" style="stroke-width: 0px;"/>
  <path d="m41.67,68.81c2-10.54,3.93-20.77,5.87-31.01l.22-.03c.21,1.03.43,2.05.63,3.08.84,4.41,1.69,8.81,2.49,13.22.08.42-.09.98-.34,1.33-2.04,2.88-4.18,5.69-6.17,8.6-.97,1.41-1.69,2.99-2.7,4.8Z" style="stroke-width: 0px;"/>
  <path d="m60.34,46.11c-1.44,3.4-3.1,6.88-4.37,10.49-.62,1.75-1.48,2.86-3.05,3.86-2.33,1.49-4.37,3.43-6.55,5.15-.32.25-.78.31-1.17.46-.14.06-.39.13-.39.2-.12,2.03-2.11,2.82-2.94,4.36,3.85-10,11.04-17.48,18.48-24.53Z" style="stroke-width: 0px;"/>
  <path d="m34.97,46.05c1.85,1.82,3.72,3.61,5.54,5.46,1.1,1.13,2.61,2.2,3.02,3.56.39,1.31-.39,2.98-.7,4.49-.19.92-.44,1.83-.73,2.69-.12,1.19-.23,2.37-.35,3.56-1.1-7-3.37-13.54-7.04-19.59l.25-.18Z" style="stroke-width: 0px;"/>
  <path d="m33.37,59.19c2.07-.8,4.07-.54,6.07.16.16.05.28.28.36.46,1.02,2.21,1.45,9.16.78,11.59-.91-2.06-1.68-4.33-2.87-6.36-1.19-2.02-2.8-3.8-4.33-5.84Z" style="stroke-width: 0px;"/>
  <path d="m57.83,58.18c2.55-.98,5.12-1.3,7.81-.81,2.98.54,4.23,2.97,6.06,5.47-1.46-.32-2.66-.45-3.76-.86-1.15-.43-2.29-1.02-3.28-1.76-2.05-1.53-4.2-2.49-6.83-2.04Z" style="stroke-width: 0px;"/>
  <path d="m23.81,62.65c1.68-2.3,2.91-4.73,5.89-5.27,2.73-.5,5.34-.2,7.92.83-2.78-.54-5,.59-7.16,2.16-1.89,1.39-4.03,2.27-6.65,2.28Z" style="stroke-width: 0px;"/>
</svg>