<?xml version="1.0" encoding="UTF-8"?>
<svg id="Capa_1" data-name="Capa 1" xmlns="http://www.w3.org/2000/svg" viewBox="0 0 184.91 112.94">
  <path d="m84.73,56.2c0,13.49,0,26.98,0,40.47q0,1.14-1.18,1.14c-15.87,0-31.73,0-47.6,0-.29,0-.58-.01-.87,0-.28.02-.35-.11-.34-.37.02-.25,0-.5,0-.75,0-23.4,0-46.8,0-70.19q0-1.15,1.17-1.15c7.83,0,15.66,0,23.49,0,.74,0,1.37-.19,2.06-.48,1.28-.53,2.54-1.1,3.85-1.56.64-.23,1.25-.58,1.9-.83,1.36-.52,2.73-1.08,4.04-1.69,1.08-.5,2.19-.96,3.29-1.42,1.67-.7,3.28-1.55,5.03-2.02.62-.56,1.5-.61,2.17-1.11.42-.31.96-.51,1.48-.62.49-.11.9-.28,1.24-.63.05-.05.12-.07.17-.1.03.07.08.14.08.21,0,.33,0,.67,0,1v40.09Zm-49.23-12.73c0,2.04,0,4.08,0,6.12,0,.77,0,.77.7.74.61-.02.78-.18.79-.8.02-.85,0-1.68.22-2.53.15-.59-.04-1.25.05-1.86.09-.61.34-1.2.52-1.78.25-.79.51-1.65,1.26-2.23.42-.33.74-.3,1.21-.18.45.11.43.52.68.72.17.14.43.3.07.53-.59.38-.77.98-.89,1.63-.17.92-.51,1.82-.6,2.74-.11,1.16-.02,2.33-.03,3.5,0,.26,0,.5.25.65.31.18.27.48.25.77-.13,2,.26,4.02-.23,6.02-.13.51,0,1.08-.02,1.62-.02.51-.21.67-.75.71-.88.07-1.76.16-2.65.25-.56.06-.84.36-.85.87,0,.72,0,.72.76.49.15-.05.3-.09.45-.11.76-.09,1.6,0,2.24-.31.54-.26,1.08-.11,1.61-.34.53-.23,1.21-.09,1.83-.11.69-.02.84-.16.84-.88,0-2.83,0-5.66,0-8.49,0-.17.06-.38-.01-.49-.16-.23-.35-.43-.71-.4-.32.03-.23.24-.29.43-.33,1.03-.24,2.09-.24,3.15,0,1.37,0,2.75,0,4.12,0,.16-.01.32-.05.48-.01.04-.14.08-.21.08-.07,0-.17-.04-.2-.09-.04-.06-.03-.15-.03-.23,0-2.46,0-4.91,0-7.37,0-.19.03-.46.15-.55.36-.27.35-.62.34-.99,0-.83,0-1.67,0-2.5,0-.24,0-.5-.09-.71-.46-1.07-.31-2.26-.64-3.36-.04-.12.08-.28.12-.42.12.12.3.22.34.36.2.63.7,1.18.52,1.91.62.89-.09,1.99.45,2.9-.43.51-.1,1.11-.2,1.67-.03.18.6.69.64.61.14-.27.66-.06.62-.6-.07-.99,0-2-.03-3-.03-1.05.25-2.05.51-3.04.34-1.27.71-2.53,1.48-3.64.43-.61,1.11-.67,1.71-.81.31-.07.79.31,1.09.58.45.4.91.84,1.18,1.36.27.54.58,1.09.68,1.72.2,1.21.7,2.36.61,3.62-.06.79-.02,1.58,0,2.37,0,.15.02.41.1.44.32.14.68.3,1,.26.23-.03.46-.35.61-.59.06-.09-.15-.33-.2-.5-.03-.11-.01-.25,0-.37.08-1.26.17-2.51.25-3.77.42-.49.05-1.16.31-1.62.45-.79.26-1.8.94-2.49.23-1.43,1.13-2.43,2.13-3.36.27-.25.67-.46,1.03-.49.63-.06,1.29-.12,1.9.22.36.2,1.33,1.25,1.71,1.57.65.55.54,1.5,1.2,2.02.09,1.06.69,2.01.76,3.05.1,1.46.46,2.91.28,4.39-.01.12,0,.25,0,.37-.03.27.1.37.36.35.17-.01.33,0,.5,0,.45-.02,1.07.12,1.3-.12.23-.24.09-.86.1-1.31,0-.87-.13-1.78.04-2.62.19-.93.48-1.83.47-2.8,0-.12.02-.24.07-.34.52-1.04.69-2.2,1.13-3.28.75-1.85,1.74-3.47,3.22-4.77.37-.33.82-.64,1.41-.79,1.69-.44,1.69-.57,2.94-.19.92.29,1.82.66,2.55,1.4.69.7,1.21,1.5,1.73,2.3.4.61.73,1.29.9,1.99.11.48.45.84.52,1.29.31,1.85.8,3.67.76,5.56-.01.58.03,1.17-.01,1.75-.03.42.17.49.51.45.76-.09,1.51-.16,2.27-.26.08-.01.21-.14.22-.21.02-.33.01-.67.01-1,0-8.87,0-17.74,0-26.61,0-.39-.14-.8.13-1.2.08-.12-.09-.39-.14-.59-.12.04-.24.11-.35.11-.67,0-1.13.52-1.71.69-1.45.44-2.76,1.19-4.18,1.68-.45.16-.86.6-1.23.59-.59-.02-.85.43-1.3.55-1.46.4-2.79,1.12-4.19,1.66-1.5.57-2.95,1.32-4.46,1.9-1.22.47-2.45.94-3.63,1.49-1.54.72-3.2,1.14-4.69,1.96-.34.18-.69.35-1.04.5-1.71.69-3.46,1.3-5.13,2.09-1.01.48-2.17.63-3.04,1.41-1.69.33-3.12,1.32-4.73,1.87-1.85.63-3.57,1.65-5.41,2.3-.83.29-1.55.87-2.53.88-.64,0-.86.48-.86,1.21,0,2.04,0,4.08,0,6.12Zm43.74,12.36c0-2.62,0-5.25,0-7.87,0-.46-.05-.91.44-1.2.27-.16.32-.43.32-.74-.02-1.08.07-2.17-.03-3.25-.09-1.02-.23-2.04-.45-3.05-.28-1.3-.74-2.52-1.23-3.74-.53-1.33-1.53-2.25-2.49-3.21-.27-.28-.54-.23-.86,0-.65.47-1.27.93-1.67,1.66-.44.79-1.16,1.45-1.44,2.27-.38,1.13-1,2.18-1.2,3.38-.21,1.2-.66,2.36-.62,3.61.02.54.05,1.09-.01,1.62-.06.55.28,1.16-.24,1.65.52.35-.02,1.02.37,1.33.44.36.38.78.38,1.23,0,4.12,0,8.24,0,12.37,0,.21,0,.42,0,.62-.02.33-.21.57-.53.55-.69-.03-1.36.09-2.02.26-.42.1-.84.19-1.27.25-.67.1-1.43,0-1.99.3-.49.26-.98,0-1.39.29-.46.32-.96.09-1.43.16-.12.02-.26-.03-.37,0-1.07.35-2.17.51-3.29.5-.12,0-.25,0-.36.04-1.25.4-2.54.57-3.83.7-.21.02-.51-.09-.61.02-.39.42-.94.04-1.26.27-.44.32-.87.15-1.3.21-.16.02-.34-.02-.49.03-.86.33-1.76.49-2.68.47-.2,0-.44-.03-.59.06-.53.34-1.14.21-1.71.39-.75.24-1.59.19-2.38.3-.3.04-.59.19-.9.23-.32.05-.76-.1-.96.06-.36.28-.71.13-1.05.2-.38.08-.76.23-1.15.23-.81,0-1.56.4-2.4.29-.31-.04-.73.12-.96.34-.15.14-.06.55-.06.83,0,.58-.01,1.17.01,1.75,0,.1.15.23.26.3.17.09.39.09.54.21.76.59,1.64.57,2.52.55.4-.42.97-.09,1.39-.27.47-.2.93-.23,1.41-.23.17,0,.41.07.49-.01.38-.42.87-.14,1.28-.24.42-.11.81-.34,1.27-.24.54.12,1.06-.05,1.51-.27.47-.23.93-.19,1.41-.23.43-.04.92.2,1.28-.23.73.06,1.39-.43,2.14-.27.24.05.54.1.74,0,.85-.45,1.76-.4,2.67-.52,1.1-.14,2.17-.48,3.3-.47.07,0,.15-.04.22-.06.72-.19,1.43-.45,2.19-.44.25,0,.53.07.74-.02.9-.38,1.84-.5,2.8-.48.16,0,.34.02.48-.04.86-.39,1.75-.51,2.68-.46.2,0,.44.02.59-.07.69-.41,1.43-.46,2.2-.43.17,0,.36.05.49-.01,1.25-.6,2.65-.38,3.95-.72.69-.18,1.46-.07,2.13-.3.56-.19,1.2-.02,1.63-.26.54-.3,1.04-.15,1.55-.19.54-.05,1.15-.17,1.61.02.89.37,1.78.12,2.66.22.27.03.36-.09.35-.36-.02-.25,0-.5,0-.75,0-5.41,0-10.83,0-16.24,0-.36-.08-.81.1-1.07.26-.4-.13-.5-.21-.52-.27-.07-.57-.07-.86-.04-.35.05-.68.19-1.02.23-.37.04-.75,0-1.12,0-.12,0-.26-.02-.37,0-.1.03-.26.14-.25.18.16.75-.29,1.42-.27,2.15.16,4.72-.43,9.42-.25,14.14,0,.12.04.27-.01.37-.04.08-.19.13-.29.14-.06,0-.18-.07-.19-.12-.02-.21,0-.42,0-.62v-7.75Zm-27.63,41.23h14.85c.33,0,.67.01,1,0,.09,0,.17-.1.25-.15-.06-.06-.11-.14-.18-.17-.65-.33-1.4-.55-1.95-1-.75-.61-1.66-.85-2.44-1.38-.77-.52-1.61-.94-2.4-1.42-.89-.55-1.84-1-2.74-1.51-1.29-.72-2.52-1.54-3.8-2.28-1.44-.82-2.98-1.51-4.35-2.42-.79-.52-1.66-.85-2.44-1.37-.77-.52-1.61-.94-2.4-1.43-.89-.55-1.85-.98-2.74-1.51-.94-.55-1.82-1.18-2.83-1.62-.32-.14-.59-.39-.89-.57-.9-.54-1.87-.98-2.69-1.66-.04-.03-.29.1-.34.2-.06.14-.02.33-.02.49,0,5.7,0,11.4,0,17.1,0,.68,0,.69.76.69,5.12,0,10.23,0,15.35,0Zm32.38-27.06c0-1,0-2,0-3,0-.37-.19-.54-.52-.42-1.03.38-2.08.54-3.17.49-.73-.03-1.4.42-2.15.25-.45.46-1.11.03-1.5.29-.49.32-1.01.03-1.41.24-.47.25-.93.21-1.41.22-.16,0-.35-.03-.49.03-.9.37-1.84.5-2.8.48-.36,0-.68.03-1.04.22-.52.28-1.14.31-1.76.29-.38,0-.76-.06-1.17.2-.4.25-.99.22-1.5.28-.8.1-1.64.04-2.38.28-1.17.39-2.4.51-3.58.66-1.47.18-2.9.67-4.41.57-.15-.01-.31.04-.45.11-.7.34-1.45.42-2.22.39-.31-.01-.67-.14-.9.22-.73-.04-1.39.44-2.14.28-.2-.04-.47-.09-.62,0-.98.63-2.15.51-3.21.68-1.38.21-2.74.66-4.16.56-.07,0-.15.04-.22.07.02.06.03.14.07.17.22.18.42.41.67.49,1.47.47,2.88,1.1,4.3,1.68,1.82.74,3.62,1.53,5.45,2.23,1.03.4,2.11.8,3.25.59,1.13-.21,2.25-.52,3.42-.49.07,0,.17-.02.22-.07.35-.37.88.01,1.16-.21.39-.32.78-.17,1.17-.22.39-.04.78-.13,1.16-.2.7-.13,1.39-.47,2.14-.31.19.04.43.04.6-.04,1.07-.46,2.23-.4,3.34-.68.77-.2,1.62-.08,2.38-.3.64-.19,1.3-.08,1.9-.25.72-.19,1.44-.35,2.18-.46.79-.12,1.6-.18,2.39-.26.08,0,.19.03.25,0,.49-.39,1.12-.37,1.68-.46.62-.11,1.26-.1,1.89-.27.99-.27,2.04-.24,3.04-.51.59-.16.57-.11.55-.83-.03-1,0-2,0-3Zm-19.24-13.86c0-2.12,0-4.25,0-6.37,0-1.17,0-1.17-1.18-.94-.04,0-.08,0-.12,0-.4.04-.98-.06-1.15.16-.2.26-.05.8-.05,1.21,0,.83-.02,1.67,0,2.5.1,2.93-.44,5.84-.25,8.77,0,.04.02.1,0,.12-.07.08-.14.21-.22.21-.09,0-.23-.08-.27-.16-.05-.1-.01-.24-.01-.37,0-4,0-8,0-11.99,0-.39.04-.74.39-.96.37-.24.41-.6.36-.97-.11-.8.09-1.58-.2-2.41-.27-.76.04-1.68-.28-2.51-.18-.47-.18-1.01-.27-1.51-.09-.5-.54-.86-.51-1.42.03-.53-.6-.8-.61-1.38,0-.26-.31-.53-.5-.78-.3-.39-.5-.31-.88.08-.59.61-.89,1.38-1.32,2.08-.44.71-.31,1.63-.92,2.25-.13,1.31-.51,2.59-.5,3.92,0,.71,0,1.42,0,2.12,0,.33-.03.67.01,1,.03.26.12.53.25.77.2.37.27.74.25,1.15-.03.67,0,1.33,0,2v2.12c0,.67.03,1.33,0,2-.04.68.18,1.39-.16,2.05-.33.65.21,1.23.17,1.86,0,.12.05.29-.01.37-.14.18-.31.42-.5.45-1.48.22-2.97.4-4.44.73-1.19.27-2.42.48-3.65.59-.58.05-1.26,0-1.75.25-.51.26-1.01,0-1.41.22-.47.26-.93.21-1.41.22-.21,0-.47-.08-.62.01-.99.61-2.19.25-3.2.74-.66-.16-1.26.2-1.9.25-.68.06-1.35.15-2.02.25-.12.02-.32.15-.32.23-.03.71-.03,1.42,0,2.12,0,.07.12.39.5.27,1.05-.32,2.16-.46,3.25-.6,1.22-.16,2.46-.28,3.65-.57.56-.13,1.1-.2,1.65-.22.2,0,.44.02.59-.07.53-.32,1.14-.23,1.71-.39.84-.23,1.75-.2,2.63-.29.15-.02.3-.07.46-.1.61-.13,1.23-.37,1.84-.37.74,0,1.43-.21,2.15-.29.3-.03.59-.2.9-.23.88-.1,1.8-.04,2.63-.3.57-.18,1.19,0,1.63-.26.5-.29,1.02,0,1.41-.22.48-.28.94-.21,1.41-.21.52,0,1.01.03,1.53.2.93.31,1.27-.03,1.27-1.02,0-2.12,0-4.25,0-6.37Zm18.61,20.43c-1.06.3-2.27.51-3.52.53-.03,0-.05.07-.09.08-.45.13-.89.36-1.34.36-1.09.02-2.12.2-3.17.49-.6.17-1.26.13-1.89.23-.66.1-1.34.18-2.01.31-1.13.21-2.27.38-3.41.5-.22.02-.43.21-.65.23-.88.1-1.76.17-2.64.26-.12.01-.23.04-.34.08-.68.21-1.38.32-2.06.46-.85.18-1.68.18-2.53.22-.26.01-.52.14-.77.24-.27.1-.26.3-.08.46.14.13.32.23.51.28,1.3.37,2.52.95,3.76,1.48.63.27,1.28.62,1.93.73.76.14,1.37.57,2.04.83,1.71.69,3.4,1.43,5.13,2.09,1.65.63,3.28,1.32,4.89,2.05.62.28,1.25.59,1.91.82,1.2.42,2.39.87,3.53,1.43.24.12.48.28.74.31.26.04.53.08.8-.17.34-.31-.18-.36-.11-.59.07-.23.01-.49.01-.74v-11.48c0-.25-.02-.5,0-.75.07-.73.07-.75-.64-.73ZM47.01,26.1h-9.23c-.5,0-1,0-1.5,0-.55.01-.78.2-.78.68-.01,2.91,0,5.82,0,8.73,0,.36.11.41.45.25,1.37-.62,2.73-1.23,4.1-1.85.56.13.82-.42,1.26-.58,1.8-.67,3.57-1.42,5.32-2.22.77-.35,1.54-.72,2.33-.99,1.31-.45,2.59-1,3.84-1.56,1.23-.56,2.48-1.04,3.76-1.47.44-.15.87-.32,1.29-.51.08-.03.14-.21.13-.3-.01-.08-.15-.17-.24-.18-.2-.03-.41,0-.62,0h-10.1Zm3.49,21.95c-.02-.71-.02-1.25-.23-1.81-.18-.5.12-1.13-.28-1.63.19-1.03-.32-1.95-.52-2.91-.11-.57-.25-1.18-.8-1.54-.19-.12-.32-.11-.45.16-.57,1.14-1.63,4.35-1.5,5.63.03.28.02.58-.08.84-.35.92-.08,1.87-.15,2.81,0,.09.09.24.17.29.35.21.32.54.32.87,0,.67,0,1.33,0,2,0,2.25,0,4.5,0,6.74,0,1.01-.06,1.11-1.01,1.07-.7-.04-1.34.16-1.97.38-.11.04-.22.14-.32.13-1.35-.17-2.56.71-3.92.51-.47.33-1.06.1-1.51.29-.56.24-1.11.16-1.66.22-.34.04-.77.08-.98.29-.18.18-.1.61-.13.93-.01.12,0,.25,0,.37.01.33.23.5.55.39.86-.31,1.74-.51,2.67-.5.12,0,.33.05.36,0,.29-.5.83-.14,1.23-.37.38-.22.95-.09,1.44-.12.08,0,.18.02.25,0,.9-.34,1.85-.39,2.79-.54.68-.11,1.38-.07,2.02-.24.93-.24,1.84-.51,2.8-.46.27.01.46-.3.82-.04.25.18.73,0,1.1.04.4.04.47-.13.47-.49-.01-3.25-.01-6.49,0-9.74,0-.39-.15-.8.22-1.16.18-.17-.11-.75-.34-.83-.81-.31-1.39.06-1.39.92,0,1.87,0,3.75,0,5.62,0,.55.13,1.12-.22,1.66-.11.16-.07.55.06.7.27.31.12.63.17.94.06.35-.13.41-.43.4-.29,0-.33-.14-.33-.38,0-3.04,0-6.08.01-9.12,0-.26.08-.59.25-.76.48-.49.56-1.05.49-1.53Zm22.82,46.6s.01-.06.02-.09c.41,0,.96.17,1.22-.04.46-.37.99,0,1.38-.3.42-.33.88-.08,1.31-.16.46-.09.93-.17,1.39-.25.46-.08.93-.17,1.39-.25.23-.04.6,0,.67-.12.18-.32-.2-.48-.39-.67-.16-.16-.38-.27-.6-.35-1.05-.41-2.15-.69-3.26-.83-1.03-.13-2.04.19-3.05.42-.73.17-1.49.23-2.24.3-.37.04-.75.01-1.12,0-.46-.01-.86.15-1.16.49-.05.05-.06.22-.02.25.43.35.83.83,1.33.98,1.01.3,2.08.43,3.12.62Zm-4.74-5.59c.33,0,.67-.03.99,0,.36.04.58-.19.63-.44.03-.16-.19-.47-.37-.55-.6-.27-1.21-.47-1.9-.56-1.72-.23-1.7-.31-3.22.18-.15.05-.3.09-.45.1-1.21.09-2.42.17-3.63.26-.12,0-.26.01-.34.08-.17.14-.04.82.19.91.43.17.86.34,1.31.43.7.14,1.42.37,2.1.27.46-.06.95-.08,1.39-.22,1.08-.34,2.19-.34,3.28-.48Zm-9.32-5.3c-.25.06-.51.14-.78.19-.69.14-1.35.43-2.09.37-.97-.09-1.9.43-2.88.25-.09-.02-.21.09-.3.16-.11.09-.29.18-.07.35.25.19.4.46.79.5.65.08,1.27.33,1.91.46.21.04.46-.08.68-.14.64-.19,1.27-.41,1.97-.35,1.09.08,2.15-.4,3.26-.25.06,0,.2-.19.23-.32.1-.35-.17-.58-.42-.65-.74-.22-1.51-.38-2.31-.57Zm-23.76-28.47v3.5c0,.21-.03.42,0,.62.05.26.52.48.8.42.32-.07.19-.32.19-.5,0-1.17-.04-2.33.02-3.5.06-1.38-.26-2.79.23-4.15.04-.11.04-.26,0-.37-.1-.28-.26-.49-.61-.49-.35,0-.53.19-.62.47-.06.19-.01.41-.01.62v3.37Zm13.87,27.6c.62-.06,1.19-.19,1.78-.29,1.19-.19,2.41-.2,3.62-.28.08,0,.2.03.24,0,.1-.09.2-.22.22-.34.05-.4-.21-.61-.55-.64-.51-.05-1.04.06-1.52-.25-.09-.06-.27-.06-.36,0-.82.52-1.79.09-2.67.45-.71.29-1.57.2-2.36.3-.1.01-.24.18-.25.3-.03.17-.1.4.24.45.54.08,1.08.21,1.62.31Zm-1.46-4.07c-.41,0-.91-.15-1.13.03-.5.42-1.08.12-1.61.36-.48.22-1.12.12-1.69.1-.39,0-.68.15-.7.49,0,.15.34.36.56.47.17.08.4.05.6.05.72-.03,1.42-.03,2.15-.21,1.05-.25,2.16-.21,3.25-.29.2-.01.43.03.41-.29-.02-.18.05-.34-.22-.48-.54-.3-1.09-.2-1.62-.23Zm-4.28-2c-.83-.16-1.7.45-2.64.25-.45.38-1,.21-1.51.26-.18.02-.37.1-.54.19-.09.05-.2.22-.17.28.05.11.18.22.3.26.53.18,1.06.35,1.63.25.26-.05.51-.23.77-.23.89.01,1.73-.41,2.63-.28.16.02.34-.18.52-.21.21-.04.46-.03.37-.32-.05-.17-.23-.39-.38-.43-.27-.07-.57-.02-.97-.02Zm-3.37-1.75c-.3,0-.5-.06-.63.01-.56.3-1.21.1-1.75.27-.6.19-1.18.17-1.77.23-.21.02-.41.21-.59.36-.04.04,0,.3.05.31.44.11.93.34,1.33.24.88-.23,1.79-.24,2.68-.41.38-.08.79.04,1.15-.25.14-.12.57.11.49-.3-.03-.15-.32-.28-.52-.37-.18-.08-.38-.08-.45-.09Zm-3.38-1.5c-.29,0-.58-.03-.86,0-.37.05-.55.31-.5.68.02.11.17.3.25.29.62-.06,1.25-.14,1.86-.25.07-.01.13-.28.11-.42-.02-.11-.14-.27-.25-.3-.19-.05-.41-.01-.61-.01Z" style="stroke-width: 0px;"/>
  <path d="m119.37,25.35h29.85c.29,0,.59-.02.87,0,.13.01.34.12.35.2,0,.18-.1.52-.13.52-.32-.03-.56.56-.96.08-.12-.15-.55-.06-.83-.06-19.44,0-38.89,0-58.33,0-.35,0-.74-.16-1.05.2-.06.07-.27.09-.34.03-.27-.2-.62-.4-.72-.68-.05-.16.37-.36.69-.32.25.03.5,0,.75,0h29.85Z" style="stroke-width: 0px;"/>
  <path d="m119.22,59.08h29.73c.33,0,.68-.05.99.02.2.05.43.26.5.45.11.29-.19.26-.38.31-.22.06-.53.28-.64.2-.57-.39-1.19-.22-1.79-.22-18.99-.01-37.98-.01-56.97,0-.55,0-1.11-.11-1.66.22-.3.18-.62-.08-.77-.41-.12-.26.08-.56.37-.57.29,0,.58,0,.87,0h29.73Z" style="stroke-width: 0px;"/>
  <path d="m119.33,44.34h29.85c.33,0,.67,0,1,0,.32,0,.32.21.28.41-.03.12-.13.31-.23.33-.24.05-.5.02-.75.02h-60.19c-.29,0-.59.05-.87-.02-.16-.04-.28-.25-.41-.38.16-.12.31-.31.48-.33.32-.05.66-.02,1-.02h29.85Z" style="stroke-width: 0px;"/>
  <path d="m119.49,78.07h29.72c.33,0,.67-.02,1,.01.1.01.23.19.25.3.03.18.08.44-.25.43-.29,0-.58,0-.87,0-19.98,0-39.96,0-59.94,0-.37,0-.73-.03-1.09-.08-.1-.01-.26-.19-.25-.25.03-.13.15-.32.26-.34.32-.06.65-.08.97-.08,4.75,0,9.49,0,14.24,0h15.98Z" style="stroke-width: 0px;"/>
  <path d="m119.34,97.06h29.86c.33,0,.67,0,1,0,.33,0,.29.25.26.43-.02.12-.14.29-.24.31-.24.05-.5.01-.75.01h-60.21c-.25,0-.5,0-.75,0-.33,0-.29-.25-.26-.43.02-.12.15-.3.24-.31.33-.04.66-.01,1-.01h29.86Z" style="stroke-width: 0px;"/>
  <path d="m90.23,90.77v.25q0,1.45-1.4,1.29c-.44-.05-.77-.47-.58-.86.29-.58.3-1.22.51-1.79.37-1,.06-2.15.73-3.06-.18-.82.29-1.58.24-2.39-.02-.36.15-.42.44-.39.44.04.97-.05,1.28.17.21.15.26.69.31,1.09.1.68.42,1.32.59,1.99.16.65.25,1.31.38,1.96.02.1.11.18.17.28.11-.08.23-.15.33-.25.41-.38.06-1.04.5-1.41-.01-.97.21-1.87.72-2.69.04-.06.02-.16.03-.24.02-.28-.05-.73.09-.81.25-.15.63-.1.95-.09.23,0,.52,0,.68.13.1.08-.03.41.04.59.43,1.19.47,2.46.77,3.68.24.98.24,2.01.67,2.96.33.72-.06,1.12-.9,1.13-.12,0-.25,0-.37,0-.29.02-.44-.03-.45-.39-.02-.51-.18-1.01-.23-1.52-.04-.5-.06-1,0-1.49.06-.47-.15-.86-.28-1.27-.06-.21-.25-.38-.37-.57-.04.19-.08.38-.11.58-.13.73-.5,1.4-.51,2.16,0,.71-.59,1.29-.51,2.04,0,.06-.14.19-.23.2-.2.03-.41,0-.62,0-.94,0-.82-.05-1.18-.94-.32-.8-.32-1.67-.69-2.46-.14-.31.01-.74-.04-1.11-.02-.17-.22-.32-.34-.48-.13.14-.36.27-.38.43-.12,1.08-.21,2.17-.3,3.26.01,0,.02,0,.03,0Z" style="stroke-width: 0px;"/>
  <path d="m120.97,68.79c-.08,1.1.44,2.15.25,3.27-.03.2-.01.42,0,.62.01.4-.23.6-.58.63-.41.04-.83-.02-1.25.02-.36.03-.6-.18-.65-.43-.06-.29-.17-.67.18-.9.16-.1.35-.17.51-.27.29-.17.42-.56.26-.74-.34-.38-.22-.78-.22-1.16-.02-1.54-.01-3.08,0-4.62,0-.13.11-.36.18-.36.46-.03.92-.05,1.37,0,.16.02.37.23.43.39.51,1.4,1.62,2.47,2.15,3.85.15.39.28.8.45,1.19.04.11.2.27.25.25.14-.05.33-.17.34-.28.05-.45.19-.96.04-1.34-.37-.92-.15-1.85-.22-2.78-.02-.29,0-.58,0-.87-.02-.29.03-.47.39-.44.37.03.75-.02,1.12.02.25.03.67-.23.72.2.05.42.23,1.01-.31,1.21-.42.15-.42.37-.42.7,0,1.54,0,3.08,0,4.62,0,.32.01.6.22.91.23.36-.13.79-.58.84-.77.08-1.31-.17-1.62-.86-.65-1.49-1.78-2.73-2.31-4.29-.04-.11-.17-.18-.26-.27-.12-.11-.23-.22-.35-.32-.04.15-.09.3-.11.45-.02.25,0,.5,0,.75Z" style="stroke-width: 0px;"/>
  <path d="m107.73,88.18c.31.8-.39,1.59-.5,2.48-.76.84-1.5,1.63-2.79,1.67-1.73.05-2.61-.85-3.36-2.31-.09-.17-.09-.39-.09-.58,0-.91-.02-1.83,0-2.74.02-.69.22-1.32.78-1.8.19-.16.37-.34.53-.53.34-.39.74-.5,1.25-.61.48-.1.81-.16,1.31,0,1.69.56,1.62.55,2.44,2.17.35.7.42,1.35.44,2.24Zm-1.75-.3c.06-.68.04-1.5-.7-2.15-.74-.66-1.77-.5-2.32.34-.5.76-.51,1.58-.49,2.42.02.96.74,2.01,1.61,2.3.15.05.4.09.48.01.38-.37.87-.59,1.18-1.08.2-.32.22-.59.23-.91,0-.25,0-.5,0-.93Z" style="stroke-width: 0px;"/>
  <path d="m111.47,87.94c0-.62-.01-1.25,0-1.87.02-.74.06-1.47.09-2.21.99-.01,1.99-.02,2.98-.04.32.52,1.08.35,1.39.85.29.46.58.93.77,1.43.2.56-.16,1.09-.29,1.62-.11.43-.4.81-.92.99-.35.12-.35.4-.08.67.52.54,1.07,1.05,1.58,1.6.42.45.3.89-.29,1.1-.18.06-.36.15-.55.18-.14.02-.34.02-.42-.06-.28-.29-.53-.6-.76-.93-.44-.61-.84-1.24-1.29-1.83-.07-.09-.31-.12-.44-.09-.11.02-.24.19-.25.3-.02.28-.09.66.05.84.3.35.16.71.17,1.06.01.61-.17.77-.79.79-.21,0-.42-.01-.62,0-.29.02-.33-.13-.33-.38,0-1.33,0-2.67,0-4Zm2.32-2.37c-.08,0-.17,0-.25,0-.43.06-.57.28-.38.8.09.25-.03.34-.12.52-.12.24.21.89.41.93.58.11,1.5-.63,1.51-1.22.01-.64-.45-1.04-1.18-1.03Z" style="stroke-width: 0px;"/>
  <path d="m146.58,83.81c.17,0,.33,0,.5,0,.24-.02.4.02.39.32-.04.98.55,1.78.87,2.63.38,1,.69,2.04,1.09,3.04.2.5.47.97.65,1.48.22.61.13.89-.49,1.02-.28.06-.6.07-.87,0-.2-.06-.41-.26-.49-.45-.08-.22,0-.49-.02-.74-.03-.32-.23-.52-.55-.53-.71-.01-1.41-.01-2.12,0-.33,0-.51.21-.57.52-.01.08,0,.17,0,.25.03.38.03.83-.37.95-.5.14-1.04.06-1.5-.24-.1-.06-.14-.3-.12-.43.04-.26.12-.53.25-.77.44-.82.64-1.73.99-2.58.18-.43.2-.99.51-1.27.44-.39.06-.94.47-1.34.3-.29.48-.83.5-1.26.02-.53.2-.64.65-.58.08.01.17,0,.25,0Zm0,5.25c1.04,0,1.09-.08.64-1.07-.09-.21-.15-.44-.26-.64-.09-.17-.19-.36-.33-.47-.08-.06-.39.04-.39.07,0,.65-.44,1.17-.51,1.79-.01.1.13.29.23.32.19.05.41.01.62.01Z" style="stroke-width: 0px;"/>
  <path d="m132.41,64.82c.75,0,1.5,0,2.24,0,.1,0,.3.09.3.13,0,.44,0,.9-.1,1.33-.05.23-.33.33-.61.29-.59-.1-1.18-.17-1.77-.25-.34-.05-.51.02-.52.44-.02,1.38.01,1.43,1.4,1.31.04,0,.08,0,.12,0,.25.02.36-.48.74-.15.36.31.24.67.25,1.03.01.61,0,.61-.56.63-.21,0-.42,0-.62,0-.41.01-.82.03-1.23.05-.03.45-.07.89-.07,1.34,0,.75.44,1.16,1.08.82.5-.27.95-.17,1.42-.19.63-.03.82.28.75,1.07-.04.51-.41.84-.92.64-.92-.37-1.85-.15-2.77-.22-.21-.02-.47-.08-.61.01-.37.24-.85.42-1.09.14-.21-.25-.09-.78-.1-1.19,0-.07.07-.2.11-.19,1.13.08.59-.78.61-1.2.07-1.2.02-2.41.03-3.61,0-.48-.02-.87-.63-.99-.24-.05-.45-.35-.37-.7.09-.38.32-.54.7-.52.17,0,.33,0,.5,0h1.75Z" style="stroke-width: 0px;"/>
  <path d="m120.97,88.19c0-1.04,0-2.08,0-3.12,0-.24.03-.55-.1-.7-.27-.29.03-.36.14-.45.11-.09.3-.11.45-.11,1.21,0,2.41,0,3.62-.01.35,0,.4.13.4.43.04,1.32.05,1.32-1.25,1.32-.42,0-.84.05-1.25-.01-.53-.08-.48.21-.52.57-.09.75.32,1.09,1.16.91.14-.03.26-.19.41-.21.62-.11.92.15.94.76,0,.21.01.42,0,.62-.03.46-.27.56-.79.45-.39-.09-.81-.05-1.21-.1-.35-.04-.56.05-.49.46.01.08,0,.17,0,.25.02.41.04.82.05,1.23.56-.01,1.12,0,1.67-.04.31-.02.63-.1.94-.14.28-.04.36.11.33.36,0,.08,0,.17,0,.25q.02,1.13-1.06,1.13c-.96,0-1.91,0-2.87,0-.56,0-.57-.01-.57-.63,0-1.08,0-2.16,0-3.24Z" style="stroke-width: 0px;"/>
  <path d="m104.73,69.1c0,.21,0,.42,0,.62,0,.98.7,2.01,1.59,2.31.54.18.95-.27,1.43-.38.1-.02.16-.21.27-.25.28-.09.62-.35.72.24.05.3.63.42.46.78-.11.24-.47.4-.75.54-1.32.65-2.66.55-3.85-.21-.51-.33-.82-1.04-1.1-1.64-.26-.55-.32-1.19-.48-1.79-.11-.41.09-.93.22-1.38.28-.93.54-1.88,1.31-2.58.37-.33.76-.54,1.27-.56.34-.02.78-.32,1-.2.32.19.6.2.92.21.51.02.87.29,1.25.61.37.3.22.67.25,1.02.01.17,0,.33,0,.5.02.25-.04.39-.33.37-.25-.02-.5-.02-.75,0-.3.02-.5-.05-.42-.4.08-.38-.07-.77-.37-.81-.46-.07-1.02-.25-1.41.13-.9.89-1.34.97-1.22,2.85Z" style="stroke-width: 0px;"/>
  <path d="m90.23,33.31s0,.08,0,.12c.02.37.04.73.06,1.1.47-.01,1.01.1,1.41-.08.56-.25.57.15.79.4.31.34.11.8-.06.87-.34.14-.77.06-1.16.03-.23-.02-.45-.11-.68-.15-.26-.05-.37.06-.36.33.01.5.01,1,0,1.49,0,.33-.02.64.32.87.34.23.18.61.16.91-.01.14-.4.38-.42.37-.45-.43-.88.08-1.3.02-.43-.06-.77-.83-.42-1.16.54-.49.4-1.04.41-1.59.02-1.33.02-2.66,0-3.98,0-.31.22-.79-.41-.8-.1-.35-.22-.7.09-1.01.07-.07.21-.15.26-.13.7.37,1.45.12,2.17.17.7.04,1.41,0,2.12.01.55,0,.56.03.53.54-.04.51-.37.87-.75.69-.79-.39-1.6-.15-2.4-.23-.26-.03-.37.07-.36.34.02.29,0,.58,0,.87Z" style="stroke-width: 0px;"/>
  <path d="m140.3,32.84c.52-.06,1.07.05,1.56.51.52.49.55,1.19.85,1.78.03.07.03.18,0,.25-.61,1.3-.11,2.3.85,3.19.19.18.32.37-.07.54-.24.11-.44.42-.67.44-.16.01-.35-.31-.53-.49-.33-.34-.6-.25-.95.02-.9.68-1.66.71-2.37.16-.93-.71-1.15-1.4-.78-2.48.38-1.12.7-1.38,1.75-1.39.33,0,.67,0,1,0,.52,0,.71-.24.46-.65-.16-.26-.23-.62-.66-.73-.34-.08-.59-.21-.86.08-.04.05-.16.06-.22.04-.23-.08-.62.24-.69-.25-.09-.59.13-.95.6-.99.21-.02.42,0,.73,0Zm1.16,4.49c.01-.92.16-1.11-.85-1-.12.01-.25,0-.37,0-.83.07-1.39.97-.96,1.65.18.29.66.59.96.55.38-.04.75-.39,1.05-.68.17-.17.17-.5.17-.52Z" style="stroke-width: 0px;"/>
  <path d="m129.47,87.95c0-1.21.03-2.41-.02-3.62-.02-.5.16-.56.57-.52.29.03.58.02.87,0,.29-.02.33.13.33.38,0,1.62-.01,3.25,0,4.87,0,.26-.14.44-.23.66-.18.41.14.84.59.84.39,0,.77.05,1.19-.13.83-.35,1.19-.05,1.2.86,0,.17.04.34-.01.5-.04.11-.18.19-.29.28-.02.02-.08,0-.12,0-1.33,0-2.66-.02-3.98-.03-.05-1.36-.09-2.72-.14-4.08.02,0,.03,0,.05,0Z" style="stroke-width: 0px;"/>
  <path d="m100.15,36.34c-.46,0-.92-.01-1.37,0-.73.02-.9.28-.54.93.15.28.13.61.51.84.93.56.95.67,2.01-.22.41-.34.52-.16.73.08.34.38.38.7.04.93-1.22.86-2.62,1.05-3.67-.04-1.28-1.33-1.25-4.33.26-5.55.95-.77,2.89-.75,3.52.79.12.28.05.59.29.89.2.25.16.86,0,1.19-.09.17-.67.12-1.03.14-.25.02-.5,0-.75,0Zm-.73-1c.33,0,.67.02.99-.01.11-.01.3-.18.29-.25-.05-.41-.11-.78-.59-1-.82-.37-.93-.36-1.65.37-.24.24-.32.5-.22.76.04.1.36.11.55.13.21.02.41,0,.62,0Z" style="stroke-width: 0px;"/>
  <path d="m113.82,64.82c.33,0,.67-.02,1,0,.22.02.62.08.63.16.03.3.17.66-.17.91-.13.1-.22.31-.36.34-.62.1-.57.66-.41.91.4.63.2,1.28.2,1.91,0,.63.22,1.28-.21,1.9-.19.28.01.78.33.8.48.04.44.44.57.65.26.43-.06.88-.58.9-.36,0-.74,0-1.07-.11-.33-.1-.53.17-.84.14-.35-.03-.6-.19-.66-.43-.06-.28-.18-.67.17-.91.16-.11.35-.17.51-.27.28-.17.42-.5.27-.74-.43-.7-.2-1.44-.21-2.15-.01-.67-.2-1.37.21-2.02.09-.15.11-.43-.29-.53-.22-.06-.64-.06-.7-.49-.12-.84-.02-.97.85-.97.25,0,.5,0,.75,0Z" style="stroke-width: 0px;"/>
  <path d="m108.47,32.84c.21,0,.42-.02.62,0,.87.08,1.3.63,1.12,1.48-.04.2-.26.42-.45.5-.22.09-.5.05-.64-.22-.07-.13-.1-.3-.18-.42-.31-.45-.7-.46-1.11-.07-.56.54-.49.81.25,1.24.22.12.42.18.65.25.66.2,1.35.58,1.47,1.27.15.88.09,1.71-.91,2.37-.95.63-1.67.16-2.49,0-.13-.02-.27-.3-.3-.48-.05-.28-.06-.59,0-.87.05-.21.23-.51.39-.54.17-.03.4.2.58.35.04.03-.01.22.01.23.32.11.11.75.58.62.37-.1.73-.28,1.03-.51.25-.19.18-.48-.01-.76-.37-.52-.98-.69-1.49-.93-.48-.22-1-.43-1.07-.91-.08-.57-.13-1.16.16-1.78.27-.59.72-.66,1.17-.84.18-.07.41-.01.62-.01Z" style="stroke-width: 0px;"/>
  <path d="m139.47,87.9c0,1.2-.01,2.41,0,3.61,0,.37-.1.73-.42.77-.37.05-.8.2-1.17-.16-.23-.22-.16-.45-.16-.68,0-1.58,0-3.15,0-4.73,0-.83.01-1.66,0-2.49,0-.33.1-.44.42-.41.33.02.66.02.99,0,.27-.01.35.1.35.36-.01,1.24,0,2.49,0,3.73Z" style="stroke-width: 0px;"/>
  <path d="m134.57,33.38c-.15.25-.28.4-.34.58-.55,1.76-1.49,3.37-2.03,5.14-.06.19-.33.48-.46.46-.27-.04-.76-.32-.74-.4.18-.74-.46-1.16-.65-1.75-.39-1.24-1.01-2.4-1.54-3.59-.19-.44-.16-.52.31-.76.49-.25.65-.24.83.21.45,1.14.84,2.31,1.26,3.46.05.14.1.29.18.42.09.14.21.26.35.04.16-.26.45-.53.44-.8,0-.98.77-1.71.8-2.67,0-.23.26-.47.42-.69.13-.18.29-.28.51-.09.19.15.4.28.64.45Z" style="stroke-width: 0px;"/>
  <path d="m114.57,32.93c.75.05.88-.01.9-.46.02-.33,0-.67,0-1,0-.4.24-.58.59-.62.39-.04.67.24.65.68-.01.22-.14.44-.21.66-.21.64.36,1.1.88.86.16-.07.31-.37.34.06.02.25.53.41.13.72-.15.12-.34.19-.52.26-.28.1-.72-.2-.84.22-.08.28.07.6.17.91.17.57.09,1.23.05,1.85-.03.45.06.81.44,1.07.25.18.37.41.33.74-.03.27-.48.73-.77.7-.07,0-.18-.04-.21-.09-.48-.89-1.1-1.72-1.04-2.82.03-.66-.03-1.33.02-2,.04-.53-.17-.65-.63-.59-.23.03-.41,0-.39-.31.01-.25,0-.5,0-.75,0-.06.09-.11.09-.1Z" style="stroke-width: 0px;"/>
  <path d="m92.23,69.32c0,.66,0,1.33,0,1.99,0,.37,0,.69.33,1,.33.32.25.61-.11.92-.19.16-.4.18-.46-.1-.12-.56-.48-.35-.72-.2-.27.17-.44.46-.84.4-.39-.06-.8.09-1.13-.3-.39-.46-.88-.86-.81-1.53.05-.51-.13-1.01.18-1.55.26-.44.52-.74.98-.95.44-.2.77-.24,1.21.04.39.24.62,0,.62-.52,0-.33,0-.62-.29-.88-.3-.28-.15-.71.23-.8.12-.03.25,0,.37,0,.28-.02.47,0,.45.38-.03.7,0,1.41,0,2.12Zm-2.75,1.67c0,.31-.01.52,0,.73.02.31.46.78.76.86.35.09.51-.18.73-.35.28-.21.2-.5.27-.77.17-.66-.04-1.52-.58-1.8-.17-.09-.48-.06-.66.04-.54.31-.6.83-.52,1.29Z" style="stroke-width: 0px;"/>
  <path d="m144.71,69.21c0,.5,0,.99,0,1.49,0,.69.15,1.33.62,1.85.24.26.1.41-.08.61-.23.24-.43.2-.6-.04-.29-.4-.51-.33-.88-.02-.6.51-1.92.18-2.3-.49-.51-.87-.59-1.78-.25-2.67.38-.99,1.22-1.35,2.29-.94.32.12.42.08.46-.27.06-.5-.06-.98-.35-1.35-.29-.38.08-.45.2-.52.15-.1.4-.07.59-.04.11.02.28.17.28.26.02.7.01,1.41.01,2.11Zm-.75,1.78c.16-.67-.45-.94-.82-1.35-.06-.06-.27-.08-.32-.03-.41.43-.97.74-.87,1.52.09.74.55,1.48,1.06,1.44.54-.04.96-.72.96-1.58Z" style="stroke-width: 0px;"/>
  <path d="m112.47,53.33c0,.41.02.58,0,.74-.02.09-.11.22-.19.24-.64.18-1.05-.12-1.04-.78,0-.35-.03-.68.14-1.06.17-.38,0-.93-.04-1.4,0-.07-.13-.15-.11-.2.09-.27-.26-.67.26-.81.14-.04.27-.22.38-.2.26.04.52.14.76.26.07.03.07.21.09.33.11.58.45,1.01.9,1.36.04.03.3-.1.34-.2.05-.13,0-.31-.05-.47-.05-.19-.16-.36-.18-.55-.04-.46.18-.74.56-.77.38-.03.69.23.67.66-.02.47.14.95-.16,1.43-.13.21.01.6.05.91.03.23.11.46.12.7.01.5-.16.74-.53.8-.57.1-.8-.03-.95-.63-.13-.48-.35-.88-.72-1.2-.06-.05-.22-.1-.25-.07-.09.09-.21.24-.2.34.04.27.15.52.16.55Z" style="stroke-width: 0px;"/>
  <path d="m136.22,53.22c.06-.33-.11-.69.21-1.03.13-.13.08-.61-.06-.8-.27-.36-.12-.72-.13-1.07,0-.16.21-.45.33-.45.29,0,.6.11.88.21.11.04.25.2.25.3,0,.54.31.9.68,1.21.13.11.34.12.51.18.02-.2.14-.5.05-.57-.32-.27-.25-.61-.21-.91.04-.28.26-.48.61-.48s.58.2.6.48c.03.34-.07.71-.13,1.06-.13.68-.21,1.34.06,2.01.17.42.03.82-.26.94-.48.19-1.05-.03-1.12-.54-.08-.57-.39-.95-.77-1.3-.05-.04-.19-.03-.25,0-.09.06-.15.17-.22.26.36.23.23.6.21.9-.02.26.26.71-.36.7-.63,0-.84-.16-.87-.72,0-.12,0-.25,0-.39Z" style="stroke-width: 0px;"/>
  <path d="m149.46,34.1c0,1.04,0,2.08,0,3.12,0,.4,0,.76.32,1.13.21.24.12.75.12,1.15,0,.03-.31.12-.44.08-.32-.1-.56-.43-.94,0-.15.17-.56.02-.73-.27-.16-.27-.2-.57.09-.75.58-.37.59-.92.58-1.51-.02-1.25-.04-2.49,0-3.74.03-.86-.05-1.66-.56-2.39-.28-.41-.09-.75.38-.81,1.11-.14,1.17-.09,1.17,1.02,0,1,0,1.99,0,2.99Z" style="stroke-width: 0px;"/>
  <path d="m91.73,52.16c0-.54-.02-1.08,0-1.62.02-.64.29-.72.91-.48.39.16.61.32.6.76,0,.1.12.2.16.3.13.33.22.75.68.67.1-.02.11-.5.15-.76.02-.16.03-.34,0-.5-.07-.35.16-.62.4-.67.22-.05.51.13.75.26.07.04.14.27.1.31-.45.5-.18,1.1-.23,1.65-.04.54,0,1.08-.02,1.62-.01.21.17.56-.18.62-.26.04-.59,0-.8-.13-.29-.19-.49-.46-.54-.89-.05-.41-.36-.82-.63-1.17-.1-.12-.4.78-.33,1.46.07.73.07.72-.48.76-.32.02-.56.02-.53-.43.04-.58,0-1.16,0-1.74Z" style="stroke-width: 0px;"/>
  <path d="m132.5,54.31c-.55.19-.92-.15-1.22-.55-.38-.49-.82-1.02-.79-1.65.03-.66.36-1.27.84-1.76.25-.25.45-.54.9-.54.54,0,1.08.04,1.45.4.35.34.65.82.75,1.29.09.43.21.97-.16,1.41-.12.14-.21.33-.26.51-.22.76-.73,1.02-1.51.89Zm.71-2.04s.07-.02.1-.03c-.12-.37-.21-.75-.36-1.1-.14-.34-.43-.4-.72-.21-.51.34-.59.84-.53,1.4.05.47.46.98.86,1,.45.03.63-.24.65-.94,0-.04,0-.08,0-.12Z" style="stroke-width: 0px;"/>
  <path d="m107.51,50.08c.8-.03,1.48.1,1.83.97.14.34.21.58-.07.86-.16.16-.22.41-.37.59-.11.13-.22.2-.03.36.25.21.47.47.71.7.26.25.12.44-.09.6-.41.31-.83.19-1.1-.29-.13-.24-.28-.47-.45-.69-.06-.08-.22-.13-.32-.1-.07.02-.13.17-.16.27-.03.12,0,.25,0,.37-.03.19-.07.55-.11.55-.31,0-.66.19-.92-.13-.06-.08-.17-.2-.15-.26.42-1.08.11-2.19.17-3.29.02-.44.11-.61.56-.54.16.03.33,0,.5,0Zm.7,1.18c-.08-.04-.21-.14-.36-.18-.37-.08-.38.16-.38.43,0,.29.15.3.38.32.38.03.4-.17.36-.58Z" style="stroke-width: 0px;"/>
  <path d="m142.02,54.31s-.22-.09-.38-.19c-.06-.04-.12-.22-.09-.25.43-.43.34-1.09.75-1.57.27-.32.27-.87.41-1.31.07-.22.2-.42.24-.64.07-.42.48-.39.71-.49.27-.11.45.19.55.49.23.69.48,1.37.75,2.05.15.39.37.76.48,1.16.06.21.02.5-.08.7-.09.18-.81.05-.99-.16-.07-.08-.1-.21-.17-.3-.45-.69-.86-.73-1.23-.02-.2.39-.39.58-.96.53Zm2.16-1.85c-.34-.3-.53-.48-.73-.62-.03-.02-.24.12-.23.17.03.2-.18.53.23.56.17.01.35-.05.73-.11Z" style="stroke-width: 0px;"/>
  <path d="m119.93,54.33c-.38.03-.54-.18-.72-.5-.41-.72-.9-.76-1.2-.04-.25.59-.63.56-1.07.53-.31-.02-.38-.28-.21-.65.49-1.05.94-2.11,1.25-3.23.03-.11.03-.29.1-.32.24-.12.5-.26.75-.26.13,0,.32.25.39.42.21.54.41,1.08.54,1.66.13.59.49,1.12.71,1.7.05.14.42.23.12.46-.12.09-.26.17-.4.23-.07.03-.16,0-.25,0Zm-.73-1.87c-.35-.3-.54-.46-.73-.63-.08.1-.22.2-.23.32-.02.17-.1.44.23.43.17,0,.35-.05.73-.12Z" style="stroke-width: 0px;"/>
  <path d="m101.98,52.23c-.14-.52.25-1.22-.24-1.81-.03-.03.13-.32.21-.33.75-.03,1.5-.04,2.25,0,.17.01.33.26.49.4-.33.05-.03.62-.49.59-.33-.02-.67-.02-1,0-.08,0-.2.14-.2.22,0,.09.09.24.17.26.2.04.42.04.62,0,.42-.06.46.16.46.5,0,.35-.04.57-.46.5-.12-.02-.25-.02-.37,0-.15.03-.29.09-.43.14.09.17.15.42.29.49.19.09.45.08.66.02.51-.13.73-.02.8.45.07.56.01.63-.55.64-.04,0-.08,0-.12,0-.66-.01-1.32-.02-1.98-.04-.03,0-.08-.06-.08-.08,0-.62,0-1.25,0-1.97Z" style="stroke-width: 0px;"/>
  <path d="m148.3,73.31c-.71.12-1.03-.3-1.43-.91-.71-1.09-.37-2.04.15-2.97.28-.5.86-.66,1.47-.62.55.04.94.27,1.14.79.12.32.29.64.33.98.06.52-.42.95-.82.7-.36-.23-.68-.22-1.04-.21-.21,0-.56-.18-.61.18-.04.26,0,.59.13.8.37.61.65.63,1.28.21.13-.08.27-.17.41-.2.19-.03.4-.05.42.27.03.47-.18.87-.63.96-.24.05-.49,0-.79,0Zm-.05-2.67c.2-.11.43-.19.59-.34.08-.07.11-.31.05-.41-.15-.27-.44-.44-.72-.3-.27.13-.46.41-.69.63.06.06.11.14.18.17.17.09.35.15.58.25Z" style="stroke-width: 0px;"/>
  <path d="m123.3,39.59c-.17,0-.33-.01-.5,0-.28.02-.35-.11-.34-.36.03-.4-.1-.81.33-1.12.12-.09.16-.35.16-.54.02-.91.02-1.82,0-2.73,0-.18-.05-.44-.18-.53-.43-.31-.29-.72-.32-1.12-.02-.27.09-.37.35-.34.08,0,.17,0,.25,0,1.2-.01,1.26.08.94,1.34-.04.15-.04.32-.04.48,0,.95-.01,1.9,0,2.85,0,.22.07.51.21.64.36.34.35.73.2,1.11-.18.44-.62.31-.97.32-.04,0-.08,0-.12,0Z" style="stroke-width: 0px;"/>
  <path d="m93.98,71.08c-.07-.94.24-1.65,1.18-2.1.94-.45,1.82.03,2.06,1.08.02.08.02.17,0,.25-.07.25.75.54-.08.78-.34.1-.59.34-.97.07-.17-.12-.47-.06-.7-.11-.34-.07-.63.11-.7.36-.06.21.07.53.21.74.12.17.37.3.58.35.15.03.34-.11.51-.18.14-.06.31-.09.42-.18.3-.24.44,0,.61.17.27.26.08.44-.12.6-.58.46-1.33.61-1.91.3-.6-.32-1.13-.92-1.1-1.75,0-.12,0-.25,0-.39Zm1.96-.51c.1-.06.29-.19.48-.31-.1-.15-.19-.31-.32-.43-.11-.11-.25-.2-.39-.25-.34-.11-.54.13-.71.36-.12.16.17.58.43.63.12.02.25,0,.51,0Z" style="stroke-width: 0px;"/>
  <path d="m124.18,54.33c-.44-.01-.87.08-1.23-.36-.38-.47-.79-.9-.74-1.56.03-.43-.13-.9.25-1.26-.09-.81.6-1.02,1.09-1.24.54-.24,1.18-.14,1.72.17.21.12.27.92.08.93-.26.02-.41.48-.79.09-.47-.49-.75-.35-1.12.2-.38.58-.26,1.13.03,1.65.18.34.51.53.92.31.1-.05.19-.15.3-.18.39-.08.73.19.76.57.03.36-.18.63-.54.67-.25.03-.5,0-.74,0Z" style="stroke-width: 0px;"/>
  <path d="m97.98,52.58c0-.29-.02-.58,0-.87.03-.42,0-.74-.57-.63-.17.03-.42.09-.45-.25-.01-.13-.24-.31-.2-.38.09-.18.3-.29.41-.45.23-.32.3.08.45.08.7.01,1.41,0,2.11,0,.23,0,.54-.09.48.33-.04.27.21.66-.39.69-.79.04-1.14.45-.81,1.06.27.5.17.94.2,1.41.03.53-.18.72-.68.76-.51.04-.54.01-.55-.51,0-.41,0-.83,0-1.24Z" style="stroke-width: 0px;"/>
  <path d="m147.46,52.04c0-.62.02-1.24,0-1.86-.02-.41.25-.39.48-.33.26.06.57.15.71.33.16.21-.06.5-.11.75-.13.63-.07,1.3-.06,1.96,0,.06.15.17.24.18.2.03.41,0,.62,0q.62.01.62.56c0,.68,0,.68-.63.68-.45,0-.92-.05-1.36.01-.51.07-.53-.18-.52-.57.03-.58,0-1.16,0-1.74Z" style="stroke-width: 0px;"/>
  <path d="m88.48,52.26c0-.58-.01-1.16,0-1.74.01-.47.25-.7.64-.69.38,0,.6.26.6.73.01,1.12,0,2.23,0,3.35,0,.3-.05.47-.4.43-.16-.02-.33-.02-.5,0-.25.02-.37-.06-.36-.34.01-.58,0-1.16,0-1.74Z" style="stroke-width: 0px;"/>
  <path d="m128.72,52.34c0,.5-.05,1,.01,1.49.07.52-.19.52-.57.51-.68-.02-.69,0-.69-.63,0-.95,0-1.9,0-2.85,0-.17-.02-.33,0-.5.04-.32.23-.51.56-.52.19,0,.69.48.69.64,0,.62,0,1.24,0,1.86Z" style="stroke-width: 0px;"/>
  <path d="m124.22,30.88c-.04.56-.29.77-.88.71-.46-.04-.65-.32-.61-.85.03-.42.33-.69.7-.65.56.07.83.34.8.79Z" style="stroke-width: 0px;"/>
</svg>