<?xml version="1.0" encoding="UTF-8"?>
<svg id="Capa_1" data-name="Capa 1" xmlns="http://www.w3.org/2000/svg" viewBox="0 0 184.91 112.94">
  <path d="m56.54,73.38c1.36,1.04,2.54,2.02,3.8,2.86.75.5,1.61.86,2.47,1.14.96.31,1.47-.22,1.65-1.17.3-1.62.86-3.23.9-4.86.03-1.29-.26-2.76-.9-3.86-1.01-1.71-2.56-3.1-3.67-4.77-.83-1.25-1.29-2.75-1.99-4.09-.44-.85-1.04-1.62-1.53-2.46-.36-.62-.64-1.29-1-1.92-.53-.91-1.1-1.79-1.65-2.69-1.01-1.66-2.04-3.31-2.99-5.01-.18-.32,0-.84,0-1.27.34.05.76-.02,1.02.15,1.54,1.05,3.16,2.03,4.54,3.27,2.04,1.82,3.97,3.77,5.79,5.81.64.71.99,1.79,1.17,2.77.37,1.9,3.6,4.09,5.36,3.4.48-.19.94-.64,1.21-1.09,1.43-2.4,1.93-5.11,2.45-7.8.4-2.08,1.98-3.41,3.92-3.25,1.78.15,2.98,1.77,3.05,3.88.15,4.17.65,8.25,2.5,12.1,1.89,3.93,6.06,5.44,9.76,5.16,6.99-.53,14.02-.87,21.03-.86,3.35,0,6.5-.85,9.75-1.17,3.42-.34,6.84-.74,10.26-1.1.33-.03.69-.07.99.02.32.1.59.36.88.54-.21.29-.39.79-.64.83-1.62.28-2.81,1.26-4.14,2.11-.97.62-2.37.68-3.59.75-1.04.06-1.74.28-2.38,1.2-.52.75-1.4,1.28-2.19,1.8-.78.52-1.61.37-2.02-.47-.46-.94.45-1.03,1.03-1.29.22-.1.39-.28.78-.56-.38-.21-.62-.44-.88-.47-1.28-.16-2.56-.25-3.84-.4-.64-.08-1.26-.24-1.88-.37-.6.24-1.25.49-1.89.75-.38.15-.88.21-1.13.48-1.03,1.16-2.25,1.04-3.64.94-1.17-.08-2.38.42-3.6.67.56,1.21,1.39,1.43,2.33,1.07.61-.23,1.48-.23,2.07.04,2.3,1.07,4.59,1.21,7.02.54.66-.18,1.58-.08,2.17.25.79.44.83,1.32-.05,1.78-1.95,1.01-3.49,2.89-5.94,2.87-.26,0-.58.17-.77.37-1.03,1.04-2.07.84-3.14.09-.61-.43-1.15-.44-1.79.04-1.26.95-2.12.87-3.31-.16-.31-.27-.59-.6-.92-.84-.85-.61-1.57-.65-2.31.3-.55.7-1.29,1.3-2.05,1.78-1.2.77-2.48.51-3.45-.54-.45-.48-.9-.95-1.43-1.5-2.3,1.83-4.7,3.13-7.7,1.75-.13,1.93-.11,3.8-.42,5.62-.19,1.07-.8,2.12-1.39,3.06-.64,1.02-.41,1.91.31,2.59,3.71,3.49,6.02,8,8.86,12.12,1.29,1.88,2.7,3.68,4.06,5.51,1.26,1.7.95,2.5-1.08,2.86-2.58.46-4.96.27-7.14-1.48-1.27-1.02-2.79-1.74-4.24-2.52-.52-.28-1.18-.28-1.75-.49-.77-.28-1.56-.58-2.27-.98-1.22-.69-2.34-1.57-3.59-2.2-1.8-.9-3.13-2.29-4.45-3.74-.58-.64-1.43-1.04-2.16-1.55-.44-.31-.91-.58-1.3-.94-1.88-1.74-3.7-3.55-5.62-5.24-1.01-.89-2.2-1.57-3.25-2.42-.41-.33-.63-.88-.98-1.3-.29-.35-.59-.71-.95-.96-1.19-.81-2.33-1.62-2.34-3.29,0-.35-.2-.72-.37-1.05-1.5-2.75-1.07-5.51-.08-8.3.31-.87.42-1.8.66-2.89Zm18.95-23.36c0,1.31,1.22,2.9,1.87,2.65.55-.21,1.22-.81,1.34-1.35.24-1.1-.86-2.04-2.14-1.92-.43.04-.83.47-1.07.62Zm1.43,6.14c.44-.66.76-1.15,1.27-1.92-.82-.05-1.37-.08-2.1-.13.32.8.52,1.29.83,2.05Z" style="stroke-width: 0px;"/>
  <path d="m27.93,16.7c.33.19.7.34.98.59.83.77,1.77.91,2.87.84.83-.06,1.7.14,2.51.39.3.09.67.61.68.95.06,1.71,1.28,2.58,2.41,3.51.41.34.89.59,1.34.89-2.28,2.14-2.37,3.6-.57,5.78,1.19,1.44,2.53,2.77,3.73,4.21.28.33.25.93.36,1.4-.44-.04-1,.08-1.29-.15-1.99-1.61-3.93-3.29-5.86-4.96-.81-.7-.66-1.55-.21-2.37.56-1,.41-1.62-.64-1.92-2.24-.64-3.31-2.44-4.37-4.27-.35-.6-.85-1.13-1.16-1.75-.46-.92-.81-1.9-1.2-2.86.13-.09.27-.18.4-.27Z" style="stroke-width: 0px;"/>
  <path d="m141.01,65.14c1.34-.37,2.67-.76,4.01-1.12,4.74-1.3,9.37-2.89,13.65-5.34,1.29-.74,2.44-1.69,3.71-2.46.37-.22.91-.16,1.36-.23-.07.44-.03.95-.24,1.32-1.81,3.32-4.92,5.08-8.29,6.16-2.73.88-5.68,1.08-8.54,1.56-1.43.24-2.86.43-4.3.61-.42.05-.85,0-1.27,0-.03-.17-.07-.35-.1-.52Z" style="stroke-width: 0px;"/>
  <path d="m29.34,15.62c-2.92-1.7-4.49-4.38-6.31-6.79-1.99-2.64-1.03-5.9-1.8-8.83,1.81.27,3.2,1.98,3.17,3.68,0,.44.31.93.57,1.32,1.02,1.51,2.1,2.98,3.12,4.49.2.29.27.69.34,1.05.29,1.55.56,3.11.91,5.07Z" style="stroke-width: 0px;"/>
  <path d="m77.9,16.25c.41-.02.81-.05,1.39-.08v3.29h2.79v-3.21h1.35v8.01h-1.29v-3.4h-2.82v3.42h-1.42v-8.03Z" style="stroke-width: 0px;"/>
  <path d="m75.49,16.81c-.44.91-.81,1.24-1.55.73-.25-.17-.64-.21-.96-.2-1.26.07-2.05,1.23-2.05,2.96,0,1.77.74,2.87,2.02,2.98,1.09.09,1.32-.3,1.19-1.97-.44-.35-1.76.18-1.2-1.26h2.6c0,1.08.05,2.14-.03,3.2-.02.29-.38.74-.64.78-.99.17-2.06.46-3,.25-1.88-.42-2.83-2.6-2.4-5,.35-2,1.79-3.32,3.68-3.19.77.05,1.51.45,2.34.71Z" style="stroke-width: 0px;"/>
  <path d="m67.14,16.26v1.13c-.61.05-1.21.1-1.87.15v5.39c.57.62,2.16-.53,1.85,1.34-1.74,0-3.47,0-5.2,0q-.21-.98,1.74-1.22v-5.5c-.6-.04-1.17-.09-1.83-.13-.03-.37-.06-.71-.1-1.15h5.4Z" style="stroke-width: 0px;"/>
  <path d="m45.99,16.25h5.07v1.2h-3.59v2.3h2.91c.39,1.1-.08,1.31-.92,1.26-.65-.04-1.31,0-2.09,0v3.28h-1.39v-8.02Z" style="stroke-width: 0px;"/>
  <path d="m92.19,16.25c-.09,2.17-1.84.67-2.6,1.57v6.47c-.5.02-.89.04-1.45.07v-6.81c-.92-.05-1.7-.09-2.56-.13-.02-.4-.03-.75-.05-1.17h6.66Z" style="stroke-width: 0px;"/>
  <path d="m54.07,24.27v-8.02c.43-.03.83-.05,1.4-.08v6.98c1.11,0,2.06-.02,3.01,0,.84.02.84.04.78,1.12h-5.19Z" style="stroke-width: 0px;"/>
  <path d="m41.64,36.53c2.74,1.16,4.48,3.32,5.94,5.76-.06.1-.12.2-.18.3-.28-.09-.61-.1-.84-.27-1.58-1.15-3.41-2.02-4.53-3.71-.36-.55-.51-1.24-.75-1.86.12-.07.24-.14.37-.22Z" style="stroke-width: 0px;"/>
</svg>