<?xml version="1.0" encoding="UTF-8"?>
<svg id="Capa_1" data-name="Capa 1" xmlns="http://www.w3.org/2000/svg" viewBox="0 0 184.91 112.94">
  <path d="m72.72,51.28c2.71,0,5.28-.03,7.84.04.24,0,.61.61.67.98.87,5.19-.54,9.63-4.45,13.22-.18.16-.35.33-.79.75.44.3.86.5,1.18.82,5.52,5.47,6.82,13.8,3.27,20.63-.41.8-.88,1.14-1.82,1.12-2.96-.07-5.91-.02-8.87-.02h-1.23c6.01-4.92,7.31-9.88,3.98-14.81-1.75-2.6-4.24-4.06-7.36-4.41-3.12-.35-5.77.78-8.34,2.97,0-2,.06-3.69-.03-5.38-.03-.59-.3-1.31-.71-1.7-4.36-4.19-5.78-10.32-3.63-16.09,2.05-5.52,7.41-9.48,13.28-9.59,5.83-.11,11.65-.02,17.59-.02v7.75c-.48.03-.96.08-1.44.08-5.08,0-10.17-.04-15.25.02-4.99.05-8.35,4.55-6.9,9.13,1.2,3.78,5.23,5.82,9,4.56,3.69-1.23,5.67-5.28,4.4-8.98-.11-.31-.23-.62-.41-1.07Z" style="stroke-width: 0px;"/>
  <path d="m125.53,70.51h-7.62c-.03-.42-.09-.81-.09-1.2,0-11.58-.03-23.16,0-34.74.02-5.9,3.36-10.23,8.77-11.09,2.1-.33,4.31-.05,6.54-.05v6.93c-1.08,0-2.11-.02-3.14,0-2.75.07-4.43,1.75-4.48,4.48-.03,1.61,0,3.23,0,4.97h7.63v7.68h-7.62v23.03Z" style="stroke-width: 0px;"/>
  <path d="m106.39,70.48h-7.67c-.02-.47-.06-.88-.06-1.28,0-11.54-.02-23.09,0-34.63.01-5.89,3.34-10.22,8.77-11.08,2.1-.34,4.3-.05,6.52-.05v6.92c-.95,0-1.88-.01-2.82,0-3.15.04-4.74,1.66-4.76,4.82,0,1.5,0,2.99,0,4.64h7.57v7.7h-7.55v22.97Z" style="stroke-width: 0px;"/>
  <path d="m95,70.47h-7.69v-30.54h7.69v30.54Z" style="stroke-width: 0px;"/>
  <path d="m91.13,28.29c2.14,0,3.82,1.65,3.83,3.76.01,2.16-1.74,3.9-3.89,3.86-2.08-.04-3.81-1.79-3.79-3.86.02-2.1,1.72-3.77,3.85-3.77Z" style="stroke-width: 0px;"/>
</svg>