<?xml version="1.0" encoding="UTF-8"?>
<svg id="Capa_1" data-name="Capa 1" xmlns="http://www.w3.org/2000/svg" viewBox="0 0 184.91 112.94">
  <path d="m25.76,69.66c1.28-2.47,1.32-4.68.62-6.94-.2-.63-.46-1.26-.8-1.83-1.72-2.92-2.3-6.08-2.38-9.44-.17-6.53-.48-13.05-.73-19.58,0-.2.05-.39.1-.79.38.23.67.34.88.54.6.57,1.14,1.22,1.76,1.77,1.09.95,1.43,2.13,1.45,3.56.07,5.07.14,10.15.41,15.21.09,1.74.72,3.47,1.18,5.18.12.44.51.8.93,1.42.35-.68.58-1.14.81-1.59,1.91-3.64,3.78-7.3,5.74-10.91.71-1.3.98-1.27,2.04-.24,1.62,1.56,1.6,1.55.47,3.51-4.75,8.23-7.6,17.07-8.43,26.54-.13,1.52-.03,3.08.07,4.61.07.94-.11,1.41-1.17,1.36-1.37-.06-2.75-.06-4.12,0-.95.04-1.23-.35-1.2-1.25.23-6.5-2.09-12.04-6.4-16.82-.66-.73-.69-1.28.04-2.01,1.86-1.85,1.94-1.96,3.55.07,1.61,2.05,2.98,4.28,4.45,6.44.2.29.37.6.73,1.18Z" style="stroke-width: 0px;"/>
  <path d="m123.43,73.27v7.99h-1.63v-3.99c-.08,0-.17-.01-.25-.02-.22,1-.51,1.99-.65,3-.14.96-.55,1.32-1.6.98-.28-1.22-.58-2.49-.88-3.77-.08,0-.15,0-.23,0v3.84h-1.63v-8.02c.11-.06.18-.13.25-.13q2.04-.13,2.49,1.84c.17.77.36,1.54.54,2.3,0,.02.05.04.2.15.22-.88.44-1.71.64-2.54q.49-2.03,2.75-1.64Z" style="stroke-width: 0px;"/>
  <path d="m73.06,53.65c-1.14.42-1.8.06-2.2-1.07-.35-.97-.87-1.87-1.54-2.79v3.91h-1.67v-7.96c1.74-.45,1.83-.41,2.53,1.14.33.73.67,1.47,1.25,2.14v-3.38h1.63v8Z" style="stroke-width: 0px;"/>
  <path d="m94.75,59.33h1.69v8.06c-1.1.36-1.77.08-2.16-1.01-.35-.97-.87-1.88-1.54-2.82v3.87h-1.69v-8.02c1.25-.38,2.15-.19,2.56,1.23.2.71.61,1.35,1.15,2.02v-3.33Z" style="stroke-width: 0px;"/>
  <path d="m102.2,49.85v3.86h-1.63v-8.02c1.35-.44,2.18-.06,2.58,1.29.21.7.6,1.35,1.14,2.03v-3.38h1.68v8.04c-1.06.35-1.77.14-2.18-1.02-.35-.97-.87-1.88-1.31-2.82l-.28.02Z" style="stroke-width: 0px;"/>
  <path d="m95.95,81.23c-1.2.4-1.83-.05-2.22-1.14-.34-.93-.84-1.81-1.47-2.71v3.89h-1.69v-8.03c1.15-.3,2.08-.32,2.49,1.12.22.79.67,1.52,1.22,2.28v-3.43h1.67v8.02Z" style="stroke-width: 0px;"/>
  <path d="m142.07,53.75h-1.67v-8.06c1.34-.42,2.19-.07,2.59,1.29.22.73.62,1.41,1.2,2.07v-3.43h1.58v8.04c-1.12.42-1.77.03-2.18-1.07-.36-.97-.87-1.88-1.53-2.79v3.95Z" style="stroke-width: 0px;"/>
  <path d="m170.82,73.21v7.98c-1.11.4-1.81.14-2.23-1.01-.36-.99-.89-1.92-1.57-2.81v3.88h-1.62v-8.02c1.24-.36,2.12-.18,2.52,1.2.22.77.65,1.48,1.24,2.16v-3.38h1.66Z" style="stroke-width: 0px;"/>
  <path d="m155.72,59.32h1.69v8.06c-1.07.35-1.76.12-2.16-.98-.37-1-.9-1.94-1.61-2.89v3.92h-1.6v-8.02c1.28-.39,2.15-.11,2.54,1.28.2.71.61,1.36,1.13,2.04v-3.41Z" style="stroke-width: 0px;"/>
  <path d="m140.34,81.22c-1.97.28-1.96.28-2.51-1.46-.16-.52-.39-1.01-.58-1.52-.16.03-.31.07-.47.1-.04.96-.09,1.92-.13,2.94h-1.8v-8.1c1.09,0,2.16-.11,3.21.02,1.81.22,2.72,1.98,1.73,3.51-.58.89-.46,1.56-.14,2.39.26.69.46,1.4.69,2.12Zm-3.57-4.5c1.05.13,1.45-.33,1.35-1.19-.1-.88-.7-.8-1.35-.67v1.86Z" style="stroke-width: 0px;"/>
  <path d="m62.35,67.51v-8.21c1.75.13,3.72-.65,4.84,1.21,1.06,1.78,1,3.82.01,5.62-1.05,1.92-3.02,1.29-4.85,1.38Zm1.95-1.82c1.34-.13,1.75-.87,1.57-2.81-.08-.91-.07-2-1.57-1.79v4.59Z" style="stroke-width: 0px;"/>
  <path d="m91.98,45.59c1.09,0,2.09-.07,3.07.02,1.8.16,2.87,1.93,1.87,3.43-.69,1.04-.4,1.81-.1,2.72.21.63.42,1.25.64,1.88-1.96.35-1.95.35-2.53-1.5-.16-.51-.43-.98-.65-1.47-.14.05-.29.1-.43.14v2.88h-1.86v-8.1Zm1.82,3.87c.62-.38,1.12-.53,1.32-.87.16-.28.09-.89-.13-1.13-.22-.24-.74-.21-1.19-.31v2.3Z" style="stroke-width: 0px;"/>
  <path d="m131.15,49.71c.1-.76.14-1.47.3-2.15.35-1.44,1.27-2.16,2.65-2.17,1.38-.01,2.44.69,2.65,2.13.2,1.41.19,2.89-.01,4.3-.2,1.42-1.18,2.08-2.53,2.11-1.4.04-2.33-.63-2.71-2.07-.19-.71-.24-1.47-.35-2.16Zm3.95-.03c-.07-.66-.07-1.34-.23-1.97-.07-.28-.48-.65-.74-.66-.26,0-.73.4-.74.64-.07,1.31-.07,2.63,0,3.94.01.25.48.65.73.65.26,0,.67-.37.74-.65.17-.63.17-1.3.23-1.96Z" style="stroke-width: 0px;"/>
  <path d="m180.03,77.3c-.13.75-.19,1.5-.39,2.22-.38,1.33-1.35,2.04-2.65,2.02-1.27-.02-2.33-.65-2.52-1.97-.22-1.53-.23-3.13-.02-4.66.18-1.33,1.19-1.9,2.54-1.91,1.4,0,2.29.6,2.66,1.97.2.75.25,1.55.37,2.33Zm-2-.13c-.06-.52-.06-1.15-.24-1.73-.1-.33-.48-.58-.74-.86-.28.3-.77.59-.8.92-.1,1.14-.11,2.3-.01,3.45.03.34.49.64.75.96.29-.34.7-.64.85-1.03.18-.49.13-1.06.19-1.7Z" style="stroke-width: 0px;"/>
  <path d="m105.17,77.35c-.12.7-.18,1.5-.4,2.25-.38,1.28-1.32,1.94-2.58,1.93-1.32,0-2.4-.7-2.6-2.05-.21-1.41-.23-2.89-.06-4.31.17-1.46,1.17-2.15,2.59-2.18,1.45-.02,2.34.61,2.72,2.06.19.72.21,1.47.32,2.3Zm-3.99-.1c.08.66.1,1.33.28,1.95.08.28.48.65.74.64.26,0,.72-.4.73-.64.07-1.31.07-2.63,0-3.94-.01-.25-.48-.64-.74-.64-.25,0-.65.38-.73.67-.18.63-.19,1.3-.28,1.96Z" style="stroke-width: 0px;"/>
  <path d="m130.53,63.41c-.14.76-.21,1.55-.43,2.3-.39,1.33-1.23,1.91-2.57,1.91-1.35,0-2.34-.54-2.55-1.89-.24-1.52-.25-3.13-.05-4.66.18-1.35,1.3-2,2.64-1.98,1.31.02,2.2.66,2.56,1.96.21.75.27,1.55.4,2.36Zm-4.04-.02c.08.64.09,1.28.27,1.86.1.32.47.66.79.76.16.05.68-.42.7-.67.07-1.31.06-2.63-.01-3.94-.01-.24-.49-.64-.74-.63-.25,0-.64.39-.72.68-.18.63-.2,1.3-.28,1.95Z" style="stroke-width: 0px;"/>
  <path d="m154.71,53.73h-1.9c-.14-.56-.27-1.07-.42-1.63h-1.49c-.13.58-.24,1.09-.37,1.64h-1.86c.21-1.01.39-1.97.59-2.91.22-1.06.47-2.11.69-3.17q.47-2.22,2.95-2.03c.58,2.61,1.17,5.27,1.8,8.1Z" style="stroke-width: 0px;"/>
  <path d="m111.97,40.01h-1.92c-.13-.56-.25-1.07-.36-1.56-1.65-.71-1.66.55-1.89,1.55h-1.87c.55-2.59,1.06-5.1,1.64-7.59.06-.24.49-.51.77-.55.56-.09,1.15-.03,1.81-.03.61,2.74,1.19,5.4,1.81,8.18Z" style="stroke-width: 0px;"/>
  <path d="m103.5,59.35h1.81c0,2.13.11,4.21-.04,6.26-.1,1.49-1.15,2.09-2.91,2.01-1.48-.07-2.31-.75-2.37-2.18-.08-1.99-.02-3.98-.02-6.06h1.86c0,1.72-.01,3.41,0,5.1,0,.64-.17,1.51.8,1.53.97.02.85-.83.86-1.48,0-1.7,0-3.39,0-5.17Z" style="stroke-width: 0px;"/>
  <path d="m156.43,81.23c.54-2.55,1.03-5.07,1.66-7.55.07-.29.91-.52,1.39-.53.43,0,1.17.26,1.24.55.64,2.49,1.15,5,1.72,7.59h-1.89c-.14-.53-.27-1.04-.42-1.63h-1.48c-.11.51-.21.99-.33,1.57h-1.9Z" style="stroke-width: 0px;"/>
  <path d="m112.7,52.08h-1.44c-.13.54-.25,1.05-.4,1.63h-1.87c.58-2.73,1.16-5.41,1.73-8.1h2.51c.6,2.7,1.18,5.36,1.79,8.11h-1.88c-.14-.52-.29-1.07-.45-1.64Zm-.22-1.82c-.15-.78-.29-1.47-.42-2.16q-.63,2.16.42,2.16Z" style="stroke-width: 0px;"/>
  <path d="m111.26,79.62h-1.43c-.13.53-.26,1.04-.41,1.64h-1.87c.59-2.73,1.16-5.39,1.73-8.03q2.49-.33,2.96,1.93c.43,1.99.87,3.98,1.33,6.08h-1.9c-.13-.52-.25-1.03-.4-1.63Zm-.8-4.19c-.18,1.01-.3,1.69-.42,2.38,1.12.14,1.14.07.42-2.38Z" style="stroke-width: 0px;"/>
  <path d="m69.18,81.19c.53-2.51,1.06-4.99,1.59-7.47.21-.96,1-.6,1.53-.57.42.03,1.11.32,1.18.63.63,2.46,1.14,4.94,1.71,7.5h-1.88c-.13-.48-.26-.99-.42-1.6h-1.54c.08,1.41-.56,2.04-2.17,1.51Zm3.04-5.57l-.2.05c-.09.52-.23,1.05-.25,1.58,0,.24.23.48.35.73.14-.23.4-.46.38-.68-.03-.56-.18-1.12-.28-1.67Z" style="stroke-width: 0px;"/>
  <path d="m71.8,38.41h2.61v1.59h-4.53v-8.05h4.44v1.54h-2.53v1.52c.59.04,1.16.07,1.83.12v1.48c-.59.05-1.16.09-1.81.14v1.66Z" style="stroke-width: 0px;"/>
  <path d="m101.09,36.57c.3-1.53.59-3.05.91-4.65h2.01c-.61,2.6-1.16,5.18-1.87,7.71-.08.27-1.04.39-1.6.4-.28,0-.74-.36-.81-.64-.62-2.45-1.16-4.93-1.75-7.48h2.04c.27,1.52.55,3.07.82,4.61.08.02.17.04.25.05Z" style="stroke-width: 0px;"/>
  <path d="m8.31,77.52c.25,0,.5,0,.75,0,2.51,0,3.28,1,2.5,3.46-.13.42-.77.92-1.21.96-1.35.12-2.73.05-4.09,0-.78-.02-1.16-.48-1.25-1.27-.33-2.91-.09-3.15,3.3-3.15Z" style="stroke-width: 0px;"/>
  <path d="m116.07,59.42q1.97-.34,2.3,1.47c.19,1.04.37,2.09.79,3.12.29-1.52.58-3.04.89-4.64h2.03c-.6,2.54-1.21,5-1.75,7.47-.19.89-.84.73-1.34.64-.43-.07-1.09-.35-1.18-.67-.64-2.45-1.17-4.92-1.74-7.39Z" style="stroke-width: 0px;"/>
  <path d="m8.28,70.24h-.5c-2.81,0-3.23-.47-2.7-3.31.08-.42.69-1,1.1-1.04,1.4-.13,2.83-.13,4.23,0,.41.04,1.02.6,1.1,1.01.59,2.99.2,3.35-3.23,3.35Z" style="stroke-width: 0px;"/>
  <path d="m8.23,46.98c-.37,0-.75,0-1.12,0-1.95.02-2.12-.15-2.12-2.13,0-2.04.23-2.27,2.3-2.28.62,0,1.25,0,1.87,0,2.23.01,3.33,1.8,2.29,3.81-.17.32-.71.56-1.11.62-.69.1-1.41.03-2.11.03v-.05Z" style="stroke-width: 0px;"/>
  <path d="m45.85,65.83c.37,0,.75,0,1.12,0,1.95.03,2.12.19,2.12,2.16,0,2.16-.08,2.24-2.23,2.25-1.04,0-2.08.03-3.12.03-.87,0-1.23-.44-1.28-1.33-.14-3.09-.16-3.09,3.39-3.11Z" style="stroke-width: 0px;"/>
  <path d="m108.88,59.32h4.49c.02.47.04.9.07,1.49-.9.06-1.74.11-2.65.17v1.46c.62.05,1.22.1,1.88.16v1.44c-.62.04-1.19.08-1.85.12v1.69h2.64v1.57h-4.58v-8.08Z" style="stroke-width: 0px;"/>
  <path d="m71.15,59.32h4.48c.02.46.04.89.07,1.49-.9.05-1.74.1-2.65.15v1.47c.6.04,1.2.09,1.87.14v1.44c-.6.04-1.17.08-1.84.12v1.67h2.62v1.63h-4.56v-8.12Z" style="stroke-width: 0px;"/>
  <path d="m45.77,47.03c-.17,0-.33,0-.5,0-2.93-.04-3-.14-2.83-3.04.05-.94.5-1.39,1.38-1.4,1.33-.02,2.65.02,3.98.05.86.02,1.21.48,1.29,1.34.25,2.91.02,3.14-3.32,3.05Z" style="stroke-width: 0px;"/>
  <path d="m8.29,58.68c-.12,0-.25,0-.37,0-3.19.09-2.98-.11-2.84-3.35.02-.37.69-.98,1.1-1.02,1.45-.12,2.91-.09,4.36-.01.35.02.92.44.96.74.12.93.15,1.91-.02,2.83-.06.34-.75.71-1.2.81-.64.14-1.32.03-1.99.03v-.03Z" style="stroke-width: 0px;"/>
  <path d="m45.71,77.56c.29,0,.59-.04.87,0,.78.14,2.08.12,2.22.51.34.95.21,2.1.11,3.16-.02.25-.67.62-1.05.64-1.41.08-2.82.03-4.23.03-.78,0-1.07-.46-1.16-1.18-.36-2.97-.17-3.17,3.24-3.17Z" style="stroke-width: 0px;"/>
  <path d="m8.27,35.38c-.21,0-.41,0-.62,0-2.55,0-3.35-1.06-2.56-3.52.12-.38.74-.81,1.16-.84,1.36-.1,2.73-.04,4.1-.03.8,0,1.21.45,1.3,1.22,0,.04.01.08.02.12.33,2.62-.05,3.05-2.65,3.05-.25,0-.5,0-.75,0Z" style="stroke-width: 0px;"/>
  <path d="m82.44,33.72c-.78.28-1.46.66-2.01-.28-.08-.13-.58-.02-.89-.03,0,.3-.12.7.03.89.27.34.7.57,1.06.83.37.26.79.47,1.13.77.9.8,1.15,2.06.65,3.06-.45.91-1.66,1.43-2.9,1.24-1.27-.19-1.8-.74-2.03-2.16.7-.17,1.4-.78,1.97.33.1.18.71.1,1.09.14,0-.37.09-.77-.01-1.11-.07-.23-.4-.4-.64-.56-.34-.23-.72-.42-1.06-.65-1.11-.77-1.58-1.93-1.23-3,.37-1.12,1.26-1.48,2.33-1.5,1.35-.03,2.02.51,2.5,2.02Z" style="stroke-width: 0px;"/>
  <path d="m45.76,58.72c-.17,0-.33,0-.5,0-2.83-.08-3.1-.39-2.81-3.24.08-.79.41-1.22,1.25-1.21,1.37.01,2.74,0,4.11,0,.81,0,1.18.43,1.26,1.23.29,2.95.03,3.21-3.32,3.23Z" style="stroke-width: 0px;"/>
  <path d="m45.7,35.38c-.21,0-.42,0-.62,0-2.48,0-3.35-1.19-2.52-3.57.12-.36.69-.76,1.08-.79,1.41-.09,2.84-.13,4.24.02.43.04.8.73,1.19,1.13.02.02,0,.08.01.12.25,3,.16,3.08-3.38,3.09Z" style="stroke-width: 0px;"/>
  <path d="m153.88,75.68c-.8.08-1.55.59-1.99-.6-.25-.68-1.05-.63-1.14.07-.18,1.37-.1,2.78-.07,4.18,0,.18.38.48.6.49.22,0,.5-.24.66-.44.17-.22.23-.52.37-.86.54.05,1.05.1,1.57.16-.16,1.85-.97,2.76-2.44,2.86-1.43.1-2.5-.68-2.74-2.31-.19-1.29-.19-2.66.02-3.94.26-1.63,1.29-2.33,2.79-2.27,1.46.06,2.07.72,2.36,2.68Z" style="stroke-width: 0px;"/>
  <path d="m86.07,50.45v1.66c.48,0,.92,0,1.36,0,.41,0,.82,0,1.32,0v1.6h-4.52v-8.07h4.41v1.51c-.8.04-1.61.08-2.52.12v1.46c.56.03,1.17.07,1.84.1v1.45c-.6.05-1.2.11-1.89.17Z" style="stroke-width: 0px;"/>
  <path d="m122.91,48.12c-.58.07-1.06.13-1.59.19-.14-.31-.21-.6-.37-.83-.43-.62-1.09-.6-1.17.09-.18,1.37-.1,2.78-.06,4.17,0,.19.37.5.58.52.21.01.5-.24.66-.44.17-.22.23-.53.38-.91.5.06,1.02.13,1.53.19,0,1.68-.78,2.64-2.21,2.8-1.51.17-2.64-.52-2.88-2.09-.2-1.33-.21-2.73-.03-4.06.22-1.6,1.32-2.42,2.73-2.37,1.47.05,2.16.79,2.43,2.75Z" style="stroke-width: 0px;"/>
  <path d="m143.43,61.81c-.57.09-1.05.16-1.59.24-.14-.3-.22-.58-.38-.81-.48-.7-1.14-.62-1.24.13-.18,1.33-.09,2.7-.04,4.06,0,.2.38.57.56.55.27-.03.55-.28.74-.52.17-.21.22-.52.36-.86.55.09,1.07.17,1.58.25-.2,1.82-.95,2.67-2.35,2.77-1.58.12-2.59-.59-2.85-2.3-.19-1.25-.18-2.57,0-3.82.25-1.64,1.28-2.43,2.7-2.41,1.46.02,2.15.73,2.51,2.71Z" style="stroke-width: 0px;"/>
  <path d="m128.83,74.74v1.55c.6.03,1.2.06,1.87.1v1.53c-.62.05-1.19.09-1.85.14v1.59c.83.04,1.68.08,2.63.12v1.5h-4.52v-8.07h4.42v1.54h-2.56Z" style="stroke-width: 0px;"/>
  <path d="m161,67.43v-8.08h4.43v1.47c-.82.04-1.67.09-2.57.14v1.47c.6.04,1.17.08,1.85.13v1.47c-.58.03-1.15.06-1.81.1v1.68h2.66v1.62h-4.55Z" style="stroke-width: 0px;"/>
  <path d="m62.31,31.9h4.44v1.59h-2.56v1.51c.63.05,1.24.09,1.91.14v1.46c-.61.05-1.21.1-1.98.17v3.24h-1.82v-8.1Z" style="stroke-width: 0px;"/>
  <path d="m88.66,40.02h-1.89v-6.4c-.54-.07-.98-.13-1.48-.19v-1.52h4.78v1.51c-.44.06-.84.11-1.41.19v6.42Z" style="stroke-width: 0px;"/>
  <path d="m119.2,40h-4.34v-8.08h1.82v6.44h2.52v1.64Z" style="stroke-width: 0px;"/>
  <path d="m161.99,52.09v1.63h-4.35v-8.08h1.8v6.45h2.56Z" style="stroke-width: 0px;"/>
  <path d="m78.89,59.33h1.8v6.44c.91.04,1.71.08,2.57.12v1.52h-4.37v-8.08Z" style="stroke-width: 0px;"/>
  <path d="m79.61,53.73h-1.88v-6.38c-.56-.09-1-.17-1.49-.25v-1.46h4.79v1.49c-.43.05-.83.1-1.42.18v6.43Z" style="stroke-width: 0px;"/>
  <path d="m80.59,81.3h-1.87v-6.4c-.58-.07-.98-.12-1.47-.18v-1.52h4.75v1.53c-.47.05-.87.08-1.41.14v6.44Z" style="stroke-width: 0px;"/>
  <path d="m62.31,73.18h1.75v6.45c.92.06,1.73.11,2.6.17v1.46h-4.35v-8.07Z" style="stroke-width: 0px;"/>
  <path d="m87.12,81.3h-1.8v-8.12h1.8v8.12Z" style="stroke-width: 0px;"/>
  <path d="m64.17,53.73h-1.78v-8.08h1.78v8.08Z" style="stroke-width: 0px;"/>
  <path d="m93.36,31.89h1.78v8.11h-1.78v-8.11Z" style="stroke-width: 0px;"/>
  <path d="m145.15,81.31h-1.78v-8.09h1.78v8.09Z" style="stroke-width: 0px;"/>
  <path d="m126.28,53.74v-8.1h1.8v8.1h-1.8Z" style="stroke-width: 0px;"/>
  <path d="m148.54,59.37v8.05h-1.71v-8.05h1.71Z" style="stroke-width: 0px;"/>
</svg>