<?xml version="1.0" encoding="utf-8"?>
<!-- Generator: Adobe Illustrator 28.0.0, SVG Export Plug-In . SVG Version: 6.00 Build 0)  -->
<svg version="1.1" id="Capa_1" xmlns="http://www.w3.org/2000/svg" xmlns:xlink="http://www.w3.org/1999/xlink" x="0px" y="0px"
	 viewBox="0 0 512 512" style="enable-background:new 0 0 512 512;" xml:space="preserve">
<style type="text/css">
	.st0{display:none;}
	.st1{display:inline;}
</style>
<g class="st0">
	<path class="st1" d="M451.8,480c-130.3,0-260.6,0-390.9,0c-0.2-0.1-0.4-0.2-0.6-0.2c-13.5-1.7-23.7-10.6-27.2-23.7
		c-0.5-1.7-0.7-3.5-1.1-5.2c0-130.1,0-260.2,0-390.3c0.1-0.2,0.2-0.5,0.2-0.7c2.2-13.3,9.7-22.1,22.4-26.5c2.1-0.7,4.3-1,6.5-1.5
		c130.2,0,260.3,0,390.5,0c0.2,0.1,0.5,0.2,0.7,0.2c12.9,1.9,23.3,11.1,26.7,23.7c0.5,1.7,0.7,3.5,1.1,5.2c0,129.9,0,259.7,0,389.6
		c-0.1,0.2-0.2,0.5-0.2,0.7c-2,13.8-9.7,22.9-22.9,27.4C455.3,479.3,453.5,479.6,451.8,480z M243.5,186.3c-15.4,0-30.8,0-46.2,0
		c-2.7,21.1-5.5,42.2-8.2,63.3c-0.3-0.5-0.4-1.1-0.5-1.6c-1.6-10.9-3.1-21.9-4.7-32.8c-1.3-9.3-2.7-18.5-4-27.8
		c-0.1-0.9-0.4-1.2-1.4-1.2c-14.5,0-29.1,0-43.6,0c-0.4,0-0.8,0-1.2,0.1c0,45.8,0,91.5,0,137.2c10.4,0,20.7,0,31.1,0
		c0-29.8,0-59.4,0-89.1c0.3,0.5,0.4,0.9,0.5,1.4c2,13.9,4,27.8,6,41.7c2.2,15,4.3,30.1,6.5,45.1c0.1,0.8,0.3,1,1.1,1
		c6.7,0,13.4,0,20.1,0c0.8,0,1.1-0.3,1.2-1.1c0.6-4.5,1.2-9,1.8-13.5c1.4-10.5,2.8-20.9,4.2-31.4c1.6-11.6,3.2-23.3,4.7-34.9
		c0.5-3.4,0.9-6.9,1.4-10.3c0.1,0,0.1,0,0.2,0c0,30.4,0,60.7,0,91.1c10.4,0,20.6,0,30.9,0C243.5,277.8,243.5,232.1,243.5,186.3z
		 M255.7,323.6c0.4,0,0.7,0,1,0c15.6,0,31.1,0.1,46.7,0c5.4,0,10.7-0.3,15.9-1.7c8.8-2.3,14.2-7.8,15.7-16.9
		c1-6.1,1.3-12.2,1.4-18.4c0.1-6.5,0.1-12.9,0.1-19.4c0-11.5,0.1-23,0-34.6c-0.1-6.9-0.4-13.8-0.9-20.6c-0.3-4.2-1.3-8.3-3.6-11.9
		c-4.2-6.9-10.7-10.3-18.3-11.9c-8.1-1.7-16.4-1.9-24.6-2c-10.7-0.1-21.4,0-32-0.1c-0.4,0-0.9,0-1.3,0
		C255.7,232,255.7,277.7,255.7,323.6z M382.6,314.8c0.4,0.5,0.6,0.8,0.9,1.1c4.4,5.3,10.1,8.3,16.9,9.2c7.4,0.9,14.2-0.1,20.1-5
		c3.9-3.2,6.4-7.2,7.1-12.4c0.8-5.7,1.2-11.4,1.1-17.2c-0.1-13.5,0-27-0.1-40.6c0-3.5-0.1-7-0.5-10.5c-0.8-8.1-5.1-13.7-12.8-16.5
		c-5.7-2-11.5-2.2-17.5-1.3s-11,3.6-15,8c-0.3,0.3-0.6,0.7-0.9,1.1c-0.1-0.1-0.2-0.1-0.3-0.2c0-14.7,0-29.5,0-44.2
		c-11.1,0-22.2,0-33.2,0c0,45.8,0,91.6,0,137.3c0.3,0,0.5,0.1,0.8,0.1c10.1,0,20.3,0,30.4,0c0.7,0,0.9-0.2,1.1-0.9
		C381.3,320.2,381.9,317.7,382.6,314.8z M86,186.2c0,45.8,0,91.6,0,137.3c11.9,0,23.7,0,35.4,0c0-45.8,0-91.5,0-137.3
		C109.5,186.2,97.8,186.2,86,186.2z"/>
	<path class="st1" d="M291.3,209.8c2.8-0.1,5.5,0.1,8.1,1.3c1.3,0.6,2.1,1.8,2.3,3.2c0.4,2.4,0.7,4.9,0.7,7.4
		c0.1,20.5,0.1,41,0,61.4c0,3.6-0.5,7.2-0.8,10.8c-0.3,2.7-1.9,4.4-4.6,5c-1.8,0.4-3.6,0.6-5.6,0.9
		C291.3,269.7,291.3,239.8,291.3,209.8z"/>
	<path class="st1" d="M383,273.1c0-7.9,0-15.8,0-23.7c0-1.7,0.3-3.3,0.6-5c0.4-2.2,1.6-3.2,3.9-3.3c0.9-0.1,1.8,0,2.7,0.2
		c2.8,0.5,4.1,1.7,4.4,4.5s0.5,5.6,0.5,8.4c0.1,11.6,0,23.2,0,34.8c-1.2,4.3-0.3,8.8-1.2,13.1c-0.1,0.6-0.3,1.2-0.7,1.7
		c-1.5,1.7-5.5,2.3-7.5,1.2c-1.1-0.6-1.9-1.5-2-2.7c-0.3-3.8-0.8-7.7-0.9-11.5c-0.1-5.8,0-11.7,0-17.5
		C382.9,273.1,383,273.1,383,273.1z"/>
</g>
<path d="M476.9,114c-5-23.4-17.5-38.8-40.6-46.3s-64.9-4.5-94.1,16.8c-26.8,19.5-46.3,54.4-54,78.3c-0.7,2.1,0.5,4.4,2.6,5
	c0.8,0.3,1.7,0.3,2.5,0c10.8-3.8,21.7-7.1,34-6.4c15,0.8,24.5,12,24.9,25.3c0.3,9.8-0.2,18.7-3.6,27.7
	c-10.7,28.7-27.6,56.5-47.5,80.8c-3,3.6-6.4,6.9-10,9.9c-10.2,8.3-18.8,6.1-25.4-5.2c-5.4-9.3-9-18.9-12.2-29.1
	c-12.4-39.7-16.8-80.8-23.8-121.5c-3.3-19.5-7-39.8-18-56.9c-11.6-17.8-28.6-24.6-50-22c-14.7,1.8-36.9,17.5-47.8,26.4
	c0,0-56,46.9-81.8,71.4l21.2,27c0,0,17.9-12.5,27.5-18.3c5.7-3.4,12.4-4.1,17.2,0.2c4.5,3.9,9.6,9,12.3,14.1
	c5.7,10.7,11.2,21.9,14.7,33.4c13.2,44.3,25.5,88.6,37.8,133.2c6.3,22.8,13.9,44.2,28,63.5c19.3,26.6,39.6,32.7,70.9,21.5
	c25.4-9.1,46.6-26.2,66-43.9c33.1-30.2,59.1-65.4,85.5-101.1c20.4-27.7,37.3-55.7,51.4-86.9C478.5,179.7,484,147.3,476.9,114z"/>
</svg>
