<?xml version="1.0" encoding="UTF-8"?>
<svg id="Capa_1" data-name="Capa 1" xmlns="http://www.w3.org/2000/svg" viewBox="0 0 184.91 112.94">
  <path d="m72.37,97.44c-.23.04-.38.09-.54.09-1.58,0-3.16,0-5.04,0-1.29-5.15-2.62-10.3-3.86-15.47-.35-1.47.18-2.84,1.33-3.83,1.52-1.31,1.68-2.8.96-4.6-1.68-4.24-2.94-8.6-3.01-13.2-.02-1.4.07-2.84.35-4.21.25-1.22.06-2.23-.71-3.14-1.65-1.94-2.31-4.18-2.15-6.71.13-2.17,1.22-3.62,3.16-4.69,0,.62-.04,1.1,0,1.58.29,3.13,2.55,5.29,5.75,5.24,6.58-.1,13.16-.22,19.73-.52,4.78-.21,7.45-2.69,8.4-7.4.2-1.02.37-2.06.43-3.09.19-3.48-.13-7.02,1.88-10.58-2.55.22-4.89.95-6.92-1.15,1.22-1.04,2.36-2.18,3.67-3.08,4.15-2.86,8.69-4.34,13.8-3.51,1.25.2,1.8-.44,1.27-1.6-.43-.94-1.18-1.74-1.8-2.63,1.52-.26,3.11.08,4.33,1.17,1.16,1.03,2.34,2.23,2.97,3.61,2.13,4.64,4.2,9.34,5.93,14.14.9,2.5,1.16,5.26,1.48,7.93.26,2.18-.56,4.06-2.59,5.14-2.03,1.08-4.1.89-5.89-.47-4.02-3.06-7.39-6.73-9.53-11.37-.49-1.07-.71-2.31-.8-3.5-.16-2.11,1.19-3.54,3.3-3.78,1.71-.19,3.24.33,4.56,1.36,2.85,2.24,4.69,5.16,5.47,8.7.14.62-.05,1.7-.47,1.96-.45.28-1.58.09-2-.33-1.78-1.72-3.43-3.59-5.08-5.45-.24-.27-.28-.73-.45-1.23,1.7-.27,2.77.62,3.9,1.34-.58-1.6-2.52-3.1-4.14-3.21-1.44-.09-2.29.8-1.84,2.18.35,1.09.88,2.2,1.61,3.06,1.87,2.18,3.84,4.27,5.88,6.28,1.01,1,2.33,1.83,3.83,1.09,1.57-.77,1.68-2.35,1.47-3.81-.76-5.19-2.8-9.76-6.94-13.15-2.12-1.74-4.61-2.48-7.37-1.8-2.59.64-4.12,2.53-4.22,5.2-.11,3.08.89,5.93,2.13,8.66,2.05,4.51,4.17,8.98,6.4,13.4,2.25,4.46,5.4,8.29,8.77,11.95,1.39,1.5,2.78,2.99,4.13,4.52,1.19,1.33,1.51,2.94,1.3,4.67-.16,1.36-.97,2.36-2.21,2.8-1.11.4-2.33.65-3.51.71-1.99.11-4,.03-6,.03-1.97,0-2.39.39-2.68,2.32-.86,5.73-1.72,11.45-2.58,17.17-.07.45-.17.89-.27,1.41h-5.59c.34-2.45.75-4.85.99-7.27.4-4.02.68-8.05,1.02-12.08.08-1-.39-1.5-1.35-1.54-.78-.03-1.57,0-2.5,0,.28-1.89.53-3.6.8-5.44.8,0,1.54-.03,2.27,0,.88.05,1.38-.36,1.39-1.21.02-2.37.17-4.76-.07-7.11-.25-2.43-1.9-4.11-3.88-5.41-2.64-1.73-5.61-2.5-8.7-2.85-4.83-.55-9.67-.54-14.41.62-1.62.39-3.26,1.09-4.65,2.01-2.17,1.43-2.43,4-.54,5.79,1.2,1.13,2.76,2.08,4.32,2.58,5.47,1.74,11.12,2.04,16.8,1.3.81-.1,1.62-.42,2.35-.8,1.25-.65,1.57-1.9.6-2.9-.81-.83-1.88-1.52-2.97-1.95-2.4-.96-4.95-1.04-7.54-.59.93.16,1.88.28,2.8.5.93.22,1.87.45,2.72.87.44.22.68.84,1.01,1.28-.42.29-.82.65-1.28.85-.41.17-.9.26-1.35.22-3.56-.32-7.11-.66-10.66-1.06-.64-.07-1.28-.39-1.86-.7-1.89-.98-1.95-2.63-.08-3.69.82-.47,1.75-.83,2.67-1,5.21-.95,10.39-.78,15.43.86,1.62.53,3.22,1.46,4.49,2.59,3.27,2.91,2.37,7.05-1.73,8.56-3.7,1.36-7.54,1.29-11.36.88-3.06-.33-6.1-.86-9.15-1.32-2.18-.34-2.61.04-2.46,2.23.06.87.12,1.75.16,2.62.17,3.18-1.09,5.24-3.99,6.53-2.03.9-2.49,1.33-2.11,3.5.69,3.93,1.68,7.8,2.54,11.7.09.4.2.79.31,1.24Zm42.43-26.16c.83,0,1.67.07,2.49-.02.88-.1,1.25-.69.57-1.36-1.56-1.54-3.19-3.03-4.88-4.42-.69-.57-1.26-.22-1.27.74,0,.67,0,1.33-.01,2-.13,3.71.24,3.07,3.1,3.06Z" style="stroke-width: 0px;"/>
</svg>