<?xml version="1.0" encoding="UTF-8"?>
<svg id="Capa_1" data-name="Capa 1" xmlns="http://www.w3.org/2000/svg" viewBox="0 0 184.91 112.94">
  <path d="m38.79,70.81c.53-2.42,1.06-4.85,1.65-7.56.86,3.07.69,5.64-1.01,8.09-.56.8-.54,2-.84,3.21-.97-.98-2.18-1.97-3.1-3.17-3.65-4.75-4.36-10.15-3.18-15.87,2.19-10.57,11.31-19.02,22.05-20.06,9.38-.91,16.91,4.97,18.36,14.35,1.47,9.49-4.11,19.66-12.69,24.63-.06.03-.15,0-.4,0,.39-2.74.48-5.42,2.13-7.91,1.18-1.78,1.7-4.01,2.48-6.05.16-.42.1-.96.34-1.32,1.49-2.25,1.44-4.71,1.14-7.23-.13-1.1-.11-2.21-.21-3.31-.08-.89-.25-1.77-.44-3.03-1.11,1.34-1.88,2.17-3.55,2.14-1.62-.03-2.48-.69-3.31-1.87-.13.04-.26.08-.4.12-.1,1.08-.18,2.15-.3,3.23-.07.58-.16,1.17-.33,1.73-.1.35-.42.63-.55.98-.83,2.35-2.67,2.94-4.93,2.97-1.66.02-3.34.1-4.98.33-5.84.81-8.36,5.63-9.25,10.13-.39,1.95.06,3.75,1.31,5.49Z" style="stroke-width: 0px;"/>
  <path d="m117.22,56.48c0,1.21,0,2.42,0,3.62,0,4.74-2.19,7.47-6.86,8.36-2.53.48-5.06.34-7.46-.76-2.7-1.25-4.25-3.36-4.35-6.33-.12-3.29-.11-6.58,0-9.87.08-2.57,1.38-4.53,3.65-5.72,3.73-1.95,7.52-1.98,11.24,0,2.44,1.3,3.68,3.43,3.77,6.19.05,1.5,0,3,0,4.5h0Zm-13.23.06s0,0,0,0c0,1.25-.05,2.49.01,3.74.09,2.03,1.53,3.35,3.69,3.45,2.05.09,3.83-1.11,3.94-3.01.16-2.77.16-5.57,0-8.34-.12-1.95-1.93-3.14-4.05-3.01-2.07.13-3.5,1.48-3.57,3.43-.05,1.24,0,2.49,0,3.74Z" style="stroke-width: 0px;"/>
  <path d="m79.47,44.72c4,0,7.93-.25,11.8.07,3.94.33,6.11,3.44,5.98,7.71-.12,3.75-2.9,6.87-6.55,7.14-1.9.14-3.82.02-5.88.02v8.75h-5.35v-23.69Zm5.4,10.08c1.68,0,3.3.1,4.9-.03,1.31-.11,2.07-1.19,2.08-2.56,0-1.42-.68-2.49-1.99-2.61-1.64-.14-3.29-.03-4.99-.03v5.23Z" style="stroke-width: 0px;"/>
  <path d="m142.26,49.43v4.83h9.43v4.82h-9.45v9.3h-5.45v-23.71h16.53v4.76h-11.05Z" style="stroke-width: 0px;"/>
  <path d="m135.47,44.67v4.83h-11.06v4.74h9.43v4.84h-9.47v9.3h-5.35v-23.7h16.45Z" style="stroke-width: 0px;"/>
  <path d="m54.53,67.06c.33,2.89.68,5.77.95,8.66.03.32-.42.91-.74.99-1.49.37-3.02.56-4.51.91-1.6.37-2.85-.36-3.55-1.53-.82-1.37-1.23-3.03-.1-4.58.85-1.18,1.67-2.37,2.54-3.54.15-.2.45-.35.7-.38,1.51-.19,3.03-.35,4.71-.53Z" style="stroke-width: 0px;"/>
  <path d="m45.1,77.41c-1.61-.62-3.1-.92-4.2-1.73-.46-.34-.4-1.93-.03-2.7.55-1.16,1.55-2.12,2.39-3.13.47-.57,1-1.09,1.5-1.63.13.05.27.11.4.16-.3.93-.65,1.84-.9,2.79-.19.71-.48,1.49-.36,2.18.22,1.25.7,2.45,1.2,4.07Z" style="stroke-width: 0px;"/>
  <path d="m114.05,40.26c.03,1.48-1.07,2.64-2.54,2.68-1.48.04-2.73-1.17-2.75-2.65-.01-1.4,1.2-2.6,2.65-2.62,1.45-.02,2.62,1.12,2.64,2.59Z" style="stroke-width: 0px;"/>
  <path d="m104.57,42.94c-1.47.02-2.6-1.08-2.64-2.58-.04-1.48,1.06-2.64,2.53-2.69,1.48-.05,2.75,1.17,2.75,2.65,0,1.4-1.21,2.6-2.64,2.62Z" style="stroke-width: 0px;"/>
  <path d="m57.18,75.53c.22-2.48.44-4.95.65-7.43.09,0,.19.02.28.03-.21,2.48-.41,4.95-.62,7.43-.11,0-.21-.02-.32-.03Z" style="stroke-width: 0px;"/>
</svg>