<?xml version="1.0" encoding="UTF-8"?>
<svg id="Capa_1" data-name="Capa 1" xmlns="http://www.w3.org/2000/svg" viewBox="0 0 184.91 112.94">
  <path d="m72.03,52.8c-.12-.4-.34-.79-.35-1.19-.04-1.49-.02-2.98-.02-4.52h-5.53v9.82c-.11.03-.22.06-.33.09-1.15-1.93-3.79-2.93-3.33-6.17-.24.53-.37.74-.43.97-1.13,4.67-7.34,7.07-11.81,4.46-.71-.41-1.14-.87-1.06-1.77.08-1.02.02-2.05.02-3.3.63.46,1.07.81,1.53,1.13,1.33.94,2.79,1.49,4.45,1.31,1.52-.17,2.77-1.33,3.09-2.85.32-1.51-.15-2.55-1.61-3.44-1.39-.85-2.82-1.6-4.2-2.47-3.09-1.93-3.74-4.2-3.05-7.09.67-2.79,3.73-4.9,6.64-4.98,1.74-.05,3.29.39,4.73,1.31,1.44.92,2.86,1.87,4.31,2.76.76.46,1.09,1.03,1.05,1.94-.06,1.41-.02,2.82-.02,4.42,1.74,0,3.34.04,4.95-.05.2-.01.52-.65.53-1.01.05-2.62.08-5.25,0-7.87-.03-1.14.38-1.48,1.44-1.37.7.07,1.41.01,2.3.01v6.17c5.41-8.97,18.71-8.14,22.94,1.43v-7.41c4.49-1.24,8.74.14,11.37,3.61.12.16.3.27.44.4l-.04-.04c.32,1.1.77,2.19.93,3.31.44,3.09-.48,5.78-2.79,7.91-.64.6-.73,1.04-.3,1.8,1.31,2.32,2.53,4.68,3.84,7.12-.52.06-.94.11-1.68.19,3.04.69,1.3,2.82,1.97,4.54-4.98-2.23-8.84-1.39-11.4,3.25-1.48,2.68-.79,6.2,1.46,8.53,2.42,2.5,5.7,2.92,9.75,1.11,0,1.26.05,2.43-.04,3.59-.02.23-.5.53-.81.62-4.31,1.22-8.22.44-11.39-2.78-3.27-3.33-4.14-7.4-2.55-11.76,1.54-4.22,4.7-6.64,9.2-7.25.4-.05.8-.11,1.37-.18-1.13-2.15-2.11-4.21-3.31-6.13-.27-.44-1.34-.38-2.25-.59,0,2.1-.05,3.89.02,5.67.04,1.01-.33,1.34-1.3,1.25-.74-.07-1.49-.01-2.41-.01v-7.22c-.09-.02-.18-.05-.28-.07-.18.3-.37.59-.55.89-1.65,2.81-4,4.78-7.12,5.74-.91.28-1.4.73-1.87,1.58-1.56,2.84-3.25,5.62-4.98,8.36-.56.9-.56,1.58-.03,2.49,1.77,3.06,3.46,6.17,5.17,9.26.19.35.36.72.63,1.26-1.18,0-2.26.19-3.21-.06-.7-.18-1.41-.84-1.83-1.47-1.27-1.9-2.39-3.9-3.71-6.09-.79,1.42-1.48,2.67-2.18,3.91-.16.29-.32.58-.49.87-1.78,3.19-2.1,3.34-6.02,2.7.32-.65.61-1.28.93-1.89,1.45-2.81,2.87-5.63,4.4-8.4.56-1.01.5-1.79-.04-2.77-1.46-2.62-2.81-5.29-4.22-7.93-.19-.36-.48-.67-.68-1.03-.23-.41-.55-.85-.55-1.28,0-.26.51-.53.91-.89v-2.79c-.24.15-.45.27-.66.4l.04-.03Zm14.46-16.2c-4.68,0-8.49,3.76-8.5,8.36,0,4.76,3.71,8.52,8.43,8.55,4.7.02,8.52-3.78,8.52-8.48,0-4.62-3.83-8.43-8.44-8.43Zm-24.06,12.3c0-2.94.03-5.89-.03-8.83-.01-.51-.26-1.22-.64-1.47-1.13-.76-2.34-1.43-3.6-1.98-1.72-.75-3.63-.14-4.67,1.31-.94,1.32-.7,2.79.66,3.67.83.54,1.71,1.03,2.61,1.46,2.62,1.24,4.97,2.71,5.67,5.84Zm18.27,15.3c1.45-2.42,2.77-4.64,4.17-6.97-4.08-.72-7.09-2.68-9.37-6.22v5.75c.72.67,1.32,1.05,1.66,1.58,1.19,1.86,2.29,3.77,3.54,5.86Zm21.37-27.51c0,3.14,0,6.22,0,9.29,0,.76.4.97,1.14.89,2.71-.28,4.64-2.88,4.31-5.88-.29-2.68-2.63-4.6-5.46-4.3Z" style="stroke-width: 0px;"/>
  <path d="m59.75,69.65c-1.11,3.2-2.22,6.39-3.45,9.93-1.27-3.49-2.43-6.66-3.58-9.82-.09.01-.18.03-.28.04v9.68h-3.17v-22.07q2.47-.36,3.25,1.74c1.16,3.11,2.32,6.22,3.58,9.59,1.35-3.5,2.65-6.73,3.82-10,.4-1.12.92-1.56,2.14-1.51,2.29.1,4.58.07,6.87,0,1.01-.03,1.34.34,1.25,1.3-.06.69-.01,1.4-.01,2.2h-6.57v5.79h6.51c0,1.09.1,2.05-.05,2.97-.05.31-.72.71-1.12.73-1.74.08-3.49.03-5.45.03,0,1.74-.04,3.43.05,5.12.01.22.63.58.97.59,1.54.05,3.08.02,4.62-.02.72-.02,1.09.21,1.05,1-.05.82-.01,1.65-.01,2.55h-10.18v-9.84c-.08,0-.16,0-.23,0Z" style="stroke-width: 0px;"/>
  <path d="m110.08,37.14c-.07-1.23-.14-2.47-.22-3.83.62-.05,1.1-.12,1.58-.12,5.67-.02,11.33,0,17-.05,2.15-.02,3.79,1.11,5.46,2.18.31.2.5.77.54,1.19.08.81.02,1.64.02,2.68-1.64-.82-3.06-1.56-4.5-2.24-1.48-.7-2.84-.43-4.04.65-1.5,1.36-1.37,3.2.35,4.27,1.24.76,2.55,1.39,3.83,2.1,3.04,1.68,4.39,4.23,3.81,7.15-.62,3.13-3.38,5.56-6.61,5.94-1.9.22-3.62-.17-5.26-1.09-.66-.37-.95-.84-.91-1.6.06-.99.01-1.99.01-3.28.66.46,1.1.89,1.64,1.11,1.25.51,2.51,1.14,3.82,1.3,1.62.2,2.95-.99,3.4-2.56.45-1.57-.01-2.66-1.61-3.65-1.02-.64-2.08-1.23-3.11-1.85-3.94-2.39-4.55-3.72-3.74-8.28h-1.84c0,.46,0,.91,0,1.35,0,5.79-.02,11.58.03,17.37,0,1.1-.32,1.53-1.43,1.4-.7-.08-1.41-.01-2.28-.01v-20.18c-2.11,0-4.05,0-6,0,0,0,.04.04.04.04Z" style="stroke-width: 0px;"/>
  <path d="m135.81,68.49c.33,6.17-5.37,11.27-11.16,11.12-6.25-.17-11.19-4.99-11.17-11.22.03-6.29,4.99-11.11,11.33-11.19,5.64-.07,11.38,4.91,11,11.29Zm-3.47-.18c-.01-4.11-3.46-7.53-7.59-7.53-4.39,0-7.74,3.4-7.7,7.8.04,4.11,3.48,7.48,7.65,7.48,4.26,0,7.65-3.44,7.64-7.75Z" style="stroke-width: 0px;"/>
  <path d="m91.2,79.48c0-2.25,0-4.41,0-6.57,0-4.74.03-9.49-.04-14.23-.02-1.16.33-1.58,1.47-1.43.56.08,1.15.01,1.81.01v22.2h-3.24Z" style="stroke-width: 0px;"/>
  <path d="m72,52.83c.19.18.52.34.54.55.07.6.03,1.22.03,1.89h-3.96c1.25-.9,2.34-1.68,3.43-2.47,0,0-.04.03-.04.03Z" style="stroke-width: 0px;"/>
</svg>