<?xml version="1.0" encoding="UTF-8"?>
<svg id="Capa_1" data-name="Capa 1" xmlns="http://www.w3.org/2000/svg" viewBox="0 0 184.91 112.94">
  <path d="m71.07,47.46c-.13.31-.18.71-.4.93-8.38,8.4-16.77,16.79-25.17,25.18-.06.06-.14.08-.38.22v-26.08h-8.78v-8.71h8.71v8.56h8.71v-8.58h8.79v8.67c1.48,0,2.84.02,4.19,0,1.44-.03,2.88-.11,4.33-.17h0Z" style="stroke-width: 0px;"/>
  <path d="m131.22,52.81v7.07h-6.05v13.97h-7.55v-34.95h14.48v7.05h-6.88v6.86h6Z" style="stroke-width: 0px;"/>
  <path d="m141.5,59.87v13.96h-7.47v-34.94h14.46v7.03h-6.89v6.93h6.02v7.02h-6.12Z" style="stroke-width: 0px;"/>
  <path d="m105.2,38.94v7.09h-4.54v27.81h-7.57v-27.75h-4.51v-7.15h16.62Z" style="stroke-width: 0px;"/>
  <path d="m114.49,73.85h-7.36v-34.9h7.36v34.9Z" style="stroke-width: 0px;"/>
  <path d="m71.27,73.95h-15.75c5.24-5.24,10.52-10.52,15.75-15.75v15.75Z" style="stroke-width: 0px;"/>
  <path d="m71.08,47.46c.09-.41.26-.83.27-1.24.03-2.4.01-4.8.01-7.27h8.57c-.16.24-.25.45-.4.6-2.46,2.48-4.93,4.95-7.42,7.4-.26.26-.69.35-1.04.51,0,0,0,0,0,0Z" style="stroke-width: 0px;"/>
</svg>