<?xml version="1.0" encoding="UTF-8"?>
<svg id="Capa_1" data-name="Capa 1" xmlns="http://www.w3.org/2000/svg" viewBox="0 0 184.91 112.94">
  <path d="m86.55,16.88h3.27v78.99h-3.27V16.88Z" style="stroke-width: 0px;"/>
  <path d="m115.22,62.39h-3.3v-15.21c1.05,0,2.11-.06,3.17.04.31.03.66.45.87.77,1.16,1.81,2.29,3.64,3.53,5.63,1.12-1.79,2.22-3.4,3.15-5.09.58-1.05,1.26-1.55,2.46-1.37.6.09,1.23.02,1.93.02v15.21h-3.23v-9.38c-.09-.04-.18-.08-.27-.12-1.33,2.01-2.65,4.01-4.08,6.17-1.4-2.12-2.7-4.08-4-6.04-.08.01-.15.02-.23.03v9.34Z" style="stroke-width: 0px;"/>
  <path d="m106.25,32.92c.79.93,1.78,1.68,2.19,2.67.89,2.15-.23,4.38-2.5,5.03-1.33.38-2.78.42-4.18.47-1.95.07-3.9.02-5.95.02v-15.03c2.97,0,5.95-.13,8.91.06,1.47.09,2.61,1.13,2.98,2.66.37,1.57.05,2.98-1.33,4-.12.09-.21.23-.11.12Zm-7.22,5.18c1.66,0,3.19.05,4.72-.02.86-.04,1.5-.49,1.56-1.46.06-1.04-.56-1.62-1.46-1.68-1.59-.1-3.2-.03-4.82-.03v3.19Zm.02-6.17c1.38,0,2.7.07,4.01-.03.87-.06,1.46-.61,1.42-1.58-.04-.91-.66-1.38-1.45-1.43-1.31-.09-2.63-.02-3.98-.02v3.06Z" style="stroke-width: 0px;"/>
  <path d="m72.67,36.42v4.63h-3.29v-15.31c2.92.13,5.83.08,8.68.45,2.08.27,3.32,1.82,3.59,3.95.26,2.1-.35,3.87-2.22,5.06-.28.18-.57.33-.95.54,1.18,1.74,2.33,3.45,3.64,5.38-1.3,0-2.4.04-3.48-.03-.3-.02-.64-.34-.84-.61-.64-.87-1.3-1.74-1.79-2.7-.69-1.35-1.67-1.85-3.34-1.36Zm.08-3.24c1.34,0,2.58.11,3.8-.03,1.11-.13,1.74-.91,1.73-2.09-.01-1.18-.64-1.93-1.77-2.04-1.22-.12-2.46-.03-3.76-.03v4.19Z" style="stroke-width: 0px;"/>
  <path d="m112.85,41.04v-15.1h11.39v2.87h-7.97v3.12h6.96v3h-6.97v3.19h8.12v2.92h-11.53Z" style="stroke-width: 0px;"/>
  <path d="m51.22,68.63v2.82h-8.04v3.1h7.01v2.96h-7v3.27h8.11v2.94h-11.46v-15.09h11.39Z" style="stroke-width: 0px;"/>
  <path d="m126.34,83.71c-.35.04-.51.07-.67.07-2.74.08-2.77.09-3.79-2.46-.29-.74-.66-1.02-1.45-.99-1.5.06-3,.05-4.5,0-.7-.02-1.01.24-1.28.87-1.16,2.74-1.18,2.73-4.33,2.52.1-.32.16-.63.28-.91,1.9-4.48,3.85-8.95,5.69-13.45.4-.99,1.03-1.03,1.85-.98.82.05,1.65-.25,2.13.93,1.94,4.77,4,9.5,6.08,14.4Zm-10.09-6.41h3.97c-.65-1.59-1.26-3.09-1.99-4.86-.73,1.79-1.33,3.27-1.98,4.86Z" style="stroke-width: 0px;"/>
  <path d="m160.12,41c-.25.06-.37.1-.49.11-2.82.13-2.84.14-3.91-2.47-.27-.67-.6-.98-1.37-.95-1.5.06-3,.06-4.49,0-.82-.04-1.15.31-1.44,1.02-1.08,2.67-1.1,2.66-4.07,2.34-.04,0-.07-.04-.18-.1.12-.33.22-.68.36-1.02,1.87-4.4,3.8-8.77,5.58-13.2.5-1.24,1.36-.91,2.21-.98.85-.07,1.42.06,1.81,1.02,1.81,4.42,3.72,8.8,5.59,13.2.13.3.23.61.39,1.03Zm-10.04-6.32h4c-.67-1.61-1.28-3.1-2.01-4.87-.72,1.77-1.33,3.24-1.99,4.87Z" style="stroke-width: 0px;"/>
  <path d="m66.23,70.22c-.61.88-1.13,1.63-1.69,2.44-.77-.36-1.47-.83-2.25-1.03-.82-.22-1.73-.33-2.56-.22-.43.06-1.05.67-1.1,1.1-.05.41.42,1.06.83,1.31.62.38,1.39.51,2.1.74.83.27,1.68.49,2.48.83,1.75.73,2.69,2.04,2.65,3.97-.05,1.99-1.11,3.56-3,4.17-3.33,1.08-6.28.22-9.09-1.95.67-.83,1.29-1.58,1.8-2.2,1.31.55,2.48,1.04,3.66,1.53.15.06.32.08.49.09,1.44.17,2.6-.29,2.72-1.16.21-1.49-1.04-1.61-1.97-1.95-1.09-.4-2.24-.64-3.33-1.03-1.78-.65-2.76-1.91-2.76-3.87,0-1.95.95-3.51,2.77-4.19,2.93-1.09,5.62-.43,8.25,1.41Z" style="stroke-width: 0px;"/>
  <path d="m139.55,36.66c.67.63,1.33,1.26,1.98,1.88-1.47,2.31-4.91,3.41-8.05,2.63-3.41-.85-5.66-3.58-5.92-7.18-.24-3.3,1.66-6.43,4.67-7.72,3.19-1.36,7.12-.64,9.26,1.76-.67.77-1.34,1.55-2.01,2.32-3.16-2.05-5.43-2.11-7.15-.23-1.59,1.74-1.67,4.7-.17,6.57,1.68,2.09,3.79,2.08,7.39-.02Z" style="stroke-width: 0px;"/>
  <path d="m72.73,50.19v3.31h6.16v3.01h-6.17v5.83h-3.35v-15.09h11.81v2.94h-8.44Z" style="stroke-width: 0px;"/>
  <path d="m36.53,68.62v2.96h-8.1v3.25h7.13v3h-7.16v5.87h-3.31v-15.08h11.44Z" style="stroke-width: 0px;"/>
  <path d="m95.19,68.68c.18-.08.22-.1.26-.11q3.24-.28,4.38,2.77c.94,2.52,1.88,5.04,2.95,7.89.7-1.88,1.29-3.44,1.87-5.01.58-1.56,1.21-3.1,1.71-4.68.27-.83.69-1.11,1.53-1.03.74.07,1.49.01,2.39.01-.14.45-.23.8-.36,1.12-1.76,4.4-3.56,8.79-5.26,13.21-.37.97-.95,1.08-1.8,1.03-.84-.05-1.63.16-2.07-1.01-1.68-4.43-3.5-8.81-5.26-13.21-.12-.3-.22-.61-.34-.99Z" style="stroke-width: 0px;"/>
  <path d="m58.16,28.99h-4.6v-3.04h12.48v2.96h-4.54v12.14h-3.34v-12.06Z" style="stroke-width: 0px;"/>
  <path d="m73.52,71.62h-4.55v-3h12.47v2.93h-4.52v12.16h-3.4v-12.1Z" style="stroke-width: 0px;"/>
  <path d="m106.62,62.38h-10.84v-15.11h3.22v12.07h7.62v3.04Z" style="stroke-width: 0px;"/>
  <path d="m139.93,80.69v3.01h-10.83v-15.11h3.24v12.09h7.59Z" style="stroke-width: 0px;"/>
</svg>