<?xml version="1.0" encoding="UTF-8"?>
<svg id="Capa_1" data-name="Capa 1" xmlns="http://www.w3.org/2000/svg" viewBox="0 0 184.91 112.94">
  <path d="m70.47,16.65c-1.33,2.85-.68,5.74-.62,8.62.02.78-.71,1.86-1.41,2.33-2.21,1.47-4.53,2.78-6.87,4.03-.96.51-2.52-.5-3.07-1.9-.39-1-.65-2.06-.97-3.09-.11-.36-.24-.71-.63-1.02-.04.26-.18.54-.12.78.52,2.23-.22,4.28-.87,6.33-.31.98-3.02,1.52-3.63.7-.71-.95-1.51-1.97-1.81-3.08-1.16-4.32-1.47-8.74-1.14-13.2,1.68-.09,2.81,1.08,3.16,3.14.29,1.72.64,3.43.98,5.14.05.23.18.45.3.73.57-.64,1.05-1.27,1.62-1.8,1.29-1.18,2.67-.87,3.36.72.23.53.46,1.07.68,1.61.21.54.4,1.09.64,1.78,4.14-3.42,7.68-7.22,10.41-11.82Z" style="stroke-width: 0px;"/>
  <path d="m76.78,18.67c.39-.07.67-.15.95-.17,1.44-.11,1.7.12,1.62,1.58-.06,1.03-.32,2.05-.31,3.08,0,1.68.15,3.35.24,5.03.14.04.27.08.41.12.6-.65,1.2-1.29,1.8-1.94,1.57-1.71,3.51-1.41,4.4.73.47,1.13.8,2.31,1.26,3.67,2.2-3.77,2.26-7.98,3.62-11.82.13,1.38.22,2.77.41,4.15.15,1.05.46,2.07.62,3.12.09.59.17,1.23.03,1.79-.49,1.96-.83,4.02-1.7,5.81-.98,2.01-3.89,1.94-5.13.11-.2-.3-.42-.59-.7-.97-.65.76-1.23,1.47-1.84,2.14-1.06,1.16-1.61,1.22-2.88.26-1.77-1.33-2.76-3.16-2.79-5.33-.06-3.42.1-6.84.15-10.27,0-.32-.09-.63-.15-1.1Z" style="stroke-width: 0px;"/>
  <path d="m126.81,30.65c-.07-.75-.03-1.53-.24-2.24-.39-1.35-.92-2.65-1.47-4.2-.92,1.61-.63,3.1-.52,4.56.08,1.03.44,2.11.23,3.07-.14.62-1.03,1.14-1.69,1.54-.24.14-.99-.1-1.14-.36-.55-.99-1.14-2.03-1.37-3.12-.67-3.21-1.16-6.46-1.74-9.69-.05-.28-.12-.66-.32-.79-1.21-.77-.4-1.58.15-1.96.41-.28,1.45-.17,1.83.18.63.58,1.12,1.44,1.39,2.27.48,1.48.76,3.04,1.14,4.65.71-1.08,1.35-2.06,2.04-3.11,2.25.85,2.07,3.25,3.4,4.91,2.35-3.47,4.67-6.89,7.19-10.61,0,2.59.19,4.87-.09,7.1-.12.97-1.13,1.86-1.81,2.72-.64.81-1.54,1.46-2.03,2.35-.59,1.06-1.01,2.26-1.23,3.45-.14.71-.35,1.3-.98,1.35-.5.04-1.08-.32-1.54-.63-.57-.38-1.04-.9-1.56-1.35.12-.04.23-.07.35-.11Z" style="stroke-width: 0px;"/>
  <path d="m110.77,15.45c-.04.51-.05,1.02-.12,1.52-.23,1.59-.62,3.18-.66,4.78-.03,1.15.36,2.32.65,3.45.07.27.57.65.79.61,1.24-.27.91.43.82,1.12-.29,2.16-1.31,4-2.52,5.75-.16.24-.59.31-.91.42-.62.22-1.24.56-1.87.59-.68.04-1.53-.02-2.02-.4-.73-.56-1.21-1.44-2.02-2.46-.27.93-.43,1.73-.74,2.48-.23.56-.53,1.29-.99,1.49-.42.17-1.36-.1-1.61-.49-.73-1.09-1.53-2.28-1.74-3.53-.4-2.36-.51-4.78-.54-7.17-.02-1.83.24-3.68.48-5.5.08-.63.38-1.3.77-1.8.23-.29.84-.29,1.28-.42.06.41.21.82.17,1.22-.1.89-.4,1.78-.43,2.67-.08,2.99-.13,5.99-.09,8.98.01.93.32,1.86.8,2.87.23-.35.52-.68.68-1.06.97-2.39,1.88-4.79,2.88-7.17.19-.45.79-1.13,1.05-1.06.66.16,1.05.77.82,1.56-.24.79-.6,1.56-.68,2.36-.08.91.09,1.83.18,3.04,2.85-4.45,2.57-9.77,5.59-13.85Z" style="stroke-width: 0px;"/>
  <path d="m75.09,87.4c.62-1.27,1.21-2.49,1.83-3.78.25.12.57.27.92.44.08-.05.17-.12.27-.17.31-.16.61-.42.92-.45.75-.05,1.53.11,2.27,0,1.43-.21,2.72-.32,3.92.82.71.68,1.82.92,2.6,1.54.62.49,1.09,1.23,1.47,1.94.17.32.14.98-.08,1.26-1.74,2.22-3.1,4.79-5.81,6.15-1.18.59-2.64.79-3.44,2.05-.05.08-.23.12-.34.11-.79-.1-1.61-.11-2.35-.37-1.18-.43-1.62-1.4-1.08-2.47.69-1.36.3-2.76.33-4.13.02-.99-.86-2.4-1.46-2.95Zm4.97,1.36c.07.97.36,1.85.13,2.56-.31.97.46,1.43.74,2.27.91-1.08,1.64-2.24,2.36-3.41.38-.63.73-1.28.94-1.65-.54-.65-.87-1.18-1.32-1.55-.54-.45-1.16-.98-1.8-1.07-.4-.05-1.04.57-1.33,1.04-.31.51-.33,1.19-.49,1.85.41-.02.65-.03.77-.04Zm5.45-1.68c0,.1.02.19.03.29.38.08.76.23,1.14.23.32,0,.91-.13.92-.25.05-.4.03-1.02-.22-1.2-.7-.5-1.52-.82-2.54-1.34.6.72,1.04,1.25,1.52,1.83-.33.17-.59.31-.85.44Z" style="stroke-width: 0px;"/>
  <path d="m59.46,83.59c.4-.1.82-.11,1.16-.29,2.62-1.41,5.33-1.7,8.18-.78,1.87.6,3.15,1.87,4.19,3.43.16.24.19.79.03,1-.97,1.23-1.83,2.7-3.09,3.52-1.09.71-.96,1.5-1.1,2.41-.06.38-.18.97-.42,1.06-.93.36-1.93.55-2.9.83-.28.08-.61.18-.78.38-.25.31-.41,1.06-.56,1.05-.7-.07-1.57-.13-2.02-.56-1-.95-1.97-2.03-2.59-3.24-.33-.65.08-1.69.18-2.82.49.55.78.87,1.07,1.19.08-.02.17-.04.25-.06-.13-1.01-.27-2.02-.4-3.03-.1-.03-.2-.05-.3-.08-.19.41-.37.82-.56,1.22-1.02-.8-1.12-2.53-.32-5.22Zm4.46,8.3c1.55-.45,2.3-1.71,3.1-2.99,1.22-1.96.51-3.85-2.13-4.09-2.19-.2-3.73,1.71-2.64,3.54.64,1.07.95,2.22,1.46,3.31.03.07.11.12.21.22Z" style="stroke-width: 0px;"/>
  <path d="m113.31,81.59c.28,1.59.53,3.07.8,4.54.14.78.35,1.54.49,2.31.27,1.6.81,1.89,1.89,1.41.66-1.16,1.17-1.93,1.56-2.76.74-1.6,1.62-3.18,2.05-4.87.45-1.79-2.17-3.31-4.04-2.56-1.02.41-2.11.64-3.19.86-.41.08-.87-.09-1.22-.13-.05-.6-.08-1.06-.14-1.74,1.76-.22,3.44-1.89,5.55-1.2,1.05.34,1.97,1.19,2.82,1.96.99.89,2.13,1.65,2.48,3.16.31,1.35-.04,2.48-.66,3.57-.89,1.56-1.55,3.15-1.51,4.99,0,.24-.33.58-.59.72-1.32.67-2.64,1.46-4.21.68-.28-.14-.61-.19-.8-.25-.38.55-.69,1-1,1.46-.44-.35-.88-.69-1.33-1.04-1.37-1.05-.67-2.62-.96-3.95-.04-.18.3-.43.45-.65.14-.2.39-.44.36-.63-.27-1.63-.65-3.24-.89-4.87-.14-.92.39-1.29,1.3-1.1.36.08.73.08.81.09Z" style="stroke-width: 0px;"/>
  <path d="m96.55,87.72c-.42-.8-.93-1.39-1.01-2.03-.13-1,.05-2.04.05-3.07,0-.69-.1-1.38-.17-2.22.77-.41,1.68.13,2.24,1.73.04-.51.08-1,.13-1.48.09-.03.18-.06.27-.09.11.32.3.64.32.97.05.86.54,1.14,1.24.85,1.68-.69,3.05-.18,4.29.95,1.42,1.3,2.17,2.78,1.41,4.77-.32.82-.36,1.74-.57,2.61-.57,2.37-2.15,3.86-4.26,4.9-.8.4-1.25,1.77-2.38,1.14-1.07-.6-1.97-1.5-3.12-2.42.02,0-.26-.08-.53-.16.13-.26.22-.72.39-.75.72-.13,1.47-.14,2.41-.2.08-.51.21-1.29.34-2.07.06-.01.13-.02.19-.04.12.46.24.92.38,1.49.65-1.44.42-4.91-.4-5.5v3.28c-.43-.49-.73-.84-1.04-1.19-.21-.24-.42-.48-.4-.89.21.19.42.37.79.7.07-.55.12-.89.18-1.37-.39.05-.68.08-.72.08Zm6.66,1.56c-.12-.08-.23-.16-.35-.24-.22-.25-.58-.48-.62-.77-.1-.58.08-1.22-.06-1.78-.16-.64-.5-1.25-.84-1.82-.05-.08-.63.04-.84.22-.37.3-.66.72-1.15,1.29v7.36c.16.06.31.13.47.19,1.13-1.48,2.27-2.96,3.4-4.44Z" style="stroke-width: 0px;"/>
  <path d="m135.66,80.25v1.65c-1.46.47-2.93.74-4.19,1.41-2.07,1.1-2.48,2.79-1.72,5.03.2.59-.11,1.35-.16,2.04-.06.72-.09,1.44-.14,2.37,2.85-.8,4.76-2.34,6.25-4.67,0,1.59.12,3.19-.07,4.75-.06.49-.89,1.13-1.46,1.26-1.95.43-3.93.72-5.92.94-1,.11-2.14-1.32-2.02-2.44.25-2.41.1-4.72-1.03-6.94-.59-1.16-.23-1.68,1.09-2.12.19-.06.35-.31.46-.51.36-.65.68-1.33,1.04-1.99.52-.96,1.29-1.11,2.31-.81.61.17,1.31.04,1.97.04,1.15,0,2.31,0,3.58,0Z" style="stroke-width: 0px;"/>
  <path d="m116.95,66.61c.88-.18,1.44-.33,2-.41.61-.08,1.34-.33,1.83-.09.68.33,1.31.95,1.69,1.6.17.3-.15,1.21-.51,1.44-1.49.98-2.61,2.51-4.52,2.9-1.33.27-2.59-.32-3.24-1.49-1.02-1.85-1.35-3.82-1.32-5.86,0-.57.44-1.14.71-1.7.76-1.56,1.53-3.12,2.29-4.68.04-.07.01-.21.06-.23.66-.32,1.37-.94,1.98-.87.95.11,1.22.98.94,1.94-.54,1.84-1.07,3.67-1.57,5.52-.15.54-.21,1.1-.35,1.92Z" style="stroke-width: 0px;"/>
  <path d="m101.59,69.07c2.11-.55,4.26-.97,6.3-1.7,1.2-.43,2.03,0,2.87.58.81.56.5,1.61-.6,2.09-1.51.67-2.96,1.4-4.73,1.32-.98-.04-2,.5-2.99.81-2.18.7-4.27-.44-3.62-2.83.54-1.99.98-4,1.56-5.97.58-1.99,1.23-3.96,1.91-5.91.18-.5.63-.91.99-1.41.84.01.99.59,1.01,1.34.09,3.03-.9,5.81-1.9,8.59-.32.89-.71,1.76-1.07,2.63.09.15.19.3.28.46Z" style="stroke-width: 0px;"/>
  <path d="m76.34,57.75c-.87,3.96-1.65,7.54-2.48,11.33.65.73,1.69.67,2.77.38,1.2-.33,2.38-.81,3.6-1,.73-.12,1.93-.09,2.24.35,1.14,1.62.95,2.82-.12,3.9-1.68,1.69-3.69,1.99-5.91,1.55-.39-.08-.83-.16-1.2-.06-1.07.3-1.92.12-2.66-.78-.82-.99-1-2.04-.69-3.24.68-2.6,1.31-5.21,2.04-7.79.38-1.35.9-2.67,1.42-3.97.1-.24.53-.35,1.01-.65Z" style="stroke-width: 0px;"/>
  <path d="m128.69,57.86c1.34.13,3.03,1.33,3.17,2.2.06.36-.12.76-.22,1.14-.05.2-.18.37-.26.56-1.03,2.62-2.06,5.24-3.2,8.13,1.03-.09,1.93-.05,2.77-.27,1.06-.28,2.05-.8,3.09-1.16.22-.08.58-.01.77.13,1.18.88,1.05,2.08-.29,2.58-1.86.7-3.72,1.4-5.6,2.01-1.58.51-2.48-.66-3.36-1.63-.78-.87-.86-1.86-.33-2.97,1-2.1,1.92-4.24,2.82-6.38.57-1.35,1.34-2.7.63-4.35Z" style="stroke-width: 0px;"/>
  <path d="m88.72,59.83c1.87-.58,2.53-.04,3.49,3.19-2.06.93-2.61,2.95-3.36,5.11,1.82-.11,3.57-.21,5.12-.3-.66,2.78-1.97,5.03-4.55,6.47-2.82-1.39-2.95-4.89-2.53-7.69.25-1.66,1.04-3.24,1.53-4.87.17-.55.18-1.14.29-1.91Z" style="stroke-width: 0px;"/>
  <path d="m62.11,60.91c.29.53.6.86.63,1.22.2,2.32-.2,4.54-1.15,6.67-.08.19-.23.35-.3.55-.48,1.31-.17,1.89,1.23,1.94.89.03,1.81-.16,2.68-.37,1.31-.32,2.6-.75,3.9-1.13.07.1.15.21.22.31-.95.8-1.83,1.7-2.85,2.39-1.2.81-2.53,1.43-3.78,2.15-1.5.86-2.51.66-3.5-.75-.5-.71-1.47-1.25-.98-2.37.28-.65.68-1.27.85-1.95.57-2.28.99-4.6,1.61-6.87.16-.59.83-1.05,1.45-1.79Z" style="stroke-width: 0px;"/>
  <path d="m49.24,93.41c0-1.65-.09-2.85.03-4.03.08-.75.59-1.44.71-2.19.08-.49-.19-1.04-.33-1.55-.12-.42-.38-.82-.4-1.23-.08-1.9.23-2.14,2.13-1.8.08.01.16.03.24.05,3.03.72,4.38,4.53,2.28,6.96-1.22,1.4-2.91,2.39-4.67,3.79Z" style="stroke-width: 0px;"/>
  <path d="m62.26,42.21c.66.41,1.31.64,1.7,1.1,1.82,2.07,1.83,2.41.54,4.94-.08.15-.12.32-.21.45-1.1,1.49-.23,2.93.09,4.39.16.72.25,1.45.42,2.51-2.75-1.4-3.72-3.6-4.25-6.08-.56-2.63.84-4.81,1.7-7.32Z" style="stroke-width: 0px;"/>
  <path d="m122.75,48.32c.28-1.44.51-2.45.65-3.47.06-.42-.12-.86-.15-1.29-.02-.21-.02-.57.09-.63.55-.29,1.17-.74,1.71-.68,1.17.12,1.74,1.3,1.7,2.64-.06,2-.03,4.01.07,6.02.08,1.5-.23,2.12-1.51,2.12-.4,0-1.04-.29-1.17-.6-.58-1.44-1.01-2.93-1.4-4.1Z" style="stroke-width: 0px;"/>
  <path d="m87.56,52.89c-.18.1-.5.45-.7.39-1.06-.32-2.13-.67-3.11-1.17-.35-.18-.63-.78-.68-1.22-.27-2.36.34-4.57,1.52-6.57.33-.55,1.26-1.06,1.89-1.04.8.03,1.31.82,1.25,1.74-.03.53,0,1.13-.21,1.59-.68,1.43-.78,2.92-.6,4.44.07.58.39,1.14.64,1.84Z" style="stroke-width: 0px;"/>
  <path d="m97.34,50.08c-.24,1.2-.32,2.28-.71,3.24-.24.59-.89.64-1.58.2-2.76-1.78-4.03-4.12-3.09-7.42.16-.55.22-1.14.33-1.74.76-.05,1.48-.15,2.21-.14.59,0,1.46,1.34,1.35,1.97-.15.82-.36,1.63-.44,2.45-.13,1.35.28,1.7,1.92,1.44Z" style="stroke-width: 0px;"/>
  <path d="m52.28,43.99c2.02.1,2.05.16,1.96,2.04-.05,1.12-.15,2.27.04,3.35.18,1.01.72,1.95,1.09,2.92.17.46.32.92.52,1.49-1.47-.13-2.86-.16-4.2-.44-.39-.08-.85-.87-.9-1.38-.26-2.51-.5-5.04,1.18-7.25.16-.21.21-.51.31-.75Z" style="stroke-width: 0px;"/>
  <path d="m113.23,46.56c0-.91.02-1.83,0-2.74-.02-.83.39-1.02,1.11-.81.97.27,1.76.67,1.74,1.9-.02.74.02,1.51.2,2.23.15.59.43,1.23.85,1.66.95.96.88,2.32-.29,2.94-.53.28-1.35.82-1.63.64-.97-.65-1.99-1.4-1.97-2.82.02-1,0-1.99,0-2.99h0Z" style="stroke-width: 0px;"/>
  <path d="m72.33,47.48c-.31.27-.47.41-.71.62-.01-.23-.05-.35-.02-.46.27-1.06.5-2.13.83-3.17.25-.77.74-1.22,1.59-.65.73.49,1.11,1.01.6,1.96-.88,1.64-1.36,3.38-.54,5.39.7-.37,1.34-.71,2.08-1.1.42.78.83,1.56,1.29,2.41-1.08.85-2.35,1.2-3.69,1.17-1.11-.02-1.77-.84-1.76-2.16.02-1.28.2-2.55.33-4Z" style="stroke-width: 0px;"/>
  <path d="m103.53,43.59c1.39-.1,1.92.73,2.21,1.81.06.22.08.54-.03.7-1.24,1.69-1.21,3.47-.4,5.29.39.88.16,1.73-.58,2.03-.92.37-1.5-.54-1.64-1.27-.55-2.85-.77-5.71.45-8.55Z" style="stroke-width: 0px;"/>
  <path d="m135.6,42.4v8.83c-1.28.46-2.1-.44-2.04-1.77.09-2.09.63-4.16,1.05-6.22.06-.28.55-.48.99-.83Z" style="stroke-width: 0px;"/>
  <path d="m49.27,71.96c1.81.59,3.52-1.11,5.28.05-1.39,1.9-2.92,3.22-5.28,3.13v-3.18Z" style="stroke-width: 0px;"/>
  <path d="m123.24,38.35c1.46-.86,2.95-1.09,4.29.17.35.32.45,1.05.43,1.59-.03.8-.68.72-1.29.72-.9,0-1.58-.26-2.11-1.04-.36-.53-.87-.96-1.32-1.44Z" style="stroke-width: 0px;"/>
  <path d="m84.53,38.93c1.22-.95,2.51-1.14,3.8-.32.34.22.4.87.59,1.32-.38.14-.76.41-1.13.39-1.21-.06-2.56.16-3.26-1.39Z" style="stroke-width: 0px;"/>
  <path d="m49.84,39.32c1.65-.9,2.76-.41,3.69.81.79,1.04.83,1.21.34,2.45-1.34-1.08-2.64-2.13-4.03-3.26Z" style="stroke-width: 0px;"/>
  <path d="m93.55,39.08c1.78-.94,3.6-.47,4.38,1.05q-.79.74-4.38-1.05Z" style="stroke-width: 0px;"/>
  <path d="m103.41,39.18c.84-.69,2.47-.8,2.93-.06.68,1.09-.65,1.46-.99,2.38-.69-.83-1.29-1.53-1.94-2.31Z" style="stroke-width: 0px;"/>
  <path d="m65.67,39.39c-1.44-.28-1.53-1.77-2.43-2.51.03-.12.07-.24.1-.37.55,0,1.32-.23,1.62.05.73.68,1.54,1.51.71,2.83Z" style="stroke-width: 0px;"/>
  <path d="m113.58,38.49c.98-.25,1.63-1.57,2.64-.43.22.25.18,1.07-.07,1.33-.77.82-1.25.64-2.57-.9Z" style="stroke-width: 0px;"/>
  <path d="m72.29,39.69c.94-.53,1.86-1.18,2.84-.06-1.36,1.82-1.82,1.84-2.84.06Z" style="stroke-width: 0px;"/>
  <path d="m49.35,64.74c-.3-2.5-.13-2.85,1.69-3.14-.58,1.08-1.09,2.03-1.69,3.14Z" style="stroke-width: 0px;"/>
  <path d="m134.26,38.03c1.49-.51,1.53-.46,1.19,1.92-.37-.6-.75-1.21-1.19-1.92Z" style="stroke-width: 0px;"/>
</svg>